<svg xmlns="http://www.w3.org/2000/svg" width="48" height="48" viewBox="0 0 48 48">
  <g id="Group_3340" data-name="Group 3340" transform="translate(-405 -79.808)">
    <rect id="Rectangle_64" data-name="Rectangle 64" width="48" height="48" transform="translate(405 79.808)" fill="#dc67a7" opacity="0"/>
    <path id="Union_10" data-name="Union 10" d="M24.4,27.216,13.826,16.646,3.255,27.216a1,1,0,0,1-1.414,0l-1.406-1.4a1,1,0,0,1,0-1.415L11.006,13.826.436,3.255a1,1,0,0,1,0-1.414L1.84.436a1,1,0,0,1,1.415,0l10.57,10.571L24.4.436a1,1,0,0,1,1.415,0l1.4,1.406a1,1,0,0,1,0,1.414L16.646,13.826,27.216,24.4a1,1,0,0,1,0,1.415l-1.4,1.4a1,1,0,0,1-1.415,0Z" transform="translate(415.098 90.097)" fill="#dc67a7"/>
  </g>
</svg>
