<svg width="299" height="75" viewBox="0 0 299 75" fill="none" xmlns="http://www.w3.org/2000/svg">
<path d="M295.5 45C295.5 59.6356 283.636 71.5 269 71.5L30 71.5C15.3644 71.5 3.5 59.6355 3.5 45L3.5 38.7956C3.5 30.2185 7.7576 22.8871 15.1537 20.1787C33.5544 13.4404 73.6623 3.5 150.089 3.50001C226.563 3.50002 266.16 13.4528 284.184 20.1831C291.388 22.8729 295.5 30.0524 295.5 38.4659L295.5 45Z" fill="#5ACEFF" stroke="#3599C4" stroke-width="7"/>
<path d="M56.18 48.3C54.6 48.3 53.14 48.04 51.8 47.52C50.48 46.98 49.33 46.23 48.35 45.27C47.37 44.29 46.61 43.14 46.07 41.82C45.55 40.48 45.29 39.01 45.29 37.41C45.29 35.85 45.57 34.41 46.13 33.09C46.69 31.77 47.46 30.63 48.44 29.67C49.44 28.69 50.61 27.93 51.95 27.39C53.31 26.85 54.79 26.58 56.39 26.58C57.39 26.58 58.37 26.71 59.33 26.97C60.29 27.23 61.18 27.62 62 28.14C62.84 28.64 63.56 29.24 64.16 29.94L61.04 33.51C60.62 33.07 60.17 32.69 59.69 32.37C59.23 32.03 58.72 31.77 58.16 31.59C57.6 31.41 57 31.32 56.36 31.32C55.56 31.32 54.8 31.47 54.08 31.77C53.38 32.05 52.76 32.46 52.22 33C51.7 33.52 51.29 34.16 50.99 34.92C50.69 35.68 50.54 36.53 50.54 37.47C50.54 38.39 50.69 39.23 50.99 39.99C51.29 40.73 51.71 41.37 52.25 41.91C52.79 42.45 53.44 42.86 54.2 43.14C54.98 43.42 55.84 43.56 56.78 43.56C57.42 43.56 58.03 43.47 58.61 43.29C59.19 43.11 59.72 42.87 60.2 42.57C60.7 42.25 61.14 41.89 61.52 41.49L63.98 45.39C63.48 45.95 62.81 46.45 61.97 46.89C61.15 47.33 60.23 47.68 59.21 47.94C58.21 48.18 57.2 48.3 56.18 48.3ZM66.9601 48V25.8H71.6701V35.31L70.7101 35.67C70.9301 34.95 71.3201 34.3 71.8801 33.72C72.4601 33.12 73.1501 32.64 73.9501 32.28C74.7501 31.92 75.5901 31.74 76.4701 31.74C77.6701 31.74 78.6801 31.99 79.5001 32.49C80.3201 32.97 80.9401 33.7 81.3601 34.68C81.7801 35.64 81.9901 36.82 81.9901 38.22V48H77.1601V38.61C77.1601 37.97 77.0701 37.44 76.8901 37.02C76.7101 36.6 76.4301 36.29 76.0501 36.09C75.6901 35.87 75.2401 35.77 74.7001 35.79C74.2801 35.79 73.8901 35.86 73.5301 36C73.1701 36.12 72.8601 36.31 72.6001 36.57C72.3401 36.81 72.1301 37.09 71.9701 37.41C71.8301 37.73 71.7601 38.08 71.7601 38.46V48H69.3901C68.8301 48 68.3501 48 67.9501 48C67.5501 48 67.2201 48 66.9601 48ZM93.593 48.3C91.833 48.3 90.303 47.95 89.003 47.25C87.703 46.53 86.693 45.56 85.973 44.34C85.253 43.1 84.893 41.69 84.893 40.11C84.893 38.89 85.093 37.77 85.493 36.75C85.893 35.73 86.453 34.85 87.173 34.11C87.893 33.35 88.743 32.77 89.723 32.37C90.723 31.95 91.813 31.74 92.993 31.74C94.113 31.74 95.133 31.94 96.053 32.34C96.993 32.74 97.803 33.3 98.483 34.02C99.163 34.74 99.683 35.59 100.043 36.57C100.403 37.55 100.563 38.62 100.523 39.78L100.493 41.07H87.803L87.113 38.37H96.593L96.083 38.94V38.34C96.043 37.84 95.883 37.4 95.603 37.02C95.343 36.62 94.993 36.31 94.553 36.09C94.113 35.87 93.613 35.76 93.053 35.76C92.273 35.76 91.603 35.92 91.043 36.24C90.503 36.54 90.093 36.99 89.813 37.59C89.533 38.17 89.393 38.89 89.393 39.75C89.393 40.63 89.573 41.4 89.933 42.06C90.313 42.7 90.853 43.2 91.553 43.56C92.273 43.92 93.123 44.1 94.103 44.1C94.783 44.1 95.383 44 95.903 43.8C96.443 43.6 97.023 43.26 97.643 42.78L99.893 45.96C99.273 46.5 98.613 46.94 97.913 47.28C97.213 47.62 96.493 47.87 95.753 48.03C95.033 48.21 94.313 48.3 93.593 48.3ZM110.571 48.3C109.031 48.3 107.651 47.94 106.431 47.22C105.211 46.5 104.241 45.52 103.521 44.28C102.821 43.02 102.471 41.6 102.471 40.02C102.471 38.44 102.821 37.03 103.521 35.79C104.241 34.53 105.211 33.54 106.431 32.82C107.651 32.1 109.031 31.74 110.571 31.74C111.991 31.74 113.291 31.99 114.471 32.49C115.671 32.99 116.621 33.69 117.321 34.59L114.711 37.71C114.431 37.39 114.101 37.09 113.721 36.81C113.341 36.53 112.921 36.31 112.461 36.15C112.001 35.99 111.521 35.91 111.021 35.91C110.261 35.91 109.591 36.09 109.011 36.45C108.431 36.79 107.981 37.27 107.661 37.89C107.341 38.51 107.181 39.22 107.181 40.02C107.181 40.78 107.341 41.47 107.661 42.09C108.001 42.71 108.461 43.2 109.041 43.56C109.621 43.92 110.281 44.1 111.021 44.1C111.541 44.1 112.021 44.04 112.461 43.92C112.901 43.78 113.301 43.58 113.661 43.32C114.041 43.06 114.391 42.74 114.711 42.36L117.291 45.51C116.611 46.37 115.661 47.05 114.441 47.55C113.241 48.05 111.951 48.3 110.571 48.3ZM124.549 43.32L122.779 39.72L130.219 32.07H136.549L124.549 43.32ZM119.929 48V25.8H124.729V48H119.929ZM130.729 48L125.119 40.74L128.509 38.1L136.399 48H130.729ZM148.828 48V27H158.278C159.618 27 160.828 27.29 161.908 27.87C163.008 28.45 163.868 29.25 164.488 30.27C165.108 31.27 165.418 32.41 165.418 33.69C165.418 35.01 165.108 36.2 164.488 37.26C163.868 38.3 163.018 39.12 161.938 39.72C160.858 40.32 159.638 40.62 158.278 40.62H153.688V48H148.828ZM160.468 48L155.128 38.52L160.348 37.77L166.288 48H160.468ZM153.688 36.72H157.828C158.348 36.72 158.798 36.61 159.178 36.39C159.578 36.15 159.878 35.82 160.078 35.4C160.298 34.98 160.408 34.5 160.408 33.96C160.408 33.42 160.288 32.95 160.048 32.55C159.808 32.13 159.458 31.81 158.998 31.59C158.558 31.37 158.018 31.26 157.378 31.26H153.688V36.72ZM176.386 48.3C174.626 48.3 173.096 47.95 171.796 47.25C170.496 46.53 169.486 45.56 168.766 44.34C168.046 43.1 167.686 41.69 167.686 40.11C167.686 38.89 167.886 37.77 168.286 36.75C168.686 35.73 169.246 34.85 169.966 34.11C170.686 33.35 171.536 32.77 172.516 32.37C173.516 31.95 174.606 31.74 175.786 31.74C176.906 31.74 177.926 31.94 178.846 32.34C179.786 32.74 180.596 33.3 181.276 34.02C181.956 34.74 182.476 35.59 182.836 36.57C183.196 37.55 183.356 38.62 183.316 39.78L183.286 41.07H170.596L169.906 38.37H179.386L178.876 38.94V38.34C178.836 37.84 178.676 37.4 178.396 37.02C178.136 36.62 177.786 36.31 177.346 36.09C176.906 35.87 176.406 35.76 175.846 35.76C175.066 35.76 174.396 35.92 173.836 36.24C173.296 36.54 172.886 36.99 172.606 37.59C172.326 38.17 172.186 38.89 172.186 39.75C172.186 40.63 172.366 41.4 172.726 42.06C173.106 42.7 173.646 43.2 174.346 43.56C175.066 43.92 175.916 44.1 176.896 44.1C177.576 44.1 178.176 44 178.696 43.8C179.236 43.6 179.816 43.26 180.436 42.78L182.686 45.96C182.066 46.5 181.406 46.94 180.706 47.28C180.006 47.62 179.286 47.87 178.546 48.03C177.826 48.21 177.106 48.3 176.386 48.3ZM191.744 48.3C190.184 48.3 188.804 48.05 187.604 47.55C186.424 47.05 185.484 46.38 184.784 45.54L187.694 43.02C188.314 43.64 189.014 44.1 189.794 44.4C190.574 44.68 191.314 44.82 192.014 44.82C192.294 44.82 192.544 44.79 192.764 44.73C192.984 44.67 193.164 44.59 193.304 44.49C193.464 44.37 193.584 44.24 193.664 44.1C193.744 43.94 193.784 43.76 193.784 43.56C193.784 43.16 193.604 42.85 193.244 42.63C193.064 42.53 192.764 42.41 192.344 42.27C191.924 42.13 191.384 41.97 190.724 41.79C189.784 41.55 188.964 41.27 188.264 40.95C187.584 40.61 187.024 40.22 186.584 39.78C186.184 39.36 185.874 38.9 185.654 38.4C185.434 37.88 185.324 37.3 185.324 36.66C185.324 35.92 185.494 35.25 185.834 34.65C186.194 34.05 186.664 33.53 187.244 33.09C187.844 32.65 188.524 32.32 189.284 32.1C190.064 31.86 190.864 31.74 191.684 31.74C192.564 31.74 193.404 31.84 194.204 32.04C195.004 32.24 195.744 32.52 196.424 32.88C197.124 33.24 197.744 33.67 198.284 34.17L195.764 36.99C195.404 36.65 194.994 36.35 194.534 36.09C194.094 35.81 193.634 35.59 193.154 35.43C192.674 35.27 192.234 35.19 191.834 35.19C191.534 35.19 191.264 35.22 191.024 35.28C190.804 35.32 190.614 35.4 190.454 35.52C190.294 35.62 190.174 35.75 190.094 35.91C190.014 36.05 189.974 36.22 189.974 36.42C189.974 36.62 190.024 36.81 190.124 36.99C190.244 37.17 190.404 37.32 190.604 37.44C190.804 37.56 191.124 37.7 191.564 37.86C192.004 38 192.604 38.18 193.364 38.4C194.304 38.66 195.114 38.95 195.794 39.27C196.474 39.59 197.014 39.97 197.414 40.41C197.734 40.75 197.974 41.15 198.134 41.61C198.294 42.05 198.374 42.53 198.374 43.05C198.374 44.07 198.084 44.98 197.504 45.78C196.944 46.56 196.164 47.18 195.164 47.64C194.164 48.08 193.024 48.3 191.744 48.3ZM206.658 48.33C205.478 48.33 204.468 48.08 203.628 47.58C202.808 47.06 202.168 46.32 201.708 45.36C201.268 44.4 201.048 43.25 201.048 41.91V32.07H205.878V41.25C205.878 41.89 205.978 42.44 206.178 42.9C206.378 43.36 206.678 43.72 207.078 43.98C207.478 44.22 207.958 44.34 208.518 44.34C208.938 44.34 209.318 44.27 209.658 44.13C210.018 43.99 210.318 43.8 210.558 43.56C210.818 43.3 211.018 43.01 211.158 42.69C211.298 42.35 211.368 41.98 211.368 41.58V32.07H216.198V48H211.668L211.458 44.73L212.358 44.37C212.118 45.13 211.718 45.81 211.158 46.41C210.598 46.99 209.928 47.46 209.148 47.82C208.368 48.16 207.538 48.33 206.658 48.33ZM220.506 48V25.8H225.306V48H220.506ZM230.819 48V28.05H235.619V48H230.819ZM227.999 36.27V32.07H238.709V36.27H227.999ZM247.408 48.3C245.848 48.3 244.468 48.05 243.268 47.55C242.088 47.05 241.148 46.38 240.448 45.54L243.358 43.02C243.978 43.64 244.678 44.1 245.458 44.4C246.238 44.68 246.978 44.82 247.678 44.82C247.958 44.82 248.208 44.79 248.428 44.73C248.648 44.67 248.828 44.59 248.968 44.49C249.128 44.37 249.248 44.24 249.328 44.1C249.408 43.94 249.448 43.76 249.448 43.56C249.448 43.16 249.268 42.85 248.908 42.63C248.728 42.53 248.428 42.41 248.008 42.27C247.588 42.13 247.048 41.97 246.388 41.79C245.448 41.55 244.628 41.27 243.928 40.95C243.248 40.61 242.688 40.22 242.248 39.78C241.848 39.36 241.538 38.9 241.318 38.4C241.098 37.88 240.988 37.3 240.988 36.66C240.988 35.92 241.158 35.25 241.498 34.65C241.858 34.05 242.328 33.53 242.908 33.09C243.508 32.65 244.188 32.32 244.948 32.1C245.728 31.86 246.528 31.74 247.348 31.74C248.228 31.74 249.068 31.84 249.868 32.04C250.668 32.24 251.408 32.52 252.088 32.88C252.788 33.24 253.408 33.67 253.948 34.17L251.428 36.99C251.068 36.65 250.658 36.35 250.198 36.09C249.758 35.81 249.298 35.59 248.818 35.43C248.338 35.27 247.898 35.19 247.498 35.19C247.198 35.19 246.928 35.22 246.688 35.28C246.468 35.32 246.278 35.4 246.118 35.52C245.958 35.62 245.838 35.75 245.758 35.91C245.678 36.05 245.638 36.22 245.638 36.42C245.638 36.62 245.688 36.81 245.788 36.99C245.908 37.17 246.068 37.32 246.268 37.44C246.468 37.56 246.788 37.7 247.228 37.86C247.668 38 248.268 38.18 249.028 38.4C249.968 38.66 250.778 38.95 251.458 39.27C252.138 39.59 252.678 39.97 253.078 40.41C253.398 40.75 253.638 41.15 253.798 41.61C253.958 42.05 254.038 42.53 254.038 43.05C254.038 44.07 253.748 44.98 253.168 45.78C252.608 46.56 251.828 47.18 250.828 47.64C249.828 48.08 248.688 48.3 247.408 48.3Z" fill="#FFF8F7"/>
</svg>
