<svg width="167" height="81" viewBox="0 0 167 81" fill="none" xmlns="http://www.w3.org/2000/svg">
<path d="M163.5 36.1755C163.5 49.1534 155.914 60.9251 143.999 65.3315C121.291 73.7289 102.107 77.6281 83.1873 77.4968C64.2605 77.3654 45.3813 73.1993 23.2779 65.1797C11.2329 60.8095 3.5 49.0007 3.5 35.9451C3.5 18.0262 18.0262 3.5 35.9452 3.5H130.824C148.871 3.5 163.5 18.1293 163.5 36.1755Z" fill="#F19A87" stroke="#C16651" stroke-width="7"/>
<path d="M28.9271 52V27.5H38.5171C40.2671 27.5 41.8421 27.7917 43.2421 28.375C44.6654 28.9583 45.8787 29.7983 46.8821 30.895C47.8854 31.9917 48.6554 33.2867 49.1921 34.78C49.7287 36.2733 49.9971 37.93 49.9971 39.75C49.9971 41.57 49.7287 43.2383 49.1921 44.755C48.6554 46.2483 47.8854 47.5433 46.8821 48.64C45.9021 49.7133 44.7004 50.5417 43.2771 51.125C41.8537 51.7083 40.2671 52 38.5171 52H28.9271ZM32.7071 48.745L32.6021 48.36H38.3421C39.5787 48.36 40.6754 48.1617 41.6321 47.765C42.6121 47.3683 43.4287 46.8083 44.0821 46.085C44.7587 45.3383 45.2721 44.4283 45.6221 43.355C45.9721 42.2817 46.1471 41.08 46.1471 39.75C46.1471 38.42 45.9721 37.23 45.6221 36.18C45.2721 35.1067 44.7587 34.1967 44.0821 33.45C43.4054 32.7033 42.5887 32.1317 41.6321 31.735C40.6754 31.3383 39.5787 31.14 38.3421 31.14H32.4971L32.7071 30.825V48.745ZM65.3637 52.35C63.637 52.35 62.0387 52.035 60.5687 51.405C59.122 50.775 57.8504 49.9 56.7537 48.78C55.6804 47.6367 54.8404 46.3067 54.2337 44.79C53.6504 43.25 53.3587 41.57 53.3587 39.75C53.3587 37.93 53.6504 36.2617 54.2337 34.745C54.8404 33.205 55.6804 31.875 56.7537 30.755C57.8504 29.6117 59.122 28.725 60.5687 28.095C62.0387 27.465 63.637 27.15 65.3637 27.15C67.0904 27.15 68.677 27.465 70.1237 28.095C71.5937 28.725 72.8654 29.6117 73.9387 30.755C75.0354 31.8983 75.8754 33.24 76.4587 34.78C77.0654 36.2967 77.3687 37.9533 77.3687 39.75C77.3687 41.5467 77.0654 43.215 76.4587 44.755C75.8754 46.2717 75.0354 47.6017 73.9387 48.745C72.8654 49.8883 71.5937 50.775 70.1237 51.405C68.677 52.035 67.0904 52.35 65.3637 52.35ZM65.3637 48.675C66.5537 48.675 67.6387 48.4533 68.6187 48.01C69.622 47.5667 70.4854 46.9483 71.2087 46.155C71.932 45.3383 72.492 44.3933 72.8887 43.32C73.3087 42.2233 73.5187 41.0333 73.5187 39.75C73.5187 38.4667 73.3087 37.2883 72.8887 36.215C72.492 35.1183 71.932 34.1733 71.2087 33.38C70.4854 32.5633 69.622 31.9333 68.6187 31.49C67.6387 31.0467 66.5537 30.825 65.3637 30.825C64.1737 30.825 63.077 31.0467 62.0737 31.49C61.0937 31.9333 60.2304 32.5517 59.4837 33.345C58.7604 34.1383 58.2004 35.0833 57.8037 36.18C57.407 37.2533 57.2087 38.4433 57.2087 39.75C57.2087 41.0333 57.407 42.2233 57.8037 43.32C58.2004 44.4167 58.7604 45.3617 59.4837 46.155C60.2304 46.9483 61.0937 47.5667 62.0737 48.01C63.077 48.4533 64.1737 48.675 65.3637 48.675ZM87.5307 52L79.7257 27.5H83.7507L88.4757 42.83C88.6157 43.2033 88.7441 43.6467 88.8607 44.16C88.9774 44.65 89.0824 45.1517 89.1757 45.665C89.2691 46.1783 89.3507 46.6567 89.4207 47.1C89.5141 47.5433 89.5957 47.905 89.6657 48.185L88.6507 48.15C89.0007 46.9133 89.2691 45.9567 89.4557 45.28C89.6657 44.6033 89.8291 44.09 89.9457 43.74C90.0624 43.3667 90.1674 43.0517 90.2607 42.795L94.6707 31.735H98.0657L102.336 42.795C102.569 43.355 102.767 43.915 102.931 44.475C103.117 45.0117 103.281 45.56 103.421 46.12C103.561 46.6567 103.712 47.2283 103.876 47.835L102.966 48.08C103.082 47.45 103.164 46.96 103.211 46.61C103.281 46.2367 103.339 45.9333 103.386 45.7C103.432 45.4667 103.479 45.245 103.526 45.035C103.572 44.8017 103.642 44.51 103.736 44.16C103.852 43.81 104.004 43.3317 104.191 42.725L108.846 27.5H112.906L105.101 52H102.476L96.0007 36.67L96.3157 36.81L90.0857 52H87.5307ZM117.179 52V27.5H120.574L135.554 47.555L134.994 47.87C134.901 47.2867 134.819 46.6567 134.749 45.98C134.679 45.28 134.609 44.545 134.539 43.775C134.492 42.9817 134.446 42.1533 134.399 41.29C134.376 40.4033 134.352 39.4817 134.329 38.525C134.306 37.5683 134.294 36.5767 134.294 35.55V27.5H138.074V52H134.609L119.874 32.68L120.259 32.19C120.376 33.6133 120.469 34.8267 120.539 35.83C120.632 36.81 120.702 37.65 120.749 38.35C120.819 39.0267 120.866 39.5867 120.889 40.03C120.912 40.45 120.924 40.8 120.924 41.08C120.947 41.36 120.959 41.605 120.959 41.815V52H117.179Z" fill="white"/>
</svg>
