<svg width="425" height="121" viewBox="0 0 425 121" fill="none" xmlns="http://www.w3.org/2000/svg">
<path d="M57.4756 50C57.4756 22.3857 79.8613 0 107.476 0H292.788C320.403 0 342.788 22.3858 342.788 50V54.9351C342.788 75.0099 330.861 93.4014 311.812 99.7365C224.178 128.881 133.6 126.932 78.807 100.816C64.6401 94.0642 57.4756 78.822 57.4756 63.1281V50Z" fill="#F4BBEB" fill-opacity="0.8"/>
<path d="M102.87 68.35C101.166 68.35 99.6029 68.0467 98.1796 67.44C96.7562 66.8333 95.5196 65.97 94.4696 64.85C93.4196 63.7067 92.6029 62.365 92.0196 60.825C91.4596 59.285 91.1796 57.5933 91.1796 55.75C91.1796 54 91.4829 52.3783 92.0896 50.885C92.7196 49.3683 93.5829 48.0383 94.6796 46.895C95.7762 45.7517 97.0479 44.865 98.4946 44.235C99.9412 43.605 101.505 43.29 103.185 43.29C104.375 43.29 105.53 43.4767 106.65 43.85C107.793 44.2 108.82 44.7017 109.73 45.355C110.663 45.985 111.421 46.7083 112.005 47.525L109.485 50.15C108.808 49.4733 108.12 48.9133 107.42 48.47C106.743 48.0033 106.043 47.6533 105.32 47.42C104.62 47.1867 103.908 47.07 103.185 47.07C102.041 47.07 100.968 47.2917 99.9646 47.735C98.9846 48.155 98.1212 48.75 97.3746 49.52C96.6512 50.29 96.0796 51.2117 95.6596 52.285C95.2396 53.335 95.0296 54.49 95.0296 55.75C95.0296 57.08 95.2279 58.2933 95.6246 59.39C96.0446 60.4633 96.6279 61.385 97.3746 62.155C98.1212 62.925 99.0079 63.52 100.035 63.94C101.085 64.3367 102.24 64.535 103.5 64.535C104.27 64.535 105.028 64.43 105.775 64.22C106.521 64.01 107.221 63.7067 107.875 63.31C108.528 62.9133 109.123 62.4467 109.66 61.91L111.55 64.99C111.013 65.62 110.278 66.1917 109.345 66.705C108.435 67.2183 107.408 67.6267 106.265 67.93C105.145 68.21 104.013 68.35 102.87 68.35ZM124.034 68.35C122.238 68.35 120.628 67.9417 119.204 67.125C117.804 66.285 116.696 65.1533 115.879 63.73C115.063 62.2833 114.654 60.6383 114.654 58.795C114.654 56.9517 115.063 55.3183 115.879 53.895C116.696 52.4483 117.804 51.3167 119.204 50.5C120.628 49.66 122.238 49.24 124.034 49.24C125.808 49.24 127.394 49.66 128.794 50.5C130.218 51.3167 131.338 52.4483 132.154 53.895C132.971 55.3183 133.379 56.9517 133.379 58.795C133.379 60.6383 132.971 62.2833 132.154 63.73C131.338 65.1533 130.218 66.285 128.794 67.125C127.394 67.9417 125.808 68.35 124.034 68.35ZM124.034 65.06C125.131 65.06 126.111 64.7917 126.974 64.255C127.838 63.695 128.514 62.9483 129.004 62.015C129.494 61.0583 129.728 59.985 129.704 58.795C129.728 57.5817 129.494 56.5083 129.004 55.575C128.514 54.6183 127.838 53.8717 126.974 53.335C126.111 52.7983 125.131 52.53 124.034 52.53C122.938 52.53 121.946 52.81 121.059 53.37C120.196 53.9067 119.519 54.6533 119.029 55.61C118.539 56.5433 118.306 57.605 118.329 58.795C118.306 59.985 118.539 61.0583 119.029 62.015C119.519 62.9483 120.196 63.695 121.059 64.255C121.946 64.7917 122.938 65.06 124.034 65.06ZM137.308 68V49.625H140.913V53.405L140.283 53.825C140.516 53.0083 140.971 52.2617 141.648 51.585C142.324 50.885 143.129 50.325 144.063 49.905C144.996 49.4617 145.953 49.24 146.933 49.24C148.333 49.24 149.499 49.52 150.433 50.08C151.366 50.6167 152.066 51.445 152.533 52.565C152.999 53.685 153.233 55.0967 153.233 56.8V68H149.628V57.045C149.628 55.995 149.488 55.1317 149.208 54.455C148.928 53.755 148.496 53.2533 147.913 52.95C147.329 52.6233 146.606 52.4833 145.743 52.53C145.043 52.53 144.401 52.6467 143.818 52.88C143.234 53.09 142.721 53.3933 142.278 53.79C141.858 54.1867 141.519 54.6533 141.263 55.19C141.029 55.7033 140.913 56.2633 140.913 56.87V68H139.128C138.824 68 138.521 68 138.218 68C137.914 68 137.611 68 137.308 68ZM164.248 68.35C162.708 68.35 161.32 68.0817 160.083 67.545C158.846 67.0083 157.82 66.215 157.003 65.165L159.453 63.065C160.153 63.8817 160.911 64.4767 161.728 64.85C162.568 65.2 163.513 65.375 164.563 65.375C164.983 65.375 165.368 65.3283 165.718 65.235C166.091 65.1183 166.406 64.955 166.663 64.745C166.943 64.535 167.153 64.29 167.293 64.01C167.433 63.7067 167.503 63.38 167.503 63.03C167.503 62.4233 167.281 61.9333 166.838 61.56C166.605 61.3967 166.231 61.2217 165.718 61.035C165.228 60.825 164.586 60.615 163.793 60.405C162.44 60.055 161.331 59.6583 160.468 59.215C159.605 58.7717 158.94 58.27 158.473 57.71C158.123 57.2667 157.866 56.7883 157.703 56.275C157.54 55.7383 157.458 55.155 157.458 54.525C157.458 53.755 157.621 53.055 157.948 52.425C158.298 51.7717 158.765 51.2117 159.348 50.745C159.955 50.255 160.655 49.8817 161.448 49.625C162.265 49.3683 163.128 49.24 164.038 49.24C164.901 49.24 165.753 49.3567 166.593 49.59C167.456 49.8233 168.25 50.1617 168.973 50.605C169.696 51.0483 170.303 51.5733 170.793 52.18L168.728 54.455C168.285 54.0117 167.795 53.6267 167.258 53.3C166.745 52.95 166.22 52.6817 165.683 52.495C165.146 52.3083 164.656 52.215 164.213 52.215C163.723 52.215 163.28 52.2617 162.883 52.355C162.486 52.4483 162.148 52.5883 161.868 52.775C161.611 52.9617 161.413 53.195 161.273 53.475C161.133 53.755 161.063 54.07 161.063 54.42C161.086 54.7233 161.156 55.015 161.273 55.295C161.413 55.5517 161.6 55.7733 161.833 55.96C162.09 56.1467 162.475 56.345 162.988 56.555C163.501 56.765 164.155 56.9633 164.948 57.15C166.115 57.4533 167.071 57.7917 167.818 58.165C168.588 58.515 169.195 58.9233 169.638 59.39C170.105 59.8333 170.431 60.3467 170.618 60.93C170.805 61.5133 170.898 62.1667 170.898 62.89C170.898 63.94 170.595 64.885 169.988 65.725C169.405 66.5417 168.611 67.1833 167.608 67.65C166.605 68.1167 165.485 68.35 164.248 68.35ZM181.311 68.35C180.004 68.35 178.861 68.0467 177.881 67.44C176.924 66.8333 176.178 65.9817 175.641 64.885C175.128 63.7883 174.871 62.4817 174.871 60.965V49.625H178.476V59.985C178.476 61.0583 178.639 61.9917 178.966 62.785C179.316 63.555 179.806 64.15 180.436 64.57C181.089 64.99 181.871 65.2 182.781 65.2C183.458 65.2 184.076 65.095 184.636 64.885C185.196 64.6517 185.674 64.3367 186.071 63.94C186.491 63.5433 186.818 63.065 187.051 62.505C187.284 61.945 187.401 61.3383 187.401 60.685V49.625H191.006V68H187.401V64.15L188.031 63.73C187.751 64.5933 187.273 65.375 186.596 66.075C185.943 66.775 185.161 67.335 184.251 67.755C183.341 68.1517 182.361 68.35 181.311 68.35ZM195.993 68V49.625H199.633V53.545L198.968 53.965C199.154 53.3583 199.446 52.775 199.843 52.215C200.263 51.655 200.764 51.165 201.348 50.745C201.954 50.3017 202.596 49.9517 203.273 49.695C203.973 49.4383 204.684 49.31 205.408 49.31C206.458 49.31 207.379 49.485 208.173 49.835C208.966 50.185 209.619 50.71 210.133 51.41C210.646 52.11 211.019 52.985 211.253 54.035L210.693 53.895L210.938 53.3C211.194 52.7633 211.544 52.2617 211.988 51.795C212.454 51.305 212.979 50.8733 213.563 50.5C214.146 50.1267 214.764 49.835 215.418 49.625C216.071 49.415 216.713 49.31 217.343 49.31C218.719 49.31 219.851 49.59 220.738 50.15C221.648 50.71 222.324 51.5617 222.768 52.705C223.234 53.8483 223.468 55.2717 223.468 56.975V68H219.828V57.185C219.828 56.135 219.688 55.2833 219.408 54.63C219.151 53.9533 218.754 53.4517 218.218 53.125C217.681 52.7983 216.993 52.635 216.153 52.635C215.499 52.635 214.881 52.7517 214.298 52.985C213.738 53.195 213.248 53.4983 212.828 53.895C212.408 54.2917 212.081 54.7583 211.848 55.295C211.614 55.8083 211.498 56.38 211.498 57.01V68H207.858V57.115C207.858 56.1583 207.718 55.3533 207.438 54.7C207.158 54.0233 206.749 53.51 206.213 53.16C205.676 52.81 205.023 52.635 204.253 52.635C203.599 52.635 202.993 52.7517 202.433 52.985C201.873 53.195 201.383 53.4983 200.963 53.895C200.543 54.2683 200.216 54.7233 199.983 55.26C199.749 55.7733 199.633 56.3333 199.633 56.94V68H195.993ZM235.364 68.35C233.847 68.35 232.459 67.93 231.199 67.09C229.962 66.25 228.971 65.1067 228.224 63.66C227.477 62.2133 227.104 60.58 227.104 58.76C227.104 56.9167 227.477 55.2833 228.224 53.86C228.994 52.4133 230.021 51.2817 231.304 50.465C232.611 49.6483 234.069 49.24 235.679 49.24C236.636 49.24 237.511 49.38 238.304 49.66C239.097 49.94 239.786 50.3367 240.369 50.85C240.976 51.34 241.466 51.9117 241.839 52.565C242.236 53.2183 242.481 53.9183 242.574 54.665L241.769 54.385V49.625H245.409V68H241.769V63.625L242.609 63.38C242.469 64.01 242.177 64.6283 241.734 65.235C241.314 65.8183 240.766 66.3433 240.089 66.81C239.436 67.2767 238.701 67.65 237.884 67.93C237.091 68.21 236.251 68.35 235.364 68.35ZM236.309 65.025C237.406 65.025 238.374 64.7567 239.214 64.22C240.054 63.6833 240.707 62.9483 241.174 62.015C241.664 61.0583 241.909 59.9733 241.909 58.76C241.909 57.57 241.664 56.5083 241.174 55.575C240.707 54.6417 240.054 53.9067 239.214 53.37C238.374 52.8333 237.406 52.565 236.309 52.565C235.236 52.565 234.279 52.8333 233.439 53.37C232.622 53.9067 231.969 54.6417 231.479 55.575C231.012 56.5083 230.779 57.57 230.779 58.76C230.779 59.9733 231.012 61.0583 231.479 62.015C231.969 62.9483 232.622 63.6833 233.439 64.22C234.279 64.7567 235.236 65.025 236.309 65.025ZM260.102 68.35C259.309 68.35 258.516 68.2217 257.722 67.965C256.952 67.7083 256.241 67.37 255.587 66.95C254.957 66.5067 254.421 66.0283 253.977 65.515C253.557 64.9783 253.277 64.4417 253.137 63.905L254.047 63.415V67.895H250.442V42.1H254.047V53.825L253.487 53.51C253.604 52.9733 253.861 52.46 254.257 51.97C254.654 51.4567 255.156 51.0017 255.762 50.605C256.392 50.185 257.069 49.8583 257.792 49.625C258.516 49.3683 259.251 49.24 259.997 49.24C261.654 49.24 263.124 49.6483 264.407 50.465C265.691 51.2817 266.706 52.4133 267.452 53.86C268.199 55.2833 268.572 56.9167 268.572 58.76C268.572 60.6033 268.199 62.2483 267.452 63.695C266.729 65.1417 265.726 66.285 264.442 67.125C263.159 67.9417 261.712 68.35 260.102 68.35ZM259.507 65.06C260.581 65.06 261.537 64.7917 262.377 64.255C263.217 63.695 263.882 62.9483 264.372 62.015C264.862 61.0583 265.107 59.9733 265.107 58.76C265.107 57.57 264.862 56.5083 264.372 55.575C263.906 54.6183 263.252 53.8717 262.412 53.335C261.572 52.7983 260.604 52.53 259.507 52.53C258.411 52.53 257.442 52.7983 256.602 53.335C255.762 53.8717 255.097 54.6183 254.607 55.575C254.117 56.5083 253.872 57.57 253.872 58.76C253.872 59.9733 254.117 61.0583 254.607 62.015C255.097 62.9483 255.762 63.695 256.602 64.255C257.442 64.7917 258.411 65.06 259.507 65.06ZM272.558 68V42.1H276.163V68H272.558ZM289.506 68.35C287.616 68.35 285.936 67.9533 284.466 67.16C283.019 66.3433 281.876 65.235 281.036 63.835C280.219 62.435 279.811 60.825 279.811 59.005C279.811 57.5583 280.044 56.24 280.511 55.05C280.977 53.86 281.619 52.8333 282.436 51.97C283.276 51.0833 284.267 50.4067 285.411 49.94C286.577 49.45 287.837 49.205 289.191 49.205C290.381 49.205 291.489 49.4383 292.516 49.905C293.542 50.3483 294.429 50.9667 295.176 51.76C295.946 52.5533 296.529 53.4983 296.926 54.595C297.346 55.6683 297.544 56.8467 297.521 58.13L297.486 59.67H282.471L281.666 56.8H294.371L293.846 57.395V56.555C293.776 55.785 293.519 55.0967 293.076 54.49C292.632 53.8833 292.072 53.405 291.396 53.055C290.719 52.705 289.984 52.53 289.191 52.53C287.931 52.53 286.869 52.775 286.006 53.265C285.142 53.7317 284.489 54.4317 284.046 55.365C283.602 56.275 283.381 57.4067 283.381 58.76C283.381 60.0433 283.649 61.1633 284.186 62.12C284.722 63.0533 285.481 63.7767 286.461 64.29C287.441 64.8033 288.572 65.06 289.856 65.06C290.766 65.06 291.606 64.9083 292.376 64.605C293.169 64.3017 294.021 63.7533 294.931 62.96L296.751 65.515C296.191 66.075 295.502 66.565 294.686 66.985C293.892 67.405 293.041 67.7433 292.131 68C291.244 68.2333 290.369 68.35 289.506 68.35ZM307.564 68.35C306.024 68.35 304.635 68.0817 303.399 67.545C302.162 67.0083 301.135 66.215 300.319 65.165L302.769 63.065C303.469 63.8817 304.227 64.4767 305.044 64.85C305.884 65.2 306.829 65.375 307.879 65.375C308.299 65.375 308.684 65.3283 309.034 65.235C309.407 65.1183 309.722 64.955 309.979 64.745C310.259 64.535 310.469 64.29 310.609 64.01C310.749 63.7067 310.819 63.38 310.819 63.03C310.819 62.4233 310.597 61.9333 310.154 61.56C309.92 61.3967 309.547 61.2217 309.034 61.035C308.544 60.825 307.902 60.615 307.109 60.405C305.755 60.055 304.647 59.6583 303.784 59.215C302.92 58.7717 302.255 58.27 301.789 57.71C301.439 57.2667 301.182 56.7883 301.019 56.275C300.855 55.7383 300.774 55.155 300.774 54.525C300.774 53.755 300.937 53.055 301.264 52.425C301.614 51.7717 302.08 51.2117 302.664 50.745C303.27 50.255 303.97 49.8817 304.764 49.625C305.58 49.3683 306.444 49.24 307.354 49.24C308.217 49.24 309.069 49.3567 309.909 49.59C310.772 49.8233 311.565 50.1617 312.289 50.605C313.012 51.0483 313.619 51.5733 314.109 52.18L312.044 54.455C311.6 54.0117 311.11 53.6267 310.574 53.3C310.06 52.95 309.535 52.6817 308.999 52.495C308.462 52.3083 307.972 52.215 307.529 52.215C307.039 52.215 306.595 52.2617 306.199 52.355C305.802 52.4483 305.464 52.5883 305.184 52.775C304.927 52.9617 304.729 53.195 304.589 53.475C304.449 53.755 304.379 54.07 304.379 54.42C304.402 54.7233 304.472 55.015 304.589 55.295C304.729 55.5517 304.915 55.7733 305.149 55.96C305.405 56.1467 305.79 56.345 306.304 56.555C306.817 56.765 307.47 56.9633 308.264 57.15C309.43 57.4533 310.387 57.7917 311.134 58.165C311.904 58.515 312.51 58.9233 312.954 59.39C313.42 59.8333 313.747 60.3467 313.934 60.93C314.12 61.5133 314.214 62.1667 314.214 62.89C314.214 63.94 313.91 64.885 313.304 65.725C312.72 66.5417 311.927 67.1833 310.924 67.65C309.92 68.1167 308.8 68.35 307.564 68.35Z" fill="black"/>
</svg>
