<svg  viewBox="0 0 286 121" fill="none" xmlns="http://www.w3.org/2000/svg">
<path d="M0.475586 50C0.475586 22.3857 22.8613 0 50.4756 0H235.788C263.403 0 285.788 22.3858 285.788 50V54.9351C285.788 75.0099 273.861 93.4014 254.812 99.7365C167.178 128.881 76.5997 126.932 21.807 100.816C7.64007 94.0642 0.475586 78.822 0.475586 63.1281V50Z" fill="#F4BBEB" fill-opacity="0.8"/>
<path d="M43.2865 68.35C41.5832 68.35 40.0198 68.0467 38.5965 67.44C37.1732 66.8333 35.9365 65.97 34.8865 64.85C33.8365 63.7067 33.0198 62.365 32.4365 60.825C31.8765 59.285 31.5965 57.5933 31.5965 55.75C31.5965 54 31.8998 52.3783 32.5065 50.885C33.1365 49.3683 33.9998 48.0383 35.0965 46.895C36.1932 45.7517 37.4648 44.865 38.9115 44.235C40.3582 43.605 41.9215 43.29 43.6015 43.29C44.7915 43.29 45.9465 43.4767 47.0665 43.85C48.2098 44.2 49.2365 44.7017 50.1465 45.355C51.0798 45.985 51.8382 46.7083 52.4215 47.525L49.9015 50.15C49.2248 49.4733 48.5365 48.9133 47.8365 48.47C47.1598 48.0033 46.4598 47.6533 45.7365 47.42C45.0365 47.1867 44.3248 47.07 43.6015 47.07C42.4582 47.07 41.3848 47.2917 40.3815 47.735C39.4015 48.155 38.5382 48.75 37.7915 49.52C37.0682 50.29 36.4965 51.2117 36.0765 52.285C35.6565 53.335 35.4465 54.49 35.4465 55.75C35.4465 57.08 35.6448 58.2933 36.0415 59.39C36.4615 60.4633 37.0448 61.385 37.7915 62.155C38.5382 62.925 39.4248 63.52 40.4515 63.94C41.5015 64.3367 42.6565 64.535 43.9165 64.535C44.6865 64.535 45.4448 64.43 46.1915 64.22C46.9382 64.01 47.6382 63.7067 48.2915 63.31C48.9448 62.9133 49.5398 62.4467 50.0765 61.91L51.9665 64.99C51.4298 65.62 50.6948 66.1917 49.7615 66.705C48.8515 67.2183 47.8248 67.6267 46.6815 67.93C45.5615 68.21 44.4298 68.35 43.2865 68.35ZM64.4514 68.35C62.6547 68.35 61.0447 67.9417 59.6214 67.125C58.2214 66.285 57.1131 65.1533 56.2964 63.73C55.4797 62.2833 55.0714 60.6383 55.0714 58.795C55.0714 56.9517 55.4797 55.3183 56.2964 53.895C57.1131 52.4483 58.2214 51.3167 59.6214 50.5C61.0447 49.66 62.6547 49.24 64.4514 49.24C66.2247 49.24 67.8114 49.66 69.2114 50.5C70.6347 51.3167 71.7547 52.4483 72.5714 53.895C73.3881 55.3183 73.7964 56.9517 73.7964 58.795C73.7964 60.6383 73.3881 62.2833 72.5714 63.73C71.7547 65.1533 70.6347 66.285 69.2114 67.125C67.8114 67.9417 66.2247 68.35 64.4514 68.35ZM64.4514 65.06C65.5481 65.06 66.5281 64.7917 67.3914 64.255C68.2547 63.695 68.9314 62.9483 69.4214 62.015C69.9114 61.0583 70.1447 59.985 70.1214 58.795C70.1447 57.5817 69.9114 56.5083 69.4214 55.575C68.9314 54.6183 68.2547 53.8717 67.3914 53.335C66.5281 52.7983 65.5481 52.53 64.4514 52.53C63.3547 52.53 62.3631 52.81 61.4764 53.37C60.6131 53.9067 59.9364 54.6533 59.4464 55.61C58.9564 56.5433 58.7231 57.605 58.7464 58.795C58.7231 59.985 58.9564 61.0583 59.4464 62.015C59.9364 62.9483 60.6131 63.695 61.4764 64.255C62.3631 64.7917 63.3547 65.06 64.4514 65.06ZM77.7246 68V49.625H81.3296V53.405L80.6996 53.825C80.9329 53.0083 81.3879 52.2617 82.0646 51.585C82.7413 50.885 83.5463 50.325 84.4796 49.905C85.4129 49.4617 86.3696 49.24 87.3496 49.24C88.7496 49.24 89.9163 49.52 90.8496 50.08C91.7829 50.6167 92.4829 51.445 92.9496 52.565C93.4163 53.685 93.6496 55.0967 93.6496 56.8V68H90.0446V57.045C90.0446 55.995 89.9046 55.1317 89.6246 54.455C89.3446 53.755 88.9129 53.2533 88.3296 52.95C87.7463 52.6233 87.0229 52.4833 86.1596 52.53C85.4596 52.53 84.8179 52.6467 84.2346 52.88C83.6513 53.09 83.1379 53.3933 82.6946 53.79C82.2746 54.1867 81.9363 54.6533 81.6796 55.19C81.4463 55.7033 81.3296 56.2633 81.3296 56.87V68H79.5446C79.2413 68 78.9379 68 78.6346 68C78.3313 68 78.0279 68 77.7246 68ZM104.665 68.35C103.125 68.35 101.737 68.0817 100.5 67.545C99.2634 67.0083 98.2367 66.215 97.42 65.165L99.87 63.065C100.57 63.8817 101.328 64.4767 102.145 64.85C102.985 65.2 103.93 65.375 104.98 65.375C105.4 65.375 105.785 65.3283 106.135 65.235C106.508 65.1183 106.823 64.955 107.08 64.745C107.36 64.535 107.57 64.29 107.71 64.01C107.85 63.7067 107.92 63.38 107.92 63.03C107.92 62.4233 107.698 61.9333 107.255 61.56C107.022 61.3967 106.648 61.2217 106.135 61.035C105.645 60.825 105.003 60.615 104.21 60.405C102.857 60.055 101.748 59.6583 100.885 59.215C100.022 58.7717 99.3567 58.27 98.89 57.71C98.54 57.2667 98.2834 56.7883 98.12 56.275C97.9567 55.7383 97.875 55.155 97.875 54.525C97.875 53.755 98.0384 53.055 98.365 52.425C98.715 51.7717 99.1817 51.2117 99.765 50.745C100.372 50.255 101.072 49.8817 101.865 49.625C102.682 49.3683 103.545 49.24 104.455 49.24C105.318 49.24 106.17 49.3567 107.01 49.59C107.873 49.8233 108.667 50.1617 109.39 50.605C110.113 51.0483 110.72 51.5733 111.21 52.18L109.145 54.455C108.702 54.0117 108.212 53.6267 107.675 53.3C107.162 52.95 106.637 52.6817 106.1 52.495C105.563 52.3083 105.073 52.215 104.63 52.215C104.14 52.215 103.697 52.2617 103.3 52.355C102.903 52.4483 102.565 52.5883 102.285 52.775C102.028 52.9617 101.83 53.195 101.69 53.475C101.55 53.755 101.48 54.07 101.48 54.42C101.503 54.7233 101.573 55.015 101.69 55.295C101.83 55.5517 102.017 55.7733 102.25 55.96C102.507 56.1467 102.892 56.345 103.405 56.555C103.918 56.765 104.572 56.9633 105.365 57.15C106.532 57.4533 107.488 57.7917 108.235 58.165C109.005 58.515 109.612 58.9233 110.055 59.39C110.522 59.8333 110.848 60.3467 111.035 60.93C111.222 61.5133 111.315 62.1667 111.315 62.89C111.315 63.94 111.012 64.885 110.405 65.725C109.822 66.5417 109.028 67.1833 108.025 67.65C107.022 68.1167 105.902 68.35 104.665 68.35ZM121.728 68.35C120.421 68.35 119.278 68.0467 118.298 67.44C117.341 66.8333 116.595 65.9817 116.058 64.885C115.545 63.7883 115.288 62.4817 115.288 60.965V49.625H118.893V59.985C118.893 61.0583 119.056 61.9917 119.383 62.785C119.733 63.555 120.223 64.15 120.853 64.57C121.506 64.99 122.288 65.2 123.198 65.2C123.875 65.2 124.493 65.095 125.053 64.885C125.613 64.6517 126.091 64.3367 126.488 63.94C126.908 63.5433 127.235 63.065 127.468 62.505C127.701 61.945 127.818 61.3383 127.818 60.685V49.625H131.423V68H127.818V64.15L128.448 63.73C128.168 64.5933 127.69 65.375 127.013 66.075C126.36 66.775 125.578 67.335 124.668 67.755C123.758 68.1517 122.778 68.35 121.728 68.35ZM136.409 68V49.625H140.049V53.545L139.384 53.965C139.571 53.3583 139.863 52.775 140.259 52.215C140.679 51.655 141.181 51.165 141.764 50.745C142.371 50.3017 143.013 49.9517 143.689 49.695C144.389 49.4383 145.101 49.31 145.824 49.31C146.874 49.31 147.796 49.485 148.589 49.835C149.383 50.185 150.036 50.71 150.549 51.41C151.063 52.11 151.436 52.985 151.669 54.035L151.109 53.895L151.354 53.3C151.611 52.7633 151.961 52.2617 152.404 51.795C152.871 51.305 153.396 50.8733 153.979 50.5C154.563 50.1267 155.181 49.835 155.834 49.625C156.488 49.415 157.129 49.31 157.759 49.31C159.136 49.31 160.268 49.59 161.154 50.15C162.064 50.71 162.741 51.5617 163.184 52.705C163.651 53.8483 163.884 55.2717 163.884 56.975V68H160.244V57.185C160.244 56.135 160.104 55.2833 159.824 54.63C159.568 53.9533 159.171 53.4517 158.634 53.125C158.098 52.7983 157.409 52.635 156.569 52.635C155.916 52.635 155.298 52.7517 154.714 52.985C154.154 53.195 153.664 53.4983 153.244 53.895C152.824 54.2917 152.498 54.7583 152.264 55.295C152.031 55.8083 151.914 56.38 151.914 57.01V68H148.274V57.115C148.274 56.1583 148.134 55.3533 147.854 54.7C147.574 54.0233 147.166 53.51 146.629 53.16C146.093 52.81 145.439 52.635 144.669 52.635C144.016 52.635 143.409 52.7517 142.849 52.985C142.289 53.195 141.799 53.4983 141.379 53.895C140.959 54.2683 140.633 54.7233 140.399 55.26C140.166 55.7733 140.049 56.3333 140.049 56.94V68H136.409ZM175.781 68.35C174.264 68.35 172.876 67.93 171.616 67.09C170.379 66.25 169.388 65.1067 168.641 63.66C167.894 62.2133 167.521 60.58 167.521 58.76C167.521 56.9167 167.894 55.2833 168.641 53.86C169.411 52.4133 170.438 51.2817 171.721 50.465C173.028 49.6483 174.486 49.24 176.096 49.24C177.053 49.24 177.928 49.38 178.721 49.66C179.514 49.94 180.203 50.3367 180.786 50.85C181.393 51.34 181.883 51.9117 182.256 52.565C182.653 53.2183 182.898 53.9183 182.991 54.665L182.186 54.385V49.625H185.826V68H182.186V63.625L183.026 63.38C182.886 64.01 182.594 64.6283 182.151 65.235C181.731 65.8183 181.183 66.3433 180.506 66.81C179.853 67.2767 179.118 67.65 178.301 67.93C177.508 68.21 176.668 68.35 175.781 68.35ZM176.726 65.025C177.823 65.025 178.791 64.7567 179.631 64.22C180.471 63.6833 181.124 62.9483 181.591 62.015C182.081 61.0583 182.326 59.9733 182.326 58.76C182.326 57.57 182.081 56.5083 181.591 55.575C181.124 54.6417 180.471 53.9067 179.631 53.37C178.791 52.8333 177.823 52.565 176.726 52.565C175.653 52.565 174.696 52.8333 173.856 53.37C173.039 53.9067 172.386 54.6417 171.896 55.575C171.429 56.5083 171.196 57.57 171.196 58.76C171.196 59.9733 171.429 61.0583 171.896 62.015C172.386 62.9483 173.039 63.6833 173.856 64.22C174.696 64.7567 175.653 65.025 176.726 65.025ZM200.519 68.35C199.726 68.35 198.933 68.2217 198.139 67.965C197.369 67.7083 196.658 67.37 196.004 66.95C195.374 66.5067 194.838 66.0283 194.394 65.515C193.974 64.9783 193.694 64.4417 193.554 63.905L194.464 63.415V67.895H190.859V42.1H194.464V53.825L193.904 53.51C194.021 52.9733 194.278 52.46 194.674 51.97C195.071 51.4567 195.573 51.0017 196.179 50.605C196.809 50.185 197.486 49.8583 198.209 49.625C198.933 49.3683 199.668 49.24 200.414 49.24C202.071 49.24 203.541 49.6483 204.824 50.465C206.108 51.2817 207.123 52.4133 207.869 53.86C208.616 55.2833 208.989 56.9167 208.989 58.76C208.989 60.6033 208.616 62.2483 207.869 63.695C207.146 65.1417 206.143 66.285 204.859 67.125C203.576 67.9417 202.129 68.35 200.519 68.35ZM199.924 65.06C200.998 65.06 201.954 64.7917 202.794 64.255C203.634 63.695 204.299 62.9483 204.789 62.015C205.279 61.0583 205.524 59.9733 205.524 58.76C205.524 57.57 205.279 56.5083 204.789 55.575C204.323 54.6183 203.669 53.8717 202.829 53.335C201.989 52.7983 201.021 52.53 199.924 52.53C198.828 52.53 197.859 52.7983 197.019 53.335C196.179 53.8717 195.514 54.6183 195.024 55.575C194.534 56.5083 194.289 57.57 194.289 58.76C194.289 59.9733 194.534 61.0583 195.024 62.015C195.514 62.9483 196.179 63.695 197.019 64.255C197.859 64.7917 198.828 65.06 199.924 65.06ZM212.975 68V42.1H216.58V68H212.975ZM229.923 68.35C228.033 68.35 226.353 67.9533 224.883 67.16C223.436 66.3433 222.293 65.235 221.453 63.835C220.636 62.435 220.228 60.825 220.228 59.005C220.228 57.5583 220.461 56.24 220.928 55.05C221.394 53.86 222.036 52.8333 222.853 51.97C223.693 51.0833 224.684 50.4067 225.828 49.94C226.994 49.45 228.254 49.205 229.608 49.205C230.798 49.205 231.906 49.4383 232.933 49.905C233.959 50.3483 234.846 50.9667 235.593 51.76C236.363 52.5533 236.946 53.4983 237.343 54.595C237.763 55.6683 237.961 56.8467 237.938 58.13L237.903 59.67H222.888L222.083 56.8H234.788L234.263 57.395V56.555C234.193 55.785 233.936 55.0967 233.493 54.49C233.049 53.8833 232.489 53.405 231.813 53.055C231.136 52.705 230.401 52.53 229.608 52.53C228.348 52.53 227.286 52.775 226.423 53.265C225.559 53.7317 224.906 54.4317 224.463 55.365C224.019 56.275 223.798 57.4067 223.798 58.76C223.798 60.0433 224.066 61.1633 224.603 62.12C225.139 63.0533 225.898 63.7767 226.878 64.29C227.858 64.8033 228.989 65.06 230.273 65.06C231.183 65.06 232.023 64.9083 232.793 64.605C233.586 64.3017 234.438 63.7533 235.348 62.96L237.168 65.515C236.608 66.075 235.919 66.565 235.103 66.985C234.309 67.405 233.458 67.7433 232.548 68C231.661 68.2333 230.786 68.35 229.923 68.35ZM247.98 68.35C246.44 68.35 245.052 68.0817 243.815 67.545C242.579 67.0083 241.552 66.215 240.735 65.165L243.185 63.065C243.885 63.8817 244.644 64.4767 245.46 64.85C246.3 65.2 247.245 65.375 248.295 65.375C248.715 65.375 249.1 65.3283 249.45 65.235C249.824 65.1183 250.139 64.955 250.395 64.745C250.675 64.535 250.885 64.29 251.025 64.01C251.165 63.7067 251.235 63.38 251.235 63.03C251.235 62.4233 251.014 61.9333 250.57 61.56C250.337 61.3967 249.964 61.2217 249.45 61.035C248.96 60.825 248.319 60.615 247.525 60.405C246.172 60.055 245.064 59.6583 244.2 59.215C243.337 58.7717 242.672 58.27 242.205 57.71C241.855 57.2667 241.599 56.7883 241.435 56.275C241.272 55.7383 241.19 55.155 241.19 54.525C241.19 53.755 241.354 53.055 241.68 52.425C242.03 51.7717 242.497 51.2117 243.08 50.745C243.687 50.255 244.387 49.8817 245.18 49.625C245.997 49.3683 246.86 49.24 247.77 49.24C248.634 49.24 249.485 49.3567 250.325 49.59C251.189 49.8233 251.982 50.1617 252.705 50.605C253.429 51.0483 254.035 51.5733 254.525 52.18L252.46 54.455C252.017 54.0117 251.527 53.6267 250.99 53.3C250.477 52.95 249.952 52.6817 249.415 52.495C248.879 52.3083 248.389 52.215 247.945 52.215C247.455 52.215 247.012 52.2617 246.615 52.355C246.219 52.4483 245.88 52.5883 245.6 52.775C245.344 52.9617 245.145 53.195 245.005 53.475C244.865 53.755 244.795 54.07 244.795 54.42C244.819 54.7233 244.889 55.015 245.005 55.295C245.145 55.5517 245.332 55.7733 245.565 55.96C245.822 56.1467 246.207 56.345 246.72 56.555C247.234 56.765 247.887 56.9633 248.68 57.15C249.847 57.4533 250.804 57.7917 251.55 58.165C252.32 58.515 252.927 58.9233 253.37 59.39C253.837 59.8333 254.164 60.3467 254.35 60.93C254.537 61.5133 254.63 62.1667 254.63 62.89C254.63 63.94 254.327 64.885 253.72 65.725C253.137 66.5417 252.344 67.1833 251.34 67.65C250.337 68.1167 249.217 68.35 247.98 68.35Z" fill="black"/>
</svg>
