<svg  viewBox="0 0 1439 816" fill="none" xmlns="http://www.w3.org/2000/svg">
<path d="M33.1437 48.8328C58.1213 5.21825 66.4472 -7.42355 331.314 3.95418C477.537 15.3318 580.57 33.0305 580.57 33.0305C837.111 84.2301 1077.26 100.164 1111.87 97.5042C1152.97 94.3437 1298.68 92.0045 1379.33 76.6457C1459.99 61.2869 1435.51 816 1435.51 816C1435.51 816 94.1229 816 5.04388 816C-6.30486 816 5.04388 184.101 5.04388 184.101C5.04388 184.101 8.16604 92.4474 33.1437 48.8328Z" fill="#F3EDE1"/>
<path d="M69.477 46.8767C76.208 38.0485 86.5624 32.9278 97.5738 31.5155C231.286 14.3665 403.551 26.3231 485.047 39.3144C496.367 41.1189 506.455 47.1645 513.812 55.9543L516.284 58.9066C543.526 91.4527 520.386 141 477.943 141L94.3567 141C72.1335 141 50.9004 126.417 50.0671 104.209C49.3335 84.6598 54.542 66.4652 69.477 46.8767Z" fill="#EF6C50" fill-opacity="0.64"/>
</svg>
