<svg width="1439" height="816" viewBox="0 0 1439 816" fill="none" xmlns="http://www.w3.org/2000/svg">
<path d="M33.1437 48.8328C58.1213 5.21825 66.4472 -7.42355 331.314 3.95418C477.537 15.3318 580.57 33.0305 580.57 33.0305C837.111 84.2301 1077.26 100.164 1111.87 97.5042C1152.97 94.3437 1298.68 92.0045 1379.33 76.6457C1459.99 61.2869 1435.51 816 1435.51 816C1435.51 816 94.1229 816 5.04388 816C-6.30486 816 5.04388 184.101 5.04388 184.101C5.04388 184.101 8.16604 92.4474 33.1437 48.8328Z" fill="#F3EDE1"/>
<path d="M69.477 46.8767C76.208 38.0485 86.5624 32.9278 97.5738 31.5155C231.286 14.3665 403.551 26.3231 485.047 39.3144C496.367 41.1189 506.455 47.1645 513.812 55.9543L516.283 58.9066C543.526 91.4527 520.386 141 477.943 141L94.3567 141C72.1335 141 50.9004 126.417 50.0671 104.209C49.3335 84.6598 54.542 66.4652 69.477 46.8767Z" fill="#EF6C50" fill-opacity="0.64"/>
<path d="M118.81 106V71H133.41C135.643 71 137.527 71.3333 139.06 72C140.593 72.6667 141.743 73.6667 142.51 75C143.31 76.3 143.71 77.9 143.71 79.8C143.71 81.7 143.177 83.3167 142.11 84.65C141.077 85.9833 139.627 86.9 137.76 87.4V86.4C139.327 86.7333 140.693 87.3333 141.86 88.2C143.027 89.0333 143.927 90.0833 144.56 91.35C145.227 92.6167 145.56 94.0667 145.56 95.7C145.56 97.3667 145.293 98.85 144.76 100.15C144.26 101.417 143.493 102.483 142.46 103.35C141.46 104.217 140.243 104.883 138.81 105.35C137.377 105.783 135.743 106 133.91 106H118.81ZM124.21 100.8H133.61C134.977 100.8 136.127 100.6 137.06 100.2C138.027 99.8 138.76 99.2167 139.26 98.45C139.793 97.65 140.06 96.7 140.06 95.6C140.06 94.5667 139.777 93.6833 139.21 92.95C138.677 92.2167 137.91 91.6667 136.91 91.3C135.91 90.9 134.727 90.7 133.36 90.7H124.21V100.8ZM124.21 85.5H133.11C134.11 85.5 134.993 85.3 135.76 84.9C136.56 84.5 137.177 83.95 137.61 83.25C138.077 82.55 138.31 81.75 138.31 80.85C138.31 79.35 137.81 78.2 136.81 77.4C135.81 76.6 134.377 76.2 132.51 76.2H124.21V85.5ZM161.595 106.5C159.428 106.5 157.445 105.9 155.645 104.7C153.878 103.5 152.461 101.867 151.395 99.8C150.328 97.7333 149.795 95.4 149.795 92.8C149.795 90.1667 150.328 87.8333 151.395 85.8C152.495 83.7333 153.961 82.1167 155.795 80.95C157.661 79.7833 159.745 79.2 162.045 79.2C163.411 79.2 164.661 79.4 165.795 79.8C166.928 80.2 167.911 80.7667 168.745 81.5C169.611 82.2 170.311 83.0167 170.845 83.95C171.411 84.8833 171.761 85.8833 171.895 86.95L170.745 86.55V79.75H175.945V106H170.745V99.75L171.945 99.4C171.745 100.3 171.328 101.183 170.695 102.05C170.095 102.883 169.311 103.633 168.345 104.3C167.411 104.967 166.361 105.5 165.195 105.9C164.061 106.3 162.861 106.5 161.595 106.5ZM162.945 101.75C164.511 101.75 165.895 101.367 167.095 100.6C168.295 99.8333 169.228 98.7833 169.895 97.45C170.595 96.0833 170.945 94.5333 170.945 92.8C170.945 91.1 170.595 89.5833 169.895 88.25C169.228 86.9167 168.295 85.8667 167.095 85.1C165.895 84.3333 164.511 83.95 162.945 83.95C161.411 83.95 160.045 84.3333 158.845 85.1C157.678 85.8667 156.745 86.9167 156.045 88.25C155.378 89.5833 155.045 91.1 155.045 92.8C155.045 94.5333 155.378 96.0833 156.045 97.45C156.745 98.7833 157.678 99.8333 158.845 100.6C160.045 101.367 161.411 101.75 162.945 101.75ZM186.385 106V73.05H191.535V106H186.385ZM180.935 84.75V79.75H197.635V84.75H180.935ZM205.575 106V73.05H210.725V106H205.575ZM200.125 84.75V79.75H216.825V84.75H200.125ZM221.614 106V69H226.764V106H221.614ZM245.825 106.5C243.125 106.5 240.725 105.933 238.625 104.8C236.558 103.633 234.925 102.05 233.725 100.05C232.558 98.05 231.975 95.75 231.975 93.15C231.975 91.0833 232.308 89.2 232.975 87.5C233.641 85.8 234.558 84.3333 235.725 83.1C236.925 81.8333 238.341 80.8667 239.975 80.2C241.641 79.5 243.441 79.15 245.375 79.15C247.075 79.15 248.658 79.4833 250.125 80.15C251.591 80.7833 252.858 81.6667 253.925 82.8C255.025 83.9333 255.858 85.2833 256.425 86.85C257.025 88.3833 257.308 90.0667 257.275 91.9L257.225 94.1H235.775L234.625 90H252.775L252.025 90.85V89.65C251.925 88.55 251.558 87.5667 250.925 86.7C250.291 85.8333 249.491 85.15 248.525 84.65C247.558 84.15 246.508 83.9 245.375 83.9C243.575 83.9 242.058 84.25 240.825 84.95C239.591 85.6167 238.658 86.6167 238.025 87.95C237.391 89.25 237.075 90.8667 237.075 92.8C237.075 94.6333 237.458 96.2333 238.225 97.6C238.991 98.9333 240.075 99.9667 241.475 100.7C242.875 101.433 244.491 101.8 246.325 101.8C247.625 101.8 248.825 101.583 249.925 101.15C251.058 100.717 252.275 99.9333 253.575 98.8L256.175 102.45C255.375 103.25 254.391 103.95 253.225 104.55C252.091 105.15 250.875 105.633 249.575 106C248.308 106.333 247.058 106.5 245.825 106.5ZM301.035 106V71H306.435V106H301.035ZM278.185 106V71H283.585V106H278.185ZM280.535 91.15V85.95H303.435V91.15H280.535ZM315.772 106V79.75H320.922V106H315.772ZM318.272 73.95C317.172 73.95 316.322 73.6667 315.722 73.1C315.122 72.5333 314.822 71.7333 314.822 70.7C314.822 69.7333 315.122 68.95 315.722 68.35C316.356 67.75 317.206 67.45 318.272 67.45C319.372 67.45 320.222 67.7333 320.822 68.3C321.422 68.8667 321.722 69.6667 321.722 70.7C321.722 71.6667 321.406 72.45 320.772 73.05C320.172 73.65 319.339 73.95 318.272 73.95ZM337.588 106.5C335.388 106.5 333.405 106.117 331.638 105.35C329.872 104.583 328.405 103.45 327.238 101.95L330.738 98.95C331.738 100.117 332.822 100.967 333.988 101.5C335.188 102 336.538 102.25 338.038 102.25C338.638 102.25 339.188 102.183 339.688 102.05C340.222 101.883 340.672 101.65 341.038 101.35C341.438 101.05 341.738 100.7 341.938 100.3C342.138 99.8667 342.238 99.4 342.238 98.9C342.238 98.0333 341.922 97.3333 341.288 96.8C340.955 96.5667 340.422 96.3167 339.688 96.05C338.988 95.75 338.072 95.45 336.938 95.15C335.005 94.65 333.422 94.0833 332.188 93.45C330.955 92.8167 330.005 92.1 329.338 91.3C328.838 90.6667 328.472 89.9833 328.238 89.25C328.005 88.4833 327.888 87.65 327.888 86.75C327.888 85.65 328.122 84.65 328.588 83.75C329.088 82.8167 329.755 82.0167 330.588 81.35C331.455 80.65 332.455 80.1167 333.588 79.75C334.755 79.3833 335.988 79.2 337.288 79.2C338.522 79.2 339.738 79.3667 340.938 79.7C342.172 80.0333 343.305 80.5167 344.338 81.15C345.372 81.7833 346.238 82.5333 346.938 83.4L343.988 86.65C343.355 86.0167 342.655 85.4667 341.888 85C341.155 84.5 340.405 84.1167 339.638 83.85C338.872 83.5833 338.172 83.45 337.538 83.45C336.838 83.45 336.205 83.5167 335.638 83.65C335.072 83.7833 334.588 83.9833 334.188 84.25C333.822 84.5167 333.538 84.85 333.338 85.25C333.138 85.65 333.038 86.1 333.038 86.6C333.072 87.0333 333.172 87.45 333.338 87.85C333.538 88.2167 333.805 88.5333 334.138 88.8C334.505 89.0667 335.055 89.35 335.788 89.65C336.522 89.95 337.455 90.2333 338.588 90.5C340.255 90.9333 341.622 91.4167 342.688 91.95C343.788 92.45 344.655 93.0333 345.288 93.7C345.955 94.3333 346.422 95.0667 346.688 95.9C346.955 96.7333 347.088 97.6667 347.088 98.7C347.088 100.2 346.655 101.55 345.788 102.75C344.955 103.917 343.822 104.833 342.388 105.5C340.955 106.167 339.355 106.5 337.588 106.5ZM356.014 106V73.05H361.164V106H356.014ZM350.564 84.75V79.75H367.264V84.75H350.564ZM383.509 106.5C380.943 106.5 378.643 105.917 376.609 104.75C374.609 103.55 373.026 101.933 371.859 99.9C370.693 97.8333 370.109 95.4833 370.109 92.85C370.109 90.2167 370.693 87.8833 371.859 85.85C373.026 83.7833 374.609 82.1667 376.609 81C378.643 79.8 380.943 79.2 383.509 79.2C386.043 79.2 388.309 79.8 390.309 81C392.343 82.1667 393.943 83.7833 395.109 85.85C396.276 87.8833 396.859 90.2167 396.859 92.85C396.859 95.4833 396.276 97.8333 395.109 99.9C393.943 101.933 392.343 103.55 390.309 104.75C388.309 105.917 386.043 106.5 383.509 106.5ZM383.509 101.8C385.076 101.8 386.476 101.417 387.709 100.65C388.943 99.85 389.909 98.7833 390.609 97.45C391.309 96.0833 391.643 94.55 391.609 92.85C391.643 91.1167 391.309 89.5833 390.609 88.25C389.909 86.8833 388.943 85.8167 387.709 85.05C386.476 84.2833 385.076 83.9 383.509 83.9C381.943 83.9 380.526 84.3 379.259 85.1C378.026 85.8667 377.059 86.9333 376.359 88.3C375.659 89.6333 375.326 91.15 375.359 92.85C375.326 94.55 375.659 96.0833 376.359 97.45C377.059 98.7833 378.026 99.85 379.259 100.65C380.526 101.417 381.943 101.8 383.509 101.8ZM402.471 106V79.75H407.671V88L407.171 86C407.538 84.7333 408.154 83.5833 409.021 82.55C409.921 81.5167 410.938 80.7 412.071 80.1C413.238 79.5 414.438 79.2 415.671 79.2C416.238 79.2 416.771 79.25 417.271 79.35C417.804 79.45 418.221 79.5667 418.521 79.7L417.171 85.3C416.771 85.1333 416.321 85 415.821 84.9C415.354 84.7667 414.888 84.7 414.421 84.7C413.521 84.7 412.654 84.8833 411.821 85.25C411.021 85.5833 410.304 86.0667 409.671 86.7C409.071 87.3 408.588 88.0167 408.221 88.85C407.854 89.65 407.671 90.5333 407.671 91.5V106H402.471ZM427.037 117.5L432.337 105.25L432.387 109.35L419.287 79.75H425.287L433.487 99.05C433.654 99.3833 433.854 99.9 434.087 100.6C434.32 101.267 434.52 101.933 434.687 102.6L433.387 102.9C433.654 102.2 433.904 101.5 434.137 100.8C434.404 100.1 434.654 99.4 434.887 98.7L441.737 79.75H447.837L437.037 106L432.587 117.5H427.037Z" fill="#6C3222"/>
</svg>
