<svg  viewBox="0 0 292 431" fill="none" xmlns="http://www.w3.org/2000/svg">
<path d="M0 49.6221C0 24.1103 23.5778 5.23298 48.6995 9.67772C127.234 23.5727 180.147 23.2642 241.694 11.4687C267.362 6.54938 292 25.4562 292 51.5913V422C292 444.091 274.091 462 252 462H40C17.9086 462 0 444.091 0 422V49.6221Z" fill="#F3EDE1"/>
<path d="M41.2501 51.0212C45.7253 40.7058 58.0554 34.1115 69.2351 32.9074C128.529 26.5217 200.852 31.82 236.531 37.6282C242.168 38.546 247.156 41.6232 250.745 46.0668V46.0668C263.7 62.1053 252.284 86 231.668 86L78.7764 86C56.5171 86 32.391 71.4416 41.2501 51.0212V51.0212Z" fill="#EF6C50" fill-opacity="0.64"/>
<path d="M69.0128 69V52.9H75.7288C76.7561 52.9 77.6224 53.0533 78.3278 53.36C79.0331 53.6667 79.5621 54.1267 79.9148 54.74C80.2828 55.338 80.4668 56.074 80.4668 56.948C80.4668 57.822 80.2214 58.5657 79.7308 59.179C79.2554 59.7923 78.5884 60.214 77.7298 60.444V59.984C78.4504 60.1373 79.0791 60.4133 79.6158 60.812C80.1524 61.1953 80.5664 61.6783 80.8578 62.261C81.1644 62.8437 81.3178 63.5107 81.3178 64.262C81.3178 65.0287 81.1951 65.711 80.9498 66.309C80.7198 66.8917 80.3671 67.3823 79.8918 67.781C79.4318 68.1797 78.8721 68.4863 78.2128 68.701C77.5534 68.9003 76.8021 69 75.9588 69H69.0128ZM71.4968 66.608H75.8208C76.4494 66.608 76.9784 66.516 77.4078 66.332C77.8524 66.148 78.1898 65.8797 78.4198 65.527C78.6651 65.159 78.7878 64.722 78.7878 64.216C78.7878 63.7407 78.6574 63.3343 78.3968 62.997C78.1514 62.6597 77.7988 62.4067 77.3388 62.238C76.8788 62.054 76.3344 61.962 75.7058 61.962H71.4968V66.608ZM71.4968 59.57H75.5908C76.0508 59.57 76.4571 59.478 76.8098 59.294C77.1778 59.11 77.4614 58.857 77.6608 58.535C77.8754 58.213 77.9828 57.845 77.9828 57.431C77.9828 56.741 77.7528 56.212 77.2928 55.844C76.8328 55.476 76.1734 55.292 75.3148 55.292H71.4968V59.57ZM88.6936 69.23C87.6969 69.23 86.7846 68.954 85.9566 68.402C85.1439 67.85 84.4922 67.0987 84.0016 66.148C83.5109 65.1973 83.2656 64.124 83.2656 62.928C83.2656 61.7167 83.5109 60.6433 84.0016 59.708C84.5076 58.7573 85.1822 58.0137 86.0256 57.477C86.8842 56.9403 87.8426 56.672 88.9006 56.672C89.5292 56.672 90.1042 56.764 90.6256 56.948C91.1469 57.132 91.5992 57.3927 91.9826 57.73C92.3812 58.052 92.7032 58.4277 92.9486 58.857C93.2092 59.2863 93.3702 59.7463 93.4316 60.237L92.9026 60.053V56.925H95.2946V69H92.9026V66.125L93.4546 65.964C93.3626 66.378 93.1709 66.7843 92.8796 67.183C92.6036 67.5663 92.2432 67.9113 91.7986 68.218C91.3692 68.5247 90.8862 68.77 90.3496 68.954C89.8282 69.138 89.2762 69.23 88.6936 69.23ZM89.3146 67.045C90.0352 67.045 90.6716 66.8687 91.2236 66.516C91.7756 66.1633 92.2049 65.6803 92.5116 65.067C92.8336 64.4383 92.9946 63.7253 92.9946 62.928C92.9946 62.146 92.8336 61.4483 92.5116 60.835C92.2049 60.2217 91.7756 59.7387 91.2236 59.386C90.6716 59.0333 90.0352 58.857 89.3146 58.857C88.6092 58.857 87.9806 59.0333 87.4286 59.386C86.8919 59.7387 86.4626 60.2217 86.1406 60.835C85.8339 61.4483 85.6806 62.146 85.6806 62.928C85.6806 63.7253 85.8339 64.4383 86.1406 65.067C86.4626 65.6803 86.8919 66.1633 87.4286 66.516C87.9806 66.8687 88.6092 67.045 89.3146 67.045ZM100.097 69V53.843H102.466V69H100.097ZM97.5903 59.225V56.925H105.272V59.225H97.5903ZM108.924 69V53.843H111.293V69H108.924ZM106.417 59.225V56.925H114.099V59.225H106.417ZM116.303 69V51.98H118.672V69H116.303ZM127.439 69.23C126.197 69.23 125.093 68.9693 124.127 68.448C123.177 67.9113 122.425 67.183 121.873 66.263C121.337 65.343 121.068 64.285 121.068 63.089C121.068 62.1383 121.222 61.272 121.528 60.49C121.835 59.708 122.257 59.0333 122.793 58.466C123.345 57.8833 123.997 57.4387 124.748 57.132C125.515 56.81 126.343 56.649 127.232 56.649C128.014 56.649 128.743 56.8023 129.417 57.109C130.092 57.4003 130.675 57.8067 131.165 58.328C131.671 58.8493 132.055 59.4703 132.315 60.191C132.591 60.8963 132.722 61.6707 132.706 62.514L132.683 63.526H122.816L122.287 61.64H130.636L130.291 62.031V61.479C130.245 60.973 130.077 60.5207 129.785 60.122C129.494 59.7233 129.126 59.409 128.681 59.179C128.237 58.949 127.754 58.834 127.232 58.834C126.404 58.834 125.707 58.995 125.139 59.317C124.572 59.6237 124.143 60.0837 123.851 60.697C123.56 61.295 123.414 62.0387 123.414 62.928C123.414 63.7713 123.591 64.5073 123.943 65.136C124.296 65.7493 124.794 66.2247 125.438 66.562C126.082 66.8993 126.826 67.068 127.669 67.068C128.267 67.068 128.819 66.9683 129.325 66.769C129.847 66.5697 130.406 66.2093 131.004 65.688L132.2 67.367C131.832 67.735 131.38 68.057 130.843 68.333C130.322 68.609 129.762 68.8313 129.164 69C128.582 69.1533 128.007 69.23 127.439 69.23ZM152.836 69V52.9H155.32V69H152.836ZM142.325 69V52.9H144.809V69H142.325ZM143.406 62.169V59.777H153.94V62.169H143.406ZM159.615 69V56.925H161.984V69H159.615ZM160.765 54.257C160.259 54.257 159.868 54.1267 159.592 53.866C159.316 53.6053 159.178 53.2373 159.178 52.762C159.178 52.3173 159.316 51.957 159.592 51.681C159.884 51.405 160.275 51.267 160.765 51.267C161.271 51.267 161.662 51.3973 161.938 51.658C162.214 51.9187 162.352 52.2867 162.352 52.762C162.352 53.2067 162.207 53.567 161.915 53.843C161.639 54.119 161.256 54.257 160.765 54.257ZM169.651 69.23C168.639 69.23 167.726 69.0537 166.914 68.701C166.101 68.3483 165.426 67.827 164.89 67.137L166.5 65.757C166.96 66.2937 167.458 66.6847 167.995 66.93C168.547 67.16 169.168 67.275 169.858 67.275C170.134 67.275 170.387 67.2443 170.617 67.183C170.862 67.1063 171.069 66.999 171.238 66.861C171.422 66.723 171.56 66.562 171.652 66.378C171.744 66.1787 171.79 65.964 171.79 65.734C171.79 65.3353 171.644 65.0133 171.353 64.768C171.199 64.6607 170.954 64.5457 170.617 64.423C170.295 64.285 169.873 64.147 169.352 64.009C168.462 63.779 167.734 63.5183 167.167 63.227C166.599 62.9357 166.162 62.606 165.856 62.238C165.626 61.9467 165.457 61.6323 165.35 61.295C165.242 60.9423 165.189 60.559 165.189 60.145C165.189 59.639 165.296 59.179 165.511 58.765C165.741 58.3357 166.047 57.9677 166.431 57.661C166.829 57.339 167.289 57.0937 167.811 56.925C168.347 56.7563 168.915 56.672 169.513 56.672C170.08 56.672 170.64 56.7487 171.192 56.902C171.759 57.0553 172.28 57.2777 172.756 57.569C173.231 57.8603 173.63 58.2053 173.952 58.604L172.595 60.099C172.303 59.8077 171.981 59.5547 171.629 59.34C171.291 59.11 170.946 58.9337 170.594 58.811C170.241 58.6883 169.919 58.627 169.628 58.627C169.306 58.627 169.014 58.6577 168.754 58.719C168.493 58.7803 168.271 58.8723 168.087 58.995C167.918 59.1177 167.788 59.271 167.696 59.455C167.604 59.639 167.558 59.846 167.558 60.076C167.573 60.2753 167.619 60.467 167.696 60.651C167.788 60.8197 167.91 60.9653 168.064 61.088C168.232 61.2107 168.485 61.341 168.823 61.479C169.16 61.617 169.589 61.7473 170.111 61.87C170.877 62.0693 171.506 62.2917 171.997 62.537C172.503 62.767 172.901 63.0353 173.193 63.342C173.499 63.6333 173.714 63.9707 173.837 64.354C173.959 64.7373 174.021 65.1667 174.021 65.642C174.021 66.332 173.821 66.953 173.423 67.505C173.039 68.0417 172.518 68.4633 171.859 68.77C171.199 69.0767 170.463 69.23 169.651 69.23ZM178.127 69V53.843H180.496V69H178.127ZM175.62 59.225V56.925H183.302V59.225H175.62ZM190.774 69.23C189.594 69.23 188.536 68.9617 187.6 68.425C186.68 67.873 185.952 67.1293 185.415 66.194C184.879 65.2433 184.61 64.1623 184.61 62.951C184.61 61.7397 184.879 60.6663 185.415 59.731C185.952 58.7803 186.68 58.0367 187.6 57.5C188.536 56.948 189.594 56.672 190.774 56.672C191.94 56.672 192.982 56.948 193.902 57.5C194.838 58.0367 195.574 58.7803 196.11 59.731C196.647 60.6663 196.915 61.7397 196.915 62.951C196.915 64.1623 196.647 65.2433 196.11 66.194C195.574 67.1293 194.838 67.873 193.902 68.425C192.982 68.9617 191.94 69.23 190.774 69.23ZM190.774 67.068C191.495 67.068 192.139 66.8917 192.706 66.539C193.274 66.171 193.718 65.6803 194.04 65.067C194.362 64.4383 194.516 63.733 194.5 62.951C194.516 62.1537 194.362 61.4483 194.04 60.835C193.718 60.2063 193.274 59.7157 192.706 59.363C192.139 59.0103 191.495 58.834 190.774 58.834C190.054 58.834 189.402 59.018 188.819 59.386C188.252 59.7387 187.807 60.2293 187.485 60.858C187.163 61.4713 187.01 62.169 187.025 62.951C187.01 63.733 187.163 64.4383 187.485 65.067C187.807 65.6803 188.252 66.171 188.819 66.539C189.402 66.8917 190.054 67.068 190.774 67.068ZM199.497 69V56.925H201.889V60.72L201.659 59.8C201.827 59.2173 202.111 58.6883 202.51 58.213C202.924 57.7377 203.391 57.362 203.913 57.086C204.449 56.81 205.001 56.672 205.569 56.672C205.829 56.672 206.075 56.695 206.305 56.741C206.55 56.787 206.742 56.8407 206.88 56.902L206.259 59.478C206.075 59.4013 205.868 59.34 205.638 59.294C205.423 59.2327 205.208 59.202 204.994 59.202C204.58 59.202 204.181 59.2863 203.798 59.455C203.43 59.6083 203.1 59.8307 202.809 60.122C202.533 60.398 202.31 60.7277 202.142 61.111C201.973 61.479 201.889 61.8853 201.889 62.33V69H199.497ZM210.797 74.29L213.235 68.655L213.258 70.541L207.232 56.925H209.992L213.764 65.803C213.841 65.9563 213.933 66.194 214.04 66.516C214.147 66.8227 214.239 67.1293 214.316 67.436L213.718 67.574C213.841 67.252 213.956 66.93 214.063 66.608C214.186 66.286 214.301 65.964 214.408 65.642L217.559 56.925H220.365L215.397 69L213.35 74.29H210.797Z" fill="#6C3222"/>
</svg>
