<svg width="372" height="120" viewBox="0 0 372 120" fill="none" xmlns="http://www.w3.org/2000/svg">
<path d="M4.49945 27.415C4.54663 23.6838 7.80426 19.6503 16.8387 15.9115C25.5702 12.2981 38.299 9.58868 53.9911 7.71937C85.3018 3.98948 127.423 3.70976 170.513 5.56513C213.572 7.41917 257.443 11.3979 292.195 16.1369C309.576 18.5071 324.627 21.0608 336.132 23.6221C341.887 24.9034 346.704 26.1753 350.457 27.4106C354.303 28.6765 356.723 29.8071 357.929 30.6923C363.944 35.1076 367.056 42.6067 368.062 52.0168C369.065 61.3921 367.904 72.0974 365.94 82.0739C362.368 100.209 345.238 111.871 326.02 111.871H50.2318C24.8218 111.871 4.19393 91.4981 4.23168 66.153C4.2491 54.4519 4.32392 41.2978 4.49945 27.415Z" fill="#78DA9F" stroke="#4BA56F" stroke-width="7"/>
<text transform="translate(49.2793 30.0002) rotate(0.306837)" fill="#FFF8F7" xml:space="preserve" style="white-space: pre" font-family="Lexend Deca" font-size="30" font-weight="bold" letter-spacing="0em"><tspan x="0" y="30.25">Download Game</tspan></text>
<text transform="translate(42.2793 66.0002) rotate(0.306837)" fill="#FFF8F7" xml:space="preserve" style="white-space: pre" font-family="Lexend Deca" font-size="18" font-weight="bold" letter-spacing="0em"><tspan x="33.0538" y="18.25">(Whitelist Access Only)</tspan></text>
</svg>
