<svg width="372" height="115" viewBox="0 0 372 115" fill="none" xmlns="http://www.w3.org/2000/svg">
<path d="M3.77191 26.4685C3.81909 22.7372 7.07673 18.7038 16.1112 14.965C24.8427 11.3515 37.5715 8.64215 53.2635 6.77284C84.5743 3.04295 126.695 2.76323 169.785 4.6186C212.844 6.47263 256.715 10.4514 291.467 15.1904C308.849 17.5606 323.899 20.1142 335.404 22.6755C341.16 23.9569 345.976 25.2288 349.729 26.4641C353.575 27.73 355.995 28.8606 357.201 29.7458C363.216 34.161 366.329 41.6601 367.335 51.0703C368.337 60.4455 367.177 71.1509 365.212 81.1273C361.641 99.262 344.511 110.924 325.292 110.924H49.5042C24.0943 110.924 3.46639 90.5516 3.50414 65.2065C3.52156 53.5054 3.59638 40.3512 3.77191 26.4685Z" fill="#78DA9F" stroke="#4BA56F" stroke-width="7"/>
<path d="M41.5383 70V43.4H53.0143C54.6863 43.4 56.1683 43.78 57.4603 44.54C58.7777 45.3 59.8163 46.3387 60.5763 47.656C61.3617 48.9733 61.7543 50.4553 61.7543 52.102C61.7543 53.8247 61.3617 55.37 60.5763 56.738C59.8163 58.0807 58.7777 59.1447 57.4603 59.93C56.1683 60.7153 54.6863 61.108 53.0143 61.108H47.9983V70H41.5383ZM47.8843 55.446H52.1023C52.6597 55.446 53.1663 55.3067 53.6223 55.028C54.0783 54.7493 54.4457 54.3693 54.7243 53.888C55.003 53.4067 55.1423 52.8493 55.1423 52.216C55.1423 51.5573 55.003 51 54.7243 50.544C54.4457 50.088 54.0783 49.7333 53.6223 49.48C53.1663 49.2267 52.6597 49.1 52.1023 49.1H47.8843V55.446ZM66.0905 70V41.88H72.1705V70H66.0905ZM84.6704 70.342C82.9731 70.342 81.4531 69.8987 80.1104 69.012C78.7931 68.1 77.7417 66.8587 76.9564 65.288C76.1711 63.692 75.7784 61.8933 75.7784 59.892C75.7784 57.84 76.1711 56.0287 76.9564 54.458C77.7417 52.8873 78.8184 51.6587 80.1864 50.772C81.5544 49.86 83.1124 49.404 84.8604 49.404C85.8231 49.404 86.6971 49.5433 87.4824 49.822C88.2931 50.1007 89.0024 50.4933 89.6104 51C90.2184 51.4813 90.7377 52.0513 91.1684 52.71C91.5991 53.3433 91.9157 54.0273 92.1184 54.762L90.8644 54.61V49.822H96.9064V70H90.7504V65.136L92.1184 65.098C91.9157 65.8073 91.5864 66.4787 91.1304 67.112C90.6744 67.7453 90.1171 68.3027 89.4584 68.784C88.7997 69.2653 88.0651 69.6453 87.2544 69.924C86.4437 70.2027 85.5824 70.342 84.6704 70.342ZM86.3424 65.212C87.2797 65.212 88.0904 64.9967 88.7744 64.566C89.4584 64.1353 89.9904 63.5273 90.3704 62.742C90.7504 61.9313 90.9404 60.9813 90.9404 59.892C90.9404 58.8027 90.7504 57.8653 90.3704 57.08C89.9904 56.2693 89.4584 55.6487 88.7744 55.218C88.0904 54.762 87.2797 54.534 86.3424 54.534C85.4304 54.534 84.6324 54.762 83.9484 55.218C83.2897 55.6487 82.7704 56.2693 82.3904 57.08C82.0104 57.8653 81.8204 58.8027 81.8204 59.892C81.8204 60.9813 82.0104 61.9313 82.3904 62.742C82.7704 63.5273 83.2897 64.1353 83.9484 64.566C84.6324 64.9967 85.4304 65.212 86.3424 65.212ZM104.372 78.74L108.97 67.91L109.046 71.026L99.3179 49.822H106.196L110.452 59.968C110.68 60.4747 110.895 61.0193 111.098 61.602C111.301 62.1847 111.453 62.742 111.554 63.274L110.718 63.768C110.87 63.388 111.035 62.9193 111.212 62.362C111.415 61.7793 111.63 61.1587 111.858 60.5L115.582 49.822H122.498L113.91 70L110.414 78.74H104.372ZM139.234 70V44.73H145.314V70H139.234ZM135.662 55.142V49.822H149.228V55.142H135.662ZM152.703 70V41.88H158.669V53.926L157.453 54.382C157.732 53.47 158.226 52.6467 158.935 51.912C159.67 51.152 160.544 50.544 161.557 50.088C162.57 49.632 163.634 49.404 164.749 49.404C166.269 49.404 167.548 49.7207 168.587 50.354C169.626 50.962 170.411 51.8867 170.943 53.128C171.475 54.344 171.741 55.8387 171.741 57.612V70H165.623V58.106C165.623 57.2953 165.509 56.624 165.281 56.092C165.053 55.56 164.698 55.1673 164.217 54.914C163.761 54.6353 163.191 54.5087 162.507 54.534C161.975 54.534 161.481 54.6227 161.025 54.8C160.569 54.952 160.176 55.1927 159.847 55.522C159.518 55.826 159.252 56.1807 159.049 56.586C158.872 56.9913 158.783 57.4347 158.783 57.916V70H155.781C155.072 70 154.464 70 153.957 70C153.45 70 153.032 70 152.703 70ZM186.438 70.38C184.209 70.38 182.271 69.9367 180.624 69.05C178.977 68.138 177.698 66.9093 176.786 65.364C175.874 63.7933 175.418 62.0073 175.418 60.006C175.418 58.4607 175.671 57.042 176.178 55.75C176.685 54.458 177.394 53.3433 178.306 52.406C179.218 51.4433 180.295 50.7087 181.536 50.202C182.803 49.67 184.183 49.404 185.678 49.404C187.097 49.404 188.389 49.6573 189.554 50.164C190.745 50.6707 191.771 51.38 192.632 52.292C193.493 53.204 194.152 54.2807 194.608 55.522C195.064 56.7633 195.267 58.1187 195.216 59.588L195.178 61.222H179.104L178.23 57.802H190.238L189.592 58.524V57.764C189.541 57.1307 189.339 56.5733 188.984 56.092C188.655 55.5853 188.211 55.1927 187.654 54.914C187.097 54.6353 186.463 54.496 185.754 54.496C184.766 54.496 183.917 54.6987 183.208 55.104C182.524 55.484 182.005 56.054 181.65 56.814C181.295 57.5487 181.118 58.4607 181.118 59.55C181.118 60.6647 181.346 61.64 181.802 62.476C182.283 63.2867 182.967 63.92 183.854 64.376C184.766 64.832 185.843 65.06 187.084 65.06C187.945 65.06 188.705 64.9333 189.364 64.68C190.048 64.4267 190.783 63.996 191.568 63.388L194.418 67.416C193.633 68.1 192.797 68.6573 191.91 69.088C191.023 69.5187 190.111 69.8353 189.174 70.038C188.262 70.266 187.35 70.38 186.438 70.38ZM211.907 70V43.4H223.041C224.992 43.4 226.778 43.7293 228.399 44.388C230.021 45.0213 231.414 45.9333 232.579 47.124C233.77 48.3147 234.682 49.7207 235.315 51.342C235.949 52.9633 236.265 54.7493 236.265 56.7C236.265 58.6507 235.949 60.4493 235.315 62.096C234.682 63.7173 233.77 65.1233 232.579 66.314C231.414 67.4793 230.021 68.3913 228.399 69.05C226.778 69.6833 224.992 70 223.041 70H211.907ZM218.367 65.592L217.493 64.3H222.851C223.915 64.3 224.865 64.1227 225.701 63.768C226.537 63.388 227.247 62.8687 227.829 62.21C228.437 61.5513 228.906 60.7533 229.235 59.816C229.565 58.8787 229.729 57.84 229.729 56.7C229.729 55.56 229.565 54.5213 229.235 53.584C228.906 52.6467 228.437 51.8487 227.829 51.19C227.247 50.5313 226.537 50.0247 225.701 49.67C224.865 49.29 223.915 49.1 222.851 49.1H217.379L218.367 47.884V65.592ZM250.229 70.38C248 70.38 246.062 69.9367 244.415 69.05C242.768 68.138 241.489 66.9093 240.577 65.364C239.665 63.7933 239.209 62.0073 239.209 60.006C239.209 58.4607 239.462 57.042 239.969 55.75C240.476 54.458 241.185 53.3433 242.097 52.406C243.009 51.4433 244.086 50.7087 245.327 50.202C246.594 49.67 247.974 49.404 249.469 49.404C250.888 49.404 252.18 49.6573 253.345 50.164C254.536 50.6707 255.562 51.38 256.423 52.292C257.284 53.204 257.943 54.2807 258.399 55.522C258.855 56.7633 259.058 58.1187 259.007 59.588L258.969 61.222H242.895L242.021 57.802H254.029L253.383 58.524V57.764C253.332 57.1307 253.13 56.5733 252.775 56.092C252.446 55.5853 252.002 55.1927 251.445 54.914C250.888 54.6353 250.254 54.496 249.545 54.496C248.557 54.496 247.708 54.6987 246.999 55.104C246.315 55.484 245.796 56.054 245.441 56.814C245.086 57.5487 244.909 58.4607 244.909 59.55C244.909 60.6647 245.137 61.64 245.593 62.476C246.074 63.2867 246.758 63.92 247.645 64.376C248.557 64.832 249.634 65.06 250.875 65.06C251.736 65.06 252.496 64.9333 253.155 64.68C253.839 64.4267 254.574 63.996 255.359 63.388L258.209 67.416C257.424 68.1 256.588 68.6573 255.701 69.088C254.814 69.5187 253.902 69.8353 252.965 70.038C252.053 70.266 251.141 70.38 250.229 70.38ZM262.843 70V49.822H268.619L268.809 53.47L268.011 53.508C268.315 52.8493 268.695 52.2667 269.151 51.76C269.632 51.2533 270.164 50.8353 270.747 50.506C271.355 50.1513 271.975 49.8853 272.609 49.708C273.267 49.5307 273.926 49.442 274.585 49.442C275.573 49.442 276.472 49.594 277.283 49.898C278.093 50.202 278.803 50.696 279.411 51.38C280.019 52.0387 280.5 52.938 280.855 54.078L279.905 54.002L280.209 53.394C280.538 52.786 280.956 52.2413 281.463 51.76C281.995 51.2533 282.577 50.8353 283.211 50.506C283.844 50.1513 284.503 49.8853 285.187 49.708C285.871 49.5307 286.529 49.442 287.163 49.442C288.759 49.442 290.089 49.7587 291.153 50.392C292.217 51 293.015 51.9247 293.547 53.166C294.104 54.4073 294.383 55.9147 294.383 57.688V70H288.265V58.182C288.265 57.3713 288.151 56.7 287.923 56.168C287.695 55.636 287.353 55.2433 286.897 54.99C286.466 54.7113 285.921 54.572 285.263 54.572C284.731 54.572 284.237 54.6607 283.781 54.838C283.35 55.0153 282.97 55.256 282.641 55.56C282.337 55.864 282.096 56.2187 281.919 56.624C281.741 57.0293 281.653 57.4853 281.653 57.992V70H275.535V58.144C275.535 57.384 275.421 56.738 275.193 56.206C274.965 55.674 274.623 55.2687 274.167 54.99C273.711 54.7113 273.179 54.572 272.571 54.572C272.039 54.572 271.545 54.6607 271.089 54.838C270.658 55.0153 270.278 55.256 269.949 55.56C269.645 55.864 269.404 56.2187 269.227 56.624C269.049 57.0293 268.961 57.4727 268.961 57.954V70H262.843ZM308.933 70.38C306.831 70.38 304.956 69.924 303.309 69.012C301.688 68.1 300.396 66.8587 299.433 65.288C298.496 63.7173 298.027 61.9187 298.027 59.892C298.027 57.8653 298.496 56.0667 299.433 54.496C300.396 52.9253 301.688 51.684 303.309 50.772C304.956 49.86 306.831 49.404 308.933 49.404C311.036 49.404 312.898 49.86 314.519 50.772C316.166 51.684 317.458 52.9253 318.395 54.496C319.333 56.0667 319.801 57.8653 319.801 59.892C319.801 61.9187 319.333 63.7173 318.395 65.288C317.458 66.8587 316.166 68.1 314.519 69.012C312.898 69.924 311.036 70.38 308.933 70.38ZM308.933 65.136C309.845 65.136 310.656 64.908 311.365 64.452C312.075 63.996 312.632 63.3753 313.037 62.59C313.443 61.8047 313.633 60.9053 313.607 59.892C313.633 58.8787 313.443 57.9793 313.037 57.194C312.632 56.3833 312.075 55.75 311.365 55.294C310.656 54.838 309.845 54.61 308.933 54.61C308.021 54.61 307.198 54.838 306.463 55.294C305.754 55.75 305.197 56.3833 304.791 57.194C304.386 57.9793 304.196 58.8787 304.221 59.892C304.196 60.9053 304.386 61.8047 304.791 62.59C305.197 63.3753 305.754 63.996 306.463 64.452C307.198 64.908 308.021 65.136 308.933 65.136ZM325.031 60.31C324.828 58.7647 324.626 57.1687 324.423 55.522C324.22 53.8753 324.056 52.2413 323.929 50.62C323.802 48.9987 323.739 47.4407 323.739 45.946V42.982H330.161V45.946C330.161 47.466 330.098 49.0493 329.971 50.696C329.844 52.3427 329.68 53.9893 329.477 55.636C329.274 57.2573 329.059 58.8153 328.831 60.31H325.031ZM326.931 70.418C325.892 70.418 325.082 70.1267 324.499 69.544C323.916 68.9613 323.625 68.1253 323.625 67.036C323.625 66.0227 323.929 65.1993 324.537 64.566C325.145 63.9327 325.943 63.616 326.931 63.616C327.97 63.616 328.768 63.92 329.325 64.528C329.908 65.1107 330.199 65.9467 330.199 67.036C330.199 68.024 329.895 68.8347 329.287 69.468C328.679 70.1013 327.894 70.418 326.931 70.418Z" fill="white"/>
</svg>
