<svg  viewBox="0 0 153 93" fill="none" xmlns="http://www.w3.org/2000/svg">
<path d="M12.9653 35.3249C17.2214 28.2805 24.7108 23.8844 33.3058 21.8183C46.8303 18.567 68.3116 13.6333 89.3689 9.75289C110.582 5.8438 130.876 3.10208 142.278 4.0149C144.651 4.20487 146.184 5.35075 147.265 7.23259C148.436 9.27135 149.053 12.199 149.053 15.5202V42.3708C149.053 68.0521 128.234 88.8708 102.553 88.8708H102.438H102.323H102.208H102.093H101.978H101.863H101.747H101.632H101.516H101.4H101.285H101.169H101.053H100.937H100.821H100.704H100.588H100.472H100.355H100.238H100.122H100.005H99.8881H99.7712H99.6541H99.537H99.4197H99.3024H99.185H99.0675H98.9499H98.8322H98.7145H98.5966H98.4787H98.3606H98.2425H98.1243H98.006H97.8876H97.7692H97.6506H97.5319H97.4132H97.2944H97.1755H97.0565H96.9374H96.8182H96.699H96.5796H96.4602H96.3407H96.2211H96.1014H95.9816H95.8618H95.7418H95.6218H95.5017H95.3815H95.2612H95.1408H95.0204H94.8998H94.7792H94.6585H94.5377H94.4168H94.2959H94.1748H94.0537H93.9325H93.8112H93.6898H93.5684H93.4468H93.3252H93.2035H93.0817H92.9598H92.8379H92.7158H92.5937H92.4715H92.3492H92.2269H92.1044H91.9819H91.8593H91.7366H91.6139H91.491H91.3681H91.2451H91.122H90.9988H90.8756H90.7523H90.6288H90.5054H90.3818H90.2581H90.1344H90.0106H89.8867H89.7628H89.6387H89.5146H89.3904H89.2662H89.1418H89.0174H88.8929H88.7683H88.6436H88.5189H88.3941H88.2692H88.1442H88.0192H87.8941H87.7689H87.6436H87.5182H87.3928H87.2673H87.1417H87.0161H86.8904H86.7646H86.6387H86.5127H86.3867H86.2606H86.1344H86.0082H85.8819H85.7555H85.629H85.5024H85.3758H85.2491H85.1224H84.9955H84.8686H84.7416H84.6146H84.4874H84.3602H84.233H84.1056H83.9782H83.8507H83.7231H83.5955H83.4678H83.34H83.2122H83.0842H82.9562H82.8282H82.7H82.5718H82.4436H82.3152H82.1868H82.0583H81.9298H81.8011H81.6724H81.5437H81.4149H81.2859H81.157H81.0279H80.8988H80.7697H80.6404H80.5111H80.3817H80.2523H80.1227H79.9932H79.8635H79.7338H79.604H79.4741H79.3442H79.2142H79.0842H78.9541H78.8239H78.6936H78.5633H78.4329H78.3025H78.1719H78.0413H77.9107H77.78H77.6492H77.5184H77.3874H77.2565H77.1254H76.9943H76.8632H76.7319H76.6006H76.4693H76.3378H76.2064H76.0748H75.9432H75.8115H75.6798H75.548H75.4161H75.2842H75.1522H75.0201H74.888H74.7558H74.6236H74.4913H74.3589H74.2265H74.094H73.9614H73.8288H73.6962H73.5634H73.4306H73.2978H73.1649H73.0319H72.8989H72.7658H72.6326H72.4994H72.3661H72.2328H72.0994H71.966H71.8324H71.6989H71.5652H71.4316H71.2978H71.164H71.0302H70.8962H70.7623H70.6282H70.4941H70.36H70.2258H70.0915H69.9572H69.8228H69.6884H69.5539H69.4193H69.2847H69.1501H69.0153H68.8806H68.7457H68.6109H68.4759H68.3409H68.2059H68.0708H67.9356H67.8004H67.6651H67.5298H67.3944H67.259H67.1235H66.988H66.8524H66.7167H66.581H66.4453H66.3094H66.1736H66.0377H65.9017H65.7657H65.6296H65.4935H65.3573H65.2211H65.0848H64.9485H64.8121H64.6756H64.5392H64.4026H64.266H64.1294H63.9927H63.8559H63.7192H63.5823H63.4454H63.3085H63.1715H63.0344H62.8973H62.7602H62.623H62.4858H62.3485H62.2111H62.0737H61.9363H61.7988H61.6613H61.5237H61.3861H61.2484H61.1107H60.9729H60.8351H60.6972H60.5593H60.4213H60.2833H60.1452H60.0071H59.869H59.7308H59.5925H59.4542H59.3159H59.1775H59.0391H58.9006H58.7621H58.6235H58.4849H58.3463H58.2076H58.0688H57.93H57.7912H57.6523H57.5134H57.3744H57.2354H57.0963H56.9572H56.8181H56.6789H56.5397H56.4004H56.2611H56.1217H55.9823H55.8429H55.7034H55.5639H55.4243H55.2847H55.145H55.0053H54.8656H54.7258H54.586H54.4461H54.3062H54.1663H54.0263H53.8863H53.7462H53.6061H53.466H53.3258H53.1856H53.0453H52.905H52.7646H52.6243H52.4838H52.3434H52.2029H52.0623H51.9217H51.7811H51.6405H51.4998H51.359H51.2183H51.0775H50.9366H50.7957H50.6548H50.5139H50.3729H50.2318H50.0908H49.9497H49.8085H49.6673H49.5261H49.3849H49.2436H49.1023H48.9609H48.8195H48.6781H48.5366H48.3951H48.2536H48.112H47.9704H47.8288H47.6871H47.5454H47.4037H47.2619H47.1201H46.9782H46.8364H46.6945H46.5525H46.4105H46.2685H46.1265H45.9844H45.8423H45.7002H45.558H45.4158H45.2736H45.1313H44.989H44.8467H44.7043H44.5619H44.4195H44.277H44.1345H43.992H43.8495H43.7069H43.5643H43.4216H43.279H43.1363H42.9935H42.8508H42.708H42.5652H42.4223H42.2795H42.1366H41.9936H41.8507H41.7077H41.5647H41.4216H41.2785H41.1354H40.9923H40.8491H40.706H40.5627H40.4195H40.2762H40.1329H39.9896H39.8463H39.7029H39.5595H39.4161H39.2726H39.1291H38.9856H38.8421H38.6985H38.555H38.4114H38.2677H38.1241H37.9804H37.8367H37.6929H37.5492H37.4054H37.2616H37.1178H36.9739H36.83H36.6861H36.5422H36.3983H36.2543H36.1103H35.9663H35.8223H35.6782H35.5341H35.39H35.2459H35.1017H34.9576H34.8134H34.6692C27.2485 88.8708 19.7088 87.1393 13.962 83.7293C8.28618 80.3613 4.51464 75.4842 3.89565 68.9784C2.65859 55.9764 7.82481 43.8333 12.9653 35.3249Z" fill="#54CAFD" stroke="#2E94C0" stroke-width="7"/>
</svg>
