<svg width="489" height="93" viewBox="0 0 489 93" fill="none" xmlns="http://www.w3.org/2000/svg">
<path d="M485.5 63C485.5 77.6355 473.636 89.5 459 89.5L30 89.5C15.3644 89.5 3.5 77.6355 3.5 63L3.5 46.837C3.5 37.0991 8.87394 28.7913 17.6782 26.0899C45.0063 17.7049 111.142 3.50001 245.463 3.50002C379.672 3.50004 444.856 17.6813 471.648 26.0623C480.275 28.7611 485.5 36.9335 485.5 46.5229L485.5 63Z" fill="#5ACEFF" stroke="#3599C4" stroke-width="7"/>
<path d="M122.42 58L116.12 37H121.31L124.46 48.04C124.6 48.54 124.72 49.05 124.82 49.57C124.94 50.07 125.03 50.55 125.09 51.01C125.17 51.47 125.23 51.9 125.27 52.3C125.31 52.68 125.35 53 125.39 53.26H124.73C124.85 52.52 124.95 51.86 125.03 51.28C125.13 50.7 125.24 50.16 125.36 49.66C125.48 49.14 125.63 48.6 125.81 48.04L128.93 39.73H133.01L136.07 48.04C136.31 48.7 136.51 49.32 136.67 49.9C136.83 50.48 136.95 51.04 137.03 51.58C137.13 52.1 137.21 52.62 137.27 53.14L136.67 53.23C136.71 52.87 136.74 52.54 136.76 52.24C136.78 51.92 136.8 51.62 136.82 51.34C136.86 51.04 136.9 50.73 136.94 50.41C136.98 50.09 137.04 49.74 137.12 49.36C137.2 48.96 137.31 48.51 137.45 48.01L140.57 37H145.64L139.34 58H135.44L130.46 45.91L131.03 45.97L126.44 58H122.42ZM147.925 58V35.8H152.635V45.31L151.675 45.67C151.895 44.95 152.285 44.3 152.845 43.72C153.425 43.12 154.115 42.64 154.915 42.28C155.715 41.92 156.555 41.74 157.435 41.74C158.635 41.74 159.645 41.99 160.465 42.49C161.285 42.97 161.905 43.7 162.325 44.68C162.745 45.64 162.955 46.82 162.955 48.22V58H158.125V48.61C158.125 47.97 158.035 47.44 157.855 47.02C157.675 46.6 157.395 46.29 157.015 46.09C156.655 45.87 156.205 45.77 155.665 45.79C155.245 45.79 154.855 45.86 154.495 46C154.135 46.12 153.825 46.31 153.565 46.57C153.305 46.81 153.095 47.09 152.935 47.41C152.795 47.73 152.725 48.08 152.725 48.46V58H150.355C149.795 58 149.315 58 148.915 58C148.515 58 148.185 58 147.925 58ZM172.848 58.27C171.508 58.27 170.308 57.92 169.248 57.22C168.208 56.5 167.378 55.52 166.758 54.28C166.138 53.02 165.828 51.6 165.828 50.02C165.828 48.4 166.138 46.97 166.758 45.73C167.378 44.49 168.228 43.52 169.308 42.82C170.388 42.1 171.618 41.74 172.998 41.74C173.758 41.74 174.448 41.85 175.068 42.07C175.708 42.29 176.268 42.6 176.748 43C177.228 43.38 177.638 43.83 177.978 44.35C178.318 44.85 178.568 45.39 178.728 45.97L177.738 45.85V42.07H182.508V58H177.648V54.16L178.728 54.13C178.568 54.69 178.308 55.22 177.948 55.72C177.588 56.22 177.148 56.66 176.628 57.04C176.108 57.42 175.528 57.72 174.888 57.94C174.248 58.16 173.568 58.27 172.848 58.27ZM174.168 54.22C174.908 54.22 175.548 54.05 176.088 53.71C176.628 53.37 177.048 52.89 177.348 52.27C177.648 51.63 177.798 50.88 177.798 50.02C177.798 49.16 177.648 48.42 177.348 47.8C177.048 47.16 176.628 46.67 176.088 46.33C175.548 45.97 174.908 45.79 174.168 45.79C173.448 45.79 172.818 45.97 172.278 46.33C171.758 46.67 171.348 47.16 171.048 47.8C170.748 48.42 170.598 49.16 170.598 50.02C170.598 50.88 170.748 51.63 171.048 52.27C171.348 52.89 171.758 53.37 172.278 53.71C172.818 54.05 173.448 54.22 174.168 54.22ZM188.063 58V38.05H192.863V58H188.063ZM185.243 46.27V42.07H195.953V46.27H185.243ZM208.576 58V42.07H213.376V58H208.576ZM210.976 38.92C210.076 38.92 209.366 38.71 208.846 38.29C208.346 37.85 208.096 37.23 208.096 36.43C208.096 35.71 208.356 35.12 208.876 34.66C209.396 34.2 210.096 33.97 210.976 33.97C211.876 33.97 212.576 34.19 213.076 34.63C213.576 35.05 213.826 35.65 213.826 36.43C213.826 37.17 213.566 37.77 213.046 38.23C212.546 38.69 211.856 38.92 210.976 38.92ZM223.256 58.3C221.696 58.3 220.316 58.05 219.116 57.55C217.936 57.05 216.996 56.38 216.296 55.54L219.206 53.02C219.826 53.64 220.526 54.1 221.306 54.4C222.086 54.68 222.826 54.82 223.526 54.82C223.806 54.82 224.056 54.79 224.276 54.73C224.496 54.67 224.676 54.59 224.816 54.49C224.976 54.37 225.096 54.24 225.176 54.1C225.256 53.94 225.296 53.76 225.296 53.56C225.296 53.16 225.116 52.85 224.756 52.63C224.576 52.53 224.276 52.41 223.856 52.27C223.436 52.13 222.896 51.97 222.236 51.79C221.296 51.55 220.476 51.27 219.776 50.95C219.096 50.61 218.536 50.22 218.096 49.78C217.696 49.36 217.386 48.9 217.166 48.4C216.946 47.88 216.836 47.3 216.836 46.66C216.836 45.92 217.006 45.25 217.346 44.65C217.706 44.05 218.176 43.53 218.756 43.09C219.356 42.65 220.036 42.32 220.796 42.1C221.576 41.86 222.376 41.74 223.196 41.74C224.076 41.74 224.916 41.84 225.716 42.04C226.516 42.24 227.256 42.52 227.936 42.88C228.636 43.24 229.256 43.67 229.796 44.17L227.276 46.99C226.916 46.65 226.506 46.35 226.046 46.09C225.606 45.81 225.146 45.59 224.666 45.43C224.186 45.27 223.746 45.19 223.346 45.19C223.046 45.19 222.776 45.22 222.536 45.28C222.316 45.32 222.126 45.4 221.966 45.52C221.806 45.62 221.686 45.75 221.606 45.91C221.526 46.05 221.486 46.22 221.486 46.42C221.486 46.62 221.536 46.81 221.636 46.99C221.756 47.17 221.916 47.32 222.116 47.44C222.316 47.56 222.636 47.7 223.076 47.86C223.516 48 224.116 48.18 224.876 48.4C225.816 48.66 226.626 48.95 227.306 49.27C227.986 49.59 228.526 49.97 228.926 50.41C229.246 50.75 229.486 51.15 229.646 51.61C229.806 52.05 229.886 52.53 229.886 53.05C229.886 54.07 229.596 54.98 229.016 55.78C228.456 56.56 227.676 57.18 226.676 57.64C225.676 58.08 224.536 58.3 223.256 58.3ZM248.739 58L240.339 37H245.649L249.699 47.71C249.939 48.33 250.139 48.87 250.299 49.33C250.479 49.79 250.629 50.22 250.749 50.62C250.889 51.02 251.009 51.43 251.109 51.85C251.229 52.25 251.359 52.71 251.499 53.23H250.569C250.729 52.55 250.889 51.95 251.049 51.43C251.209 50.89 251.389 50.34 251.589 49.78C251.789 49.2 252.039 48.51 252.339 47.71L256.239 37H261.459L252.999 58H248.739ZM269.509 58.3C267.749 58.3 266.219 57.95 264.919 57.25C263.619 56.53 262.609 55.56 261.889 54.34C261.169 53.1 260.809 51.69 260.809 50.11C260.809 48.89 261.009 47.77 261.409 46.75C261.809 45.73 262.369 44.85 263.089 44.11C263.809 43.35 264.659 42.77 265.639 42.37C266.639 41.95 267.729 41.74 268.909 41.74C270.029 41.74 271.049 41.94 271.969 42.34C272.909 42.74 273.719 43.3 274.399 44.02C275.079 44.74 275.599 45.59 275.959 46.57C276.319 47.55 276.479 48.62 276.439 49.78L276.409 51.07H263.719L263.029 48.37H272.509L271.999 48.94V48.34C271.959 47.84 271.799 47.4 271.519 47.02C271.259 46.62 270.909 46.31 270.469 46.09C270.029 45.87 269.529 45.76 268.969 45.76C268.189 45.76 267.519 45.92 266.959 46.24C266.419 46.54 266.009 46.99 265.729 47.59C265.449 48.17 265.309 48.89 265.309 49.75C265.309 50.63 265.489 51.4 265.849 52.06C266.229 52.7 266.769 53.2 267.469 53.56C268.189 53.92 269.039 54.1 270.019 54.1C270.699 54.1 271.299 54 271.819 53.8C272.359 53.6 272.939 53.26 273.559 52.78L275.809 55.96C275.189 56.5 274.529 56.94 273.829 57.28C273.129 57.62 272.409 57.87 271.669 58.03C270.949 58.21 270.229 58.3 269.509 58.3ZM279.497 58V42.07H284.057L284.267 47.26L283.367 46.27C283.607 45.41 283.997 44.64 284.537 43.96C285.097 43.28 285.747 42.74 286.487 42.34C287.227 41.94 288.017 41.74 288.857 41.74C289.217 41.74 289.547 41.77 289.847 41.83C290.167 41.89 290.457 41.96 290.717 42.04L289.397 47.35C289.177 47.21 288.877 47.1 288.497 47.02C288.137 46.92 287.757 46.87 287.357 46.87C286.917 46.87 286.507 46.95 286.127 47.11C285.747 47.25 285.427 47.46 285.167 47.74C284.907 48.02 284.697 48.35 284.537 48.73C284.397 49.11 284.327 49.54 284.327 50.02V58H279.497ZM298.52 58.3C296.96 58.3 295.58 58.05 294.38 57.55C293.2 57.05 292.26 56.38 291.56 55.54L294.47 53.02C295.09 53.64 295.79 54.1 296.57 54.4C297.35 54.68 298.09 54.82 298.79 54.82C299.07 54.82 299.32 54.79 299.54 54.73C299.76 54.67 299.94 54.59 300.08 54.49C300.24 54.37 300.36 54.24 300.44 54.1C300.52 53.94 300.56 53.76 300.56 53.56C300.56 53.16 300.38 52.85 300.02 52.63C299.84 52.53 299.54 52.41 299.12 52.27C298.7 52.13 298.16 51.97 297.5 51.79C296.56 51.55 295.74 51.27 295.04 50.95C294.36 50.61 293.8 50.22 293.36 49.78C292.96 49.36 292.65 48.9 292.43 48.4C292.21 47.88 292.1 47.3 292.1 46.66C292.1 45.92 292.27 45.25 292.61 44.65C292.97 44.05 293.44 43.53 294.02 43.09C294.62 42.65 295.3 42.32 296.06 42.1C296.84 41.86 297.64 41.74 298.46 41.74C299.34 41.74 300.18 41.84 300.98 42.04C301.78 42.24 302.52 42.52 303.2 42.88C303.9 43.24 304.52 43.67 305.06 44.17L302.54 46.99C302.18 46.65 301.77 46.35 301.31 46.09C300.87 45.81 300.41 45.59 299.93 45.43C299.45 45.27 299.01 45.19 298.61 45.19C298.31 45.19 298.04 45.22 297.8 45.28C297.58 45.32 297.39 45.4 297.23 45.52C297.07 45.62 296.95 45.75 296.87 45.91C296.79 46.05 296.75 46.22 296.75 46.42C296.75 46.62 296.8 46.81 296.9 46.99C297.02 47.17 297.18 47.32 297.38 47.44C297.58 47.56 297.9 47.7 298.34 47.86C298.78 48 299.38 48.18 300.14 48.4C301.08 48.66 301.89 48.95 302.57 49.27C303.25 49.59 303.79 49.97 304.19 50.41C304.51 50.75 304.75 51.15 304.91 51.61C305.07 52.05 305.15 52.53 305.15 53.05C305.15 54.07 304.86 54.98 304.28 55.78C303.72 56.56 302.94 57.18 301.94 57.64C300.94 58.08 299.8 58.3 298.52 58.3ZM313.433 58.33C312.253 58.33 311.243 58.08 310.403 57.58C309.583 57.06 308.943 56.32 308.483 55.36C308.043 54.4 307.823 53.25 307.823 51.91V42.07H312.653V51.25C312.653 51.89 312.753 52.44 312.953 52.9C313.153 53.36 313.453 53.72 313.853 53.98C314.253 54.22 314.733 54.34 315.293 54.34C315.713 54.34 316.093 54.27 316.433 54.13C316.793 53.99 317.093 53.8 317.333 53.56C317.593 53.3 317.793 53.01 317.933 52.69C318.073 52.35 318.143 51.98 318.143 51.58V42.07H322.973V58H318.443L318.233 54.73L319.133 54.37C318.893 55.13 318.493 55.81 317.933 56.41C317.373 56.99 316.703 57.46 315.923 57.82C315.143 58.16 314.313 58.33 313.433 58.33ZM332.621 58.3C331.061 58.3 329.681 58.05 328.481 57.55C327.301 57.05 326.361 56.38 325.661 55.54L328.571 53.02C329.191 53.64 329.891 54.1 330.671 54.4C331.451 54.68 332.191 54.82 332.891 54.82C333.171 54.82 333.421 54.79 333.641 54.73C333.861 54.67 334.041 54.59 334.181 54.49C334.341 54.37 334.461 54.24 334.541 54.1C334.621 53.94 334.661 53.76 334.661 53.56C334.661 53.16 334.481 52.85 334.121 52.63C333.941 52.53 333.641 52.41 333.221 52.27C332.801 52.13 332.261 51.97 331.601 51.79C330.661 51.55 329.841 51.27 329.141 50.95C328.461 50.61 327.901 50.22 327.461 49.78C327.061 49.36 326.751 48.9 326.531 48.4C326.311 47.88 326.201 47.3 326.201 46.66C326.201 45.92 326.371 45.25 326.711 44.65C327.071 44.05 327.541 43.53 328.121 43.09C328.721 42.65 329.401 42.32 330.161 42.1C330.941 41.86 331.741 41.74 332.561 41.74C333.441 41.74 334.281 41.84 335.081 42.04C335.881 42.24 336.621 42.52 337.301 42.88C338.001 43.24 338.621 43.67 339.161 44.17L336.641 46.99C336.281 46.65 335.871 46.35 335.411 46.09C334.971 45.81 334.511 45.59 334.031 45.43C333.551 45.27 333.111 45.19 332.711 45.19C332.411 45.19 332.141 45.22 331.901 45.28C331.681 45.32 331.491 45.4 331.331 45.52C331.171 45.62 331.051 45.75 330.971 45.91C330.891 46.05 330.851 46.22 330.851 46.42C330.851 46.62 330.901 46.81 331.001 46.99C331.121 47.17 331.281 47.32 331.481 47.44C331.681 47.56 332.001 47.7 332.441 47.86C332.881 48 333.481 48.18 334.241 48.4C335.181 48.66 335.991 48.95 336.671 49.27C337.351 49.59 337.891 49.97 338.291 50.41C338.611 50.75 338.851 51.15 339.011 51.61C339.171 52.05 339.251 52.53 339.251 53.05C339.251 54.07 338.961 54.98 338.381 55.78C337.821 56.56 337.041 57.18 336.041 57.64C335.041 58.08 333.901 58.3 332.621 58.3ZM345.825 50.8L344.865 46.87C345.445 46.73 345.995 46.57 346.515 46.39C347.035 46.19 347.515 45.98 347.955 45.76C348.395 45.54 348.765 45.29 349.065 45.01C349.385 44.71 349.635 44.39 349.815 44.05C349.995 43.69 350.085 43.31 350.085 42.91C350.085 42.51 349.985 42.17 349.785 41.89C349.585 41.59 349.315 41.36 348.975 41.2C348.635 41.04 348.235 40.96 347.775 40.96C347.115 40.96 346.455 41.2 345.795 41.68C345.135 42.14 344.525 42.89 343.965 43.93L340.695 40.9C341.595 39.52 342.665 38.45 343.905 37.69C345.165 36.93 346.475 36.55 347.835 36.55C349.155 36.55 350.345 36.82 351.405 37.36C352.465 37.88 353.305 38.61 353.925 39.55C354.545 40.47 354.855 41.51 354.855 42.67C354.855 43.41 354.695 44.14 354.375 44.86C354.075 45.58 353.645 46.26 353.085 46.9C352.545 47.52 351.905 48.07 351.165 48.55C350.425 49.03 349.605 49.4 348.705 49.66L348.405 50.8H345.825ZM344.745 55.66C344.745 54.86 344.985 54.21 345.465 53.71C345.945 53.21 346.565 52.96 347.325 52.96C348.145 52.96 348.785 53.2 349.245 53.68C349.705 54.14 349.935 54.8 349.935 55.66C349.935 56.44 349.695 57.08 349.215 57.58C348.735 58.08 348.105 58.33 347.325 58.33C346.505 58.33 345.865 58.1 345.405 57.64C344.965 57.18 344.745 56.52 344.745 55.66Z" fill="#FFF8F7"/>
</svg>
