<svg width="489" height="93" viewBox="0 0 489 93" fill="none" xmlns="http://www.w3.org/2000/svg">
<path d="M485.5 63C485.5 77.6355 473.636 89.5 459 89.5L30 89.5C15.3644 89.5 3.5 77.6355 3.5 63L3.5 46.837C3.5 37.0991 8.87394 28.7913 17.6782 26.0899C45.0063 17.7049 111.142 3.50001 245.463 3.50002C379.672 3.50004 444.856 17.6813 471.648 26.0623C480.275 28.7611 485.5 36.9335 485.5 46.5229L485.5 63Z" fill="#5ACEFF" stroke="#3599C4" stroke-width="7"/>
<path d="M122.42 58L116.12 37H121.31L124.46 48.04C124.6 48.54 124.72 49.05 124.82 49.57C124.94 50.07 125.03 50.55 125.09 51.01C125.17 51.47 125.23 51.9 125.27 52.3C125.31 52.68 125.35 53 125.39 53.26H124.73C124.85 52.52 124.95 51.86 125.03 51.28C125.13 50.7 125.24 50.16 125.36 49.66C125.48 49.14 125.63 48.6 125.81 48.04L128.93 39.73H133.01L136.07 48.04C136.31 48.7 136.51 49.32 136.67 49.9C136.83 50.48 136.95 51.04 137.03 51.58C137.13 52.1 137.21 52.62 137.27 53.14L136.67 53.23C136.71 52.87 136.74 52.54 136.76 52.24C136.78 51.92 136.8 51.62 136.82 51.34C136.86 51.04 136.9 50.73 136.94 50.41C136.98 50.09 137.04 49.74 137.12 49.36C137.2 48.96 137.31 48.51 137.45 48.01L140.57 37H145.64L139.34 58H135.44L130.46 45.91L131.03 45.97L126.44 58H122.42ZM147.925 58V35.8H152.635V45.31L151.675 45.67C151.895 44.95 152.285 44.3 152.845 43.72C153.425 43.12 154.115 42.64 154.915 42.28C155.715 41.92 156.555 41.74 157.435 41.74C158.635 41.74 159.645 41.99 160.465 42.49C161.285 42.97 161.905 43.7 162.325 44.68C162.745 45.64 162.955 46.82 162.955 48.22V58H158.125V48.61C158.125 47.97 158.035 47.44 157.855 47.02C157.675 46.6 157.395 46.29 157.015 46.09C156.655 45.87 156.205 45.77 155.665 45.79C155.245 45.79 154.855 45.86 154.495 46C154.135 46.12 153.825 46.31 153.565 46.57C153.305 46.81 153.095 47.09 152.935 47.41C152.795 47.73 152.725 48.08 152.725 48.46V58H150.355C149.795 58 149.315 58 148.915 58C148.515 58 148.185 58 147.925 58ZM174.558 58.3C172.798 58.3 171.268 57.95 169.968 57.25C168.668 56.53 167.658 55.56 166.938 54.34C166.218 53.1 165.858 51.69 165.858 50.11C165.858 48.89 166.058 47.77 166.458 46.75C166.858 45.73 167.418 44.85 168.138 44.11C168.858 43.35 169.708 42.77 170.688 42.37C171.688 41.95 172.778 41.74 173.958 41.74C175.078 41.74 176.098 41.94 177.018 42.34C177.958 42.74 178.768 43.3 179.448 44.02C180.128 44.74 180.648 45.59 181.008 46.57C181.368 47.55 181.528 48.62 181.488 49.78L181.458 51.07H168.768L168.078 48.37H177.558L177.048 48.94V48.34C177.008 47.84 176.848 47.4 176.568 47.02C176.308 46.62 175.958 46.31 175.518 46.09C175.078 45.87 174.578 45.76 174.018 45.76C173.238 45.76 172.568 45.92 172.008 46.24C171.468 46.54 171.058 46.99 170.778 47.59C170.498 48.17 170.358 48.89 170.358 49.75C170.358 50.63 170.538 51.4 170.898 52.06C171.278 52.7 171.818 53.2 172.518 53.56C173.238 53.92 174.088 54.1 175.068 54.1C175.748 54.1 176.348 54 176.868 53.8C177.408 53.6 177.988 53.26 178.608 52.78L180.858 55.96C180.238 56.5 179.578 56.94 178.878 57.28C178.178 57.62 177.458 57.87 176.718 58.03C175.998 58.21 175.278 58.3 174.558 58.3ZM184.546 58V42.07H189.106L189.316 47.26L188.416 46.27C188.656 45.41 189.046 44.64 189.586 43.96C190.146 43.28 190.796 42.74 191.536 42.34C192.276 41.94 193.066 41.74 193.906 41.74C194.266 41.74 194.596 41.77 194.896 41.83C195.216 41.89 195.506 41.96 195.766 42.04L194.446 47.35C194.226 47.21 193.926 47.1 193.546 47.02C193.186 46.92 192.806 46.87 192.406 46.87C191.966 46.87 191.556 46.95 191.176 47.11C190.796 47.25 190.476 47.46 190.216 47.74C189.956 48.02 189.746 48.35 189.586 48.73C189.446 49.11 189.376 49.54 189.376 50.02V58H184.546ZM205.115 58.3C203.355 58.3 201.825 57.95 200.525 57.25C199.225 56.53 198.215 55.56 197.495 54.34C196.775 53.1 196.415 51.69 196.415 50.11C196.415 48.89 196.615 47.77 197.015 46.75C197.415 45.73 197.975 44.85 198.695 44.11C199.415 43.35 200.265 42.77 201.245 42.37C202.245 41.95 203.335 41.74 204.515 41.74C205.635 41.74 206.655 41.94 207.575 42.34C208.515 42.74 209.325 43.3 210.005 44.02C210.685 44.74 211.205 45.59 211.565 46.57C211.925 47.55 212.085 48.62 212.045 49.78L212.015 51.07H199.325L198.635 48.37H208.115L207.605 48.94V48.34C207.565 47.84 207.405 47.4 207.125 47.02C206.865 46.62 206.515 46.31 206.075 46.09C205.635 45.87 205.135 45.76 204.575 45.76C203.795 45.76 203.125 45.92 202.565 46.24C202.025 46.54 201.615 46.99 201.335 47.59C201.055 48.17 200.915 48.89 200.915 49.75C200.915 50.63 201.095 51.4 201.455 52.06C201.835 52.7 202.375 53.2 203.075 53.56C203.795 53.92 204.645 54.1 205.625 54.1C206.305 54.1 206.905 54 207.425 53.8C207.965 53.6 208.545 53.26 209.165 52.78L211.415 55.96C210.795 56.5 210.135 56.94 209.435 57.28C208.735 57.62 208.015 57.87 207.275 58.03C206.555 58.21 205.835 58.3 205.115 58.3ZM224.982 58V42.07H229.782V58H224.982ZM227.382 38.92C226.482 38.92 225.772 38.71 225.252 38.29C224.752 37.85 224.502 37.23 224.502 36.43C224.502 35.71 224.762 35.12 225.282 34.66C225.802 34.2 226.502 33.97 227.382 33.97C228.282 33.97 228.982 34.19 229.482 34.63C229.982 35.05 230.232 35.65 230.232 36.43C230.232 37.17 229.972 37.77 229.452 38.23C228.952 38.69 228.262 38.92 227.382 38.92ZM239.662 58.3C238.102 58.3 236.722 58.05 235.522 57.55C234.342 57.05 233.402 56.38 232.702 55.54L235.612 53.02C236.232 53.64 236.932 54.1 237.712 54.4C238.492 54.68 239.232 54.82 239.932 54.82C240.212 54.82 240.462 54.79 240.682 54.73C240.902 54.67 241.082 54.59 241.222 54.49C241.382 54.37 241.502 54.24 241.582 54.1C241.662 53.94 241.702 53.76 241.702 53.56C241.702 53.16 241.522 52.85 241.162 52.63C240.982 52.53 240.682 52.41 240.262 52.27C239.842 52.13 239.302 51.97 238.642 51.79C237.702 51.55 236.882 51.27 236.182 50.95C235.502 50.61 234.942 50.22 234.502 49.78C234.102 49.36 233.792 48.9 233.572 48.4C233.352 47.88 233.242 47.3 233.242 46.66C233.242 45.92 233.412 45.25 233.752 44.65C234.112 44.05 234.582 43.53 235.162 43.09C235.762 42.65 236.442 42.32 237.202 42.1C237.982 41.86 238.782 41.74 239.602 41.74C240.482 41.74 241.322 41.84 242.122 42.04C242.922 42.24 243.662 42.52 244.342 42.88C245.042 43.24 245.662 43.67 246.202 44.17L243.682 46.99C243.322 46.65 242.912 46.35 242.452 46.09C242.012 45.81 241.552 45.59 241.072 45.43C240.592 45.27 240.152 45.19 239.752 45.19C239.452 45.19 239.182 45.22 238.942 45.28C238.722 45.32 238.532 45.4 238.372 45.52C238.212 45.62 238.092 45.75 238.012 45.91C237.932 46.05 237.892 46.22 237.892 46.42C237.892 46.62 237.942 46.81 238.042 46.99C238.162 47.17 238.322 47.32 238.522 47.44C238.722 47.56 239.042 47.7 239.482 47.86C239.922 48 240.522 48.18 241.282 48.4C242.222 48.66 243.032 48.95 243.712 49.27C244.392 49.59 244.932 49.97 245.332 50.41C245.652 50.75 245.892 51.15 246.052 51.61C246.212 52.05 246.292 52.53 246.292 53.05C246.292 54.07 246.002 54.98 245.422 55.78C244.862 56.56 244.082 57.18 243.082 57.64C242.082 58.08 240.942 58.3 239.662 58.3ZM265.145 58L256.745 37H262.055L266.105 47.71C266.345 48.33 266.545 48.87 266.705 49.33C266.885 49.79 267.035 50.22 267.155 50.62C267.295 51.02 267.415 51.43 267.515 51.85C267.635 52.25 267.765 52.71 267.905 53.23H266.975C267.135 52.55 267.295 51.95 267.455 51.43C267.615 50.89 267.795 50.34 267.995 49.78C268.195 49.2 268.445 48.51 268.745 47.71L272.645 37H277.865L269.405 58H265.145ZM285.915 58.3C284.155 58.3 282.625 57.95 281.325 57.25C280.025 56.53 279.015 55.56 278.295 54.34C277.575 53.1 277.215 51.69 277.215 50.11C277.215 48.89 277.415 47.77 277.815 46.75C278.215 45.73 278.775 44.85 279.495 44.11C280.215 43.35 281.065 42.77 282.045 42.37C283.045 41.95 284.135 41.74 285.315 41.74C286.435 41.74 287.455 41.94 288.375 42.34C289.315 42.74 290.125 43.3 290.805 44.02C291.485 44.74 292.005 45.59 292.365 46.57C292.725 47.55 292.885 48.62 292.845 49.78L292.815 51.07H280.125L279.435 48.37H288.915L288.405 48.94V48.34C288.365 47.84 288.205 47.4 287.925 47.02C287.665 46.62 287.315 46.31 286.875 46.09C286.435 45.87 285.935 45.76 285.375 45.76C284.595 45.76 283.925 45.92 283.365 46.24C282.825 46.54 282.415 46.99 282.135 47.59C281.855 48.17 281.715 48.89 281.715 49.75C281.715 50.63 281.895 51.4 282.255 52.06C282.635 52.7 283.175 53.2 283.875 53.56C284.595 53.92 285.445 54.1 286.425 54.1C287.105 54.1 287.705 54 288.225 53.8C288.765 53.6 289.345 53.26 289.965 52.78L292.215 55.96C291.595 56.5 290.935 56.94 290.235 57.28C289.535 57.62 288.815 57.87 288.075 58.03C287.355 58.21 286.635 58.3 285.915 58.3ZM295.903 58V42.07H300.463L300.673 47.26L299.773 46.27C300.013 45.41 300.403 44.64 300.943 43.96C301.503 43.28 302.153 42.74 302.893 42.34C303.633 41.94 304.423 41.74 305.263 41.74C305.623 41.74 305.953 41.77 306.253 41.83C306.573 41.89 306.863 41.96 307.123 42.04L305.803 47.35C305.583 47.21 305.283 47.1 304.903 47.02C304.543 46.92 304.163 46.87 303.763 46.87C303.323 46.87 302.913 46.95 302.533 47.11C302.153 47.25 301.833 47.46 301.573 47.74C301.313 48.02 301.103 48.35 300.943 48.73C300.803 49.11 300.733 49.54 300.733 50.02V58H295.903ZM314.926 58.3C313.366 58.3 311.986 58.05 310.786 57.55C309.606 57.05 308.666 56.38 307.966 55.54L310.876 53.02C311.496 53.64 312.196 54.1 312.976 54.4C313.756 54.68 314.496 54.82 315.196 54.82C315.476 54.82 315.726 54.79 315.946 54.73C316.166 54.67 316.346 54.59 316.486 54.49C316.646 54.37 316.766 54.24 316.846 54.1C316.926 53.94 316.966 53.76 316.966 53.56C316.966 53.16 316.786 52.85 316.426 52.63C316.246 52.53 315.946 52.41 315.526 52.27C315.106 52.13 314.566 51.97 313.906 51.79C312.966 51.55 312.146 51.27 311.446 50.95C310.766 50.61 310.206 50.22 309.766 49.78C309.366 49.36 309.056 48.9 308.836 48.4C308.616 47.88 308.506 47.3 308.506 46.66C308.506 45.92 308.676 45.25 309.016 44.65C309.376 44.05 309.846 43.53 310.426 43.09C311.026 42.65 311.706 42.32 312.466 42.1C313.246 41.86 314.046 41.74 314.866 41.74C315.746 41.74 316.586 41.84 317.386 42.04C318.186 42.24 318.926 42.52 319.606 42.88C320.306 43.24 320.926 43.67 321.466 44.17L318.946 46.99C318.586 46.65 318.176 46.35 317.716 46.09C317.276 45.81 316.816 45.59 316.336 45.43C315.856 45.27 315.416 45.19 315.016 45.19C314.716 45.19 314.446 45.22 314.206 45.28C313.986 45.32 313.796 45.4 313.636 45.52C313.476 45.62 313.356 45.75 313.276 45.91C313.196 46.05 313.156 46.22 313.156 46.42C313.156 46.62 313.206 46.81 313.306 46.99C313.426 47.17 313.586 47.32 313.786 47.44C313.986 47.56 314.306 47.7 314.746 47.86C315.186 48 315.786 48.18 316.546 48.4C317.486 48.66 318.296 48.95 318.976 49.27C319.656 49.59 320.196 49.97 320.596 50.41C320.916 50.75 321.156 51.15 321.316 51.61C321.476 52.05 321.556 52.53 321.556 53.05C321.556 54.07 321.266 54.98 320.686 55.78C320.126 56.56 319.346 57.18 318.346 57.64C317.346 58.08 316.206 58.3 314.926 58.3ZM329.839 58.33C328.659 58.33 327.649 58.08 326.809 57.58C325.989 57.06 325.349 56.32 324.889 55.36C324.449 54.4 324.229 53.25 324.229 51.91V42.07H329.059V51.25C329.059 51.89 329.159 52.44 329.359 52.9C329.559 53.36 329.859 53.72 330.259 53.98C330.659 54.22 331.139 54.34 331.699 54.34C332.119 54.34 332.499 54.27 332.839 54.13C333.199 53.99 333.499 53.8 333.739 53.56C333.999 53.3 334.199 53.01 334.339 52.69C334.479 52.35 334.549 51.98 334.549 51.58V42.07H339.379V58H334.849L334.639 54.73L335.539 54.37C335.299 55.13 334.899 55.81 334.339 56.41C333.779 56.99 333.109 57.46 332.329 57.82C331.549 58.16 330.719 58.33 329.839 58.33ZM349.027 58.3C347.467 58.3 346.087 58.05 344.887 57.55C343.707 57.05 342.767 56.38 342.067 55.54L344.977 53.02C345.597 53.64 346.297 54.1 347.077 54.4C347.857 54.68 348.597 54.82 349.297 54.82C349.577 54.82 349.827 54.79 350.047 54.73C350.267 54.67 350.447 54.59 350.587 54.49C350.747 54.37 350.867 54.24 350.947 54.1C351.027 53.94 351.067 53.76 351.067 53.56C351.067 53.16 350.887 52.85 350.527 52.63C350.347 52.53 350.047 52.41 349.627 52.27C349.207 52.13 348.667 51.97 348.007 51.79C347.067 51.55 346.247 51.27 345.547 50.95C344.867 50.61 344.307 50.22 343.867 49.78C343.467 49.36 343.157 48.9 342.937 48.4C342.717 47.88 342.607 47.3 342.607 46.66C342.607 45.92 342.777 45.25 343.117 44.65C343.477 44.05 343.947 43.53 344.527 43.09C345.127 42.65 345.807 42.32 346.567 42.1C347.347 41.86 348.147 41.74 348.967 41.74C349.847 41.74 350.687 41.84 351.487 42.04C352.287 42.24 353.027 42.52 353.707 42.88C354.407 43.24 355.027 43.67 355.567 44.17L353.047 46.99C352.687 46.65 352.277 46.35 351.817 46.09C351.377 45.81 350.917 45.59 350.437 45.43C349.957 45.27 349.517 45.19 349.117 45.19C348.817 45.19 348.547 45.22 348.307 45.28C348.087 45.32 347.897 45.4 347.737 45.52C347.577 45.62 347.457 45.75 347.377 45.91C347.297 46.05 347.257 46.22 347.257 46.42C347.257 46.62 347.307 46.81 347.407 46.99C347.527 47.17 347.687 47.32 347.887 47.44C348.087 47.56 348.407 47.7 348.847 47.86C349.287 48 349.887 48.18 350.647 48.4C351.587 48.66 352.397 48.95 353.077 49.27C353.757 49.59 354.297 49.97 354.697 50.41C355.017 50.75 355.257 51.15 355.417 51.61C355.577 52.05 355.657 52.53 355.657 53.05C355.657 54.07 355.367 54.98 354.787 55.78C354.227 56.56 353.447 57.18 352.447 57.64C351.447 58.08 350.307 58.3 349.027 58.3ZM362.231 50.8L361.271 46.87C361.851 46.73 362.401 46.57 362.921 46.39C363.441 46.19 363.921 45.98 364.361 45.76C364.801 45.54 365.171 45.29 365.471 45.01C365.791 44.71 366.041 44.39 366.221 44.05C366.401 43.69 366.491 43.31 366.491 42.91C366.491 42.51 366.391 42.17 366.191 41.89C365.991 41.59 365.721 41.36 365.381 41.2C365.041 41.04 364.641 40.96 364.181 40.96C363.521 40.96 362.861 41.2 362.201 41.68C361.541 42.14 360.931 42.89 360.371 43.93L357.101 40.9C358.001 39.52 359.071 38.45 360.311 37.69C361.571 36.93 362.881 36.55 364.241 36.55C365.561 36.55 366.751 36.82 367.811 37.36C368.871 37.88 369.711 38.61 370.331 39.55C370.951 40.47 371.261 41.51 371.261 42.67C371.261 43.41 371.101 44.14 370.781 44.86C370.481 45.58 370.051 46.26 369.491 46.9C368.951 47.52 368.311 48.07 367.571 48.55C366.831 49.03 366.011 49.4 365.111 49.66L364.811 50.8H362.231ZM361.151 55.66C361.151 54.86 361.391 54.21 361.871 53.71C362.351 53.21 362.971 52.96 363.731 52.96C364.551 52.96 365.191 53.2 365.651 53.68C366.111 54.14 366.341 54.8 366.341 55.66C366.341 56.44 366.101 57.08 365.621 57.58C365.141 58.08 364.511 58.33 363.731 58.33C362.911 58.33 362.271 58.1 361.811 57.64C361.371 57.18 361.151 56.52 361.151 55.66Z" fill="#FFF8F7"/>
</svg>
