<svg viewBox="0 0 70 41" fill="none" xmlns="http://www.w3.org/2000/svg">
<path d="M4.76974 20.5326C3.41538 29.866 10.1736 38.299 19.4472 38.5636C29.1913 38.8416 39.4517 38.7773 49.7838 38.4435C59.3406 38.1348 66.3416 29.3986 64.7976 19.873C64.0712 15.3913 61.556 11.4944 57.7109 9.44424C54.308 7.6299 49.9798 5.58437 45.5085 4.14625C41.0037 2.69733 36.5393 1.92658 32.7914 2.47853C25.7315 3.51826 18.0513 6.70678 12.5004 9.41975C8.25886 11.4928 5.47248 15.6897 4.76974 20.5326Z" fill="#F19A87" stroke="#C16651" stroke-width="4"/>
<path d="M20.5018 19.1323L20.5399 13.5324L23.0593 13.5848C23.4166 13.5922 23.7387 13.6763 24.0255 13.8369C24.3178 13.9977 24.5456 14.2158 24.709 14.4912C24.8725 14.7613 24.9531 15.067 24.9508 15.4083C24.9484 15.7603 24.8636 16.0759 24.6963 16.3552C24.5292 16.6291 24.3011 16.843 24.012 16.997C23.723 17.151 23.3972 17.2243 23.0346 17.2167L21.8109 17.1913L21.7975 19.1592L20.5018 19.1323ZM23.6051 19.1968L22.1986 16.6393L23.5917 16.4682L25.1567 19.2291L23.6051 19.1968ZM21.818 16.1513L22.9217 16.1743C23.0603 16.1771 23.1805 16.1503 23.2822 16.0937C23.3893 16.032 23.4699 15.9456 23.524 15.8347C23.5834 15.724 23.6136 15.5966 23.6146 15.4526C23.6156 15.3086 23.5844 15.1826 23.5212 15.0746C23.4579 14.9613 23.3652 14.874 23.243 14.8128C23.126 14.7517 22.9823 14.7193 22.8116 14.7158L21.8279 14.6954L21.818 16.1513ZM27.8486 19.365C27.3793 19.3553 26.9721 19.2535 26.6267 19.0596C26.2814 18.8604 26.0139 18.5962 25.8242 18.2668C25.6345 17.9322 25.5411 17.5542 25.5439 17.1329C25.5461 16.8075 25.6015 16.51 25.71 16.2402C25.8185 15.9704 25.9694 15.7389 26.1627 15.5455C26.356 15.3469 26.5837 15.1969 26.8457 15.0957C27.1131 14.9892 27.4041 14.9393 27.7187 14.9458C28.0173 14.952 28.2888 15.011 28.5334 15.1228C28.7833 15.2346 28.9982 15.3885 29.1782 15.5842C29.3582 15.78 29.4953 16.0095 29.5895 16.2729C29.6837 16.5362 29.7244 16.8224 29.7116 17.1315L29.7013 17.4753L26.318 17.405L26.139 16.6812L28.6664 16.7337L28.5294 16.8829L28.5305 16.7229C28.5207 16.5893 28.4789 16.4711 28.4049 16.3682C28.3363 16.2601 28.2436 16.1755 28.1267 16.1144C28.0098 16.0533 27.8767 16.0212 27.7274 16.0181C27.5194 16.0138 27.3405 16.0528 27.1906 16.135C27.0461 16.212 26.936 16.3297 26.8602 16.4882C26.7845 16.6413 26.7459 16.8325 26.7443 17.0618C26.7427 17.2965 26.7893 17.5028 26.8841 17.6808C26.9842 17.8536 27.1273 17.9899 27.3133 18.0898C27.5046 18.1897 27.7309 18.2425 27.9922 18.2479C28.1734 18.2517 28.3336 18.2283 28.4726 18.1779C28.6169 18.1275 28.7722 18.0401 28.9383 17.9155L29.5324 18.776C29.3662 18.9165 29.1894 19.0302 29.0022 19.117C28.8149 19.2038 28.6225 19.2664 28.4249 19.305C28.2326 19.349 28.0405 19.369 27.8486 19.365ZM30.52 19.3406L30.5603 13.4207L31.84 13.4473L31.7998 19.3672L30.52 19.3406ZM34.8861 19.5113C34.4169 19.5016 34.0096 19.3998 33.6643 19.2059C33.319 19.0067 33.0515 18.7424 32.8617 18.4131C32.672 18.0785 32.5786 17.7005 32.5815 17.2792C32.5837 16.9538 32.639 16.6563 32.7475 16.3865C32.856 16.1167 33.0069 15.8852 33.2002 15.6918C33.3936 15.4932 33.6212 15.3432 33.8832 15.242C34.1506 15.1355 34.4416 15.0856 34.7562 15.0921C35.0548 15.0983 35.3264 15.1573 35.5709 15.2691C35.8208 15.3809 36.0358 15.5347 36.2157 15.7305C36.3957 15.9263 36.5328 16.1558 36.627 16.4191C36.7212 16.6825 36.7619 16.9687 36.7492 17.2778L36.7388 17.6216L33.3556 17.5513L33.1765 16.8275L35.704 16.88L35.5669 17.0292L35.568 16.8692C35.5583 16.7356 35.5164 16.6174 35.4425 16.5145C35.3739 16.4064 35.2811 16.3218 35.1642 16.2607C35.0473 16.1996 34.9142 16.1675 34.7649 16.1644C34.5569 16.1601 34.378 16.199 34.2281 16.2813C34.0836 16.3583 33.9735 16.476 33.8978 16.6344C33.8221 16.7876 33.7834 16.9788 33.7819 17.2081C33.7803 17.4428 33.8269 17.6491 33.9216 17.8271C34.0218 17.9998 34.1649 18.1362 34.3508 18.236C34.5421 18.336 34.7684 18.3887 35.0297 18.3942C35.211 18.3979 35.3711 18.3746 35.5101 18.3242C35.6545 18.2738 35.8097 18.1864 35.9759 18.0618L36.57 18.9222C36.4037 19.0628 36.2269 19.1765 36.0397 19.2633C35.8525 19.3501 35.66 19.4127 35.4625 19.4513C35.2702 19.4953 35.0781 19.5153 34.8861 19.5113ZM39.1167 19.5913C38.7595 19.5838 38.4402 19.4839 38.1589 19.2913C37.8829 19.0936 37.6634 18.8276 37.5003 18.4935C37.3373 18.1541 37.2573 17.7737 37.2601 17.3524C37.2631 16.9204 37.3483 16.5408 37.5159 16.2136C37.6834 15.8864 37.9118 15.6324 38.201 15.4517C38.4902 15.2657 38.8188 15.1765 39.1867 15.1842C39.3894 15.1884 39.5731 15.2216 39.738 15.2837C39.9083 15.3459 40.057 15.4316 40.1842 15.541C40.3115 15.645 40.42 15.7672 40.5097 15.9078C40.5995 16.043 40.6651 16.1884 40.7067 16.3439L40.443 16.3064L40.4499 15.2985L41.7216 15.3249L41.6927 19.5728L40.397 19.5459L40.4039 18.5219L40.6919 18.5199C40.6482 18.6683 40.578 18.8082 40.4811 18.9395C40.3842 19.0709 40.2661 19.1858 40.1268 19.2842C39.9874 19.3827 39.8323 19.4594 39.6612 19.5146C39.4902 19.5697 39.3087 19.5952 39.1167 19.5913ZM39.476 18.5186C39.6733 18.5227 39.8442 18.4809 39.9888 18.3932C40.1334 18.3056 40.2463 18.1799 40.3274 18.0162C40.4085 17.8472 40.4499 17.6481 40.4514 17.4187C40.453 17.1894 40.4143 16.9913 40.3355 16.8243C40.2567 16.6519 40.1456 16.5189 40.0022 16.4253C39.8589 16.3263 39.6886 16.2748 39.4913 16.2707C39.2994 16.2667 39.1311 16.3112 38.9865 16.4042C38.8472 16.492 38.737 16.6203 38.6559 16.7893C38.5747 16.953 38.5334 17.1495 38.5318 17.3788C38.5303 17.6082 38.5689 17.809 38.6477 17.9813C38.7266 18.1483 38.835 18.2786 38.9731 18.3721C39.1164 18.4658 39.2841 18.5146 39.476 18.5186ZM44.253 19.706C43.8371 19.6974 43.4696 19.6231 43.1506 19.4831C42.8369 19.3432 42.5875 19.1593 42.4024 18.9315L43.1828 18.2756C43.347 18.4444 43.5328 18.5709 43.7402 18.6552C43.9477 18.7342 44.1447 18.7757 44.3313 18.7795C44.406 18.7811 44.4727 18.7745 44.5314 18.7597C44.5902 18.7449 44.6383 18.7246 44.6758 18.6987C44.7187 18.6676 44.7509 18.6336 44.7725 18.5967C44.7941 18.5545 44.8051 18.5067 44.8055 18.4534C44.8062 18.3467 44.7588 18.263 44.6632 18.2024C44.6154 18.1747 44.5357 18.141 44.4239 18.1014C44.3122 18.0617 44.1685 18.0161 43.9929 17.9644C43.7427 17.8952 43.5246 17.816 43.3386 17.7268C43.1579 17.6324 43.0093 17.5252 42.8928 17.4055C42.7869 17.2913 42.7051 17.1669 42.6473 17.0323C42.5896 16.8925 42.5614 16.7372 42.5625 16.5665C42.5639 16.3692 42.6104 16.1915 42.7021 16.0334C42.7992 15.8754 42.9255 15.7393 43.0809 15.6252C43.2417 15.5112 43.4235 15.4269 43.6266 15.3725C43.835 15.3128 44.0485 15.2852 44.2671 15.2898C44.5017 15.2947 44.7255 15.326 44.9384 15.3838C45.1513 15.4415 45.3481 15.5203 45.5287 15.6201C45.7147 15.7199 45.8792 15.838 46.0223 15.9744L45.3453 16.7124C45.25 16.6197 45.1412 16.5374 45.019 16.4656C44.9022 16.3885 44.78 16.3272 44.6523 16.2819C44.5246 16.2366 44.4075 16.2128 44.3008 16.2106C44.2208 16.2089 44.1488 16.2154 44.0847 16.2301C44.026 16.2396 43.9752 16.2598 43.9323 16.291C43.8895 16.3167 43.8572 16.3507 43.8356 16.393C43.814 16.4298 43.803 16.475 43.8027 16.5283C43.8023 16.5816 43.8153 16.6326 43.8416 16.6811C43.8733 16.7298 43.9157 16.7707 43.9688 16.8038C44.0219 16.8369 44.107 16.876 44.224 16.9211C44.341 16.9609 44.5007 17.0122 44.7029 17.0751C44.953 17.1496 45.1685 17.2314 45.3492 17.3205C45.5299 17.4096 45.6732 17.5139 45.779 17.6335C45.8637 17.7259 45.927 17.8339 45.9688 17.9575C46.0107 18.0757 46.0311 18.2041 46.0302 18.3428C46.0283 18.6148 45.9493 18.8558 45.7933 19.066C45.6425 19.2709 45.4335 19.4319 45.166 19.549C44.8986 19.6608 44.5943 19.7131 44.253 19.706ZM48.805 19.8006C48.3357 19.7909 47.9285 19.6891 47.5831 19.4952C47.2379 19.296 46.9703 19.0318 46.7806 18.7024C46.5909 18.3678 46.4975 17.9898 46.5003 17.5685C46.5026 17.2432 46.5579 16.9456 46.6664 16.6758C46.7749 16.406 46.9258 16.1745 47.1191 15.9812C47.3124 15.7825 47.5401 15.6325 47.8021 15.5313C48.0695 15.4248 48.3605 15.3749 48.6751 15.3814C48.9737 15.3876 49.2452 15.4466 49.4898 15.5584C49.7397 15.6702 49.9546 15.8241 50.1346 16.0198C50.3146 16.2156 50.4517 16.4451 50.5459 16.7085C50.6401 16.9718 50.6808 17.258 50.668 17.5671L50.6577 17.9109L47.2744 17.8406L47.0954 17.1168L49.6228 17.1693L49.4858 17.3185L49.4869 17.1585C49.4772 17.0249 49.4353 16.9067 49.3613 16.8038C49.2927 16.6957 49.2 16.6111 49.0831 16.55C48.9662 16.4889 48.8331 16.4568 48.6838 16.4537C48.4758 16.4494 48.2969 16.4884 48.147 16.5706C48.0025 16.6476 47.8924 16.7653 47.8166 16.9238C47.7409 17.0769 47.7023 17.2681 47.7007 17.4974C47.6991 17.7321 47.7457 17.9384 47.8405 18.1164C47.9407 18.2892 48.0837 18.4255 48.2697 18.5254C48.461 18.6254 48.6873 18.6781 48.9486 18.6835C49.1299 18.6873 49.29 18.6639 49.429 18.6135C49.5733 18.5631 49.7286 18.4757 49.8948 18.3511L50.4889 19.2116C50.3226 19.3521 50.1458 19.4658 49.9586 19.5526C49.7713 19.6394 49.5789 19.702 49.3813 19.7406C49.1891 19.7846 48.9969 19.8046 48.805 19.8006ZM23.9334 29.2848C23.5122 29.2761 23.1234 29.1987 22.7671 29.0526C22.4161 28.9013 22.1109 28.6949 21.8514 28.4335C21.5919 28.1667 21.3913 27.8558 21.2498 27.5009C21.1136 27.1406 21.0469 26.7472 21.0498 26.3206C21.0526 25.9046 21.1299 25.5221 21.2816 25.1732C21.4333 24.8244 21.6407 24.5246 21.9037 24.2741C22.1721 24.0183 22.4854 23.8221 22.8436 23.6855C23.2072 23.5491 23.6023 23.4853 24.0288 23.4941C24.2954 23.4997 24.5565 23.5398 24.812 23.6144C25.0674 23.6891 25.304 23.798 25.5217 23.9412C25.7447 24.0792 25.9356 24.2432 26.0943 24.4332L25.256 25.3679C25.1448 25.2482 25.0255 25.1444 24.8981 25.0564C24.7761 24.9632 24.6406 24.891 24.4916 24.8399C24.3427 24.7888 24.1829 24.7615 24.0122 24.7579C23.7989 24.7535 23.596 24.7893 23.4035 24.8653C23.2164 24.9361 23.0504 25.042 22.9054 25.183C22.7658 25.3188 22.6554 25.4872 22.574 25.6882C22.4926 25.8892 22.4511 26.115 22.4494 26.3657C22.4477 26.611 22.4862 26.8358 22.5648 27.0401C22.6434 27.2391 22.7543 27.4121 22.8972 27.5591C23.0402 27.7061 23.2128 27.819 23.4149 27.8979C23.6223 27.9769 23.8514 28.019 24.102 28.0242C24.2726 28.0277 24.4354 28.0071 24.5904 27.9623C24.7453 27.9176 24.8871 27.8565 25.0156 27.7792C25.1495 27.6966 25.2674 27.603 25.3695 27.4985L26.0182 28.5521C25.8839 28.6986 25.7044 28.8283 25.4796 28.9409C25.2602 29.0537 25.0143 29.142 24.7419 29.2056C24.4748 29.2641 24.2054 29.2905 23.9334 29.2848ZM27.3314 31.1157L28.3147 28.8558L28.3262 29.5122L26.3091 25.0057L27.7567 25.0358L28.638 27.1904C28.6853 27.298 28.7298 27.4136 28.7716 27.5372C28.8135 27.6607 28.8447 27.7787 28.8652 27.8912L28.6886 27.9915C28.7211 27.9122 28.7564 27.8142 28.7945 27.6977C28.838 27.5759 28.8842 27.4462 28.9332 27.3085L29.7323 25.0769L31.188 25.1071L29.3515 29.3175L28.6031 31.1421L27.3314 31.1157ZM31.7559 31.1276L31.7968 25.1198L33.0125 25.145L33.0541 26.098L32.8146 26.021C32.8531 25.8458 32.9449 25.6877 33.0898 25.5467C33.2348 25.4057 33.4168 25.2948 33.636 25.214C33.8606 25.128 34.0955 25.0875 34.3408 25.0926C34.7034 25.1002 35.0253 25.2029 35.3066 25.4008C35.588 25.5933 35.8075 25.8566 35.9652 26.1905C36.1283 26.5193 36.2084 26.8997 36.2054 27.3317C36.2025 27.7583 36.1173 28.1353 35.9497 28.4625C35.7875 28.7898 35.5618 29.0465 35.2726 29.2325C34.9887 29.4133 34.6628 29.4999 34.2949 29.4922C34.0549 29.4872 33.8259 29.4371 33.6079 29.3419C33.3899 29.2467 33.2068 29.1202 33.0586 28.9625C32.9103 28.8047 32.8128 28.6346 32.766 28.4523L33.0627 28.3465L33.0436 31.1544L31.7559 31.1276ZM33.9903 28.4058C34.1822 28.4097 34.3505 28.3679 34.4951 28.2802C34.6397 28.1872 34.7526 28.0589 34.8337 27.8952C34.9148 27.7316 34.9561 27.5351 34.9577 27.3057C34.9592 27.0817 34.9205 26.8862 34.8417 26.7193C34.7629 26.5469 34.6518 26.4139 34.5084 26.3203C34.3705 26.2214 34.2028 26.1699 34.0055 26.1658C33.8082 26.1617 33.6373 26.2035 33.4927 26.2912C33.3481 26.3788 33.2353 26.5072 33.1541 26.6762C33.073 26.8452 33.0316 27.0417 33.0301 27.2657C33.0285 27.495 33.0672 27.6932 33.1461 27.8601C33.2249 28.0271 33.336 28.1601 33.4793 28.2591C33.6227 28.3528 33.793 28.4017 33.9903 28.4058ZM37.0402 29.4773L37.0805 23.5574L38.3362 23.5835L38.319 26.1194L38.0624 26.2101C38.1223 26.0194 38.2275 25.8482 38.3778 25.6966C38.5336 25.5398 38.7184 25.4157 38.9323 25.3241C39.1463 25.2325 39.3705 25.1892 39.6052 25.1941C39.9251 25.2007 40.1939 25.273 40.4116 25.4109C40.6294 25.5434 40.7933 25.7415 40.9035 26.0052C41.0138 26.2635 41.0676 26.5793 41.0651 26.9526L41.0473 29.5606L39.7596 29.5338L39.7766 27.0299C39.7778 26.8592 39.7548 26.7174 39.7075 26.6044C39.6603 26.4914 39.5862 26.4072 39.4853 26.3517C39.3897 26.2911 39.2699 26.2619 39.1259 26.2642C39.0139 26.2619 38.9098 26.2784 38.8136 26.3138C38.7174 26.3438 38.6344 26.3927 38.5646 26.4606C38.4949 26.5232 38.4384 26.5967 38.3951 26.6811C38.3572 26.7657 38.3379 26.8586 38.3372 26.9599L38.3199 29.5039L37.6881 29.4907C37.5387 29.4876 37.4108 29.485 37.3041 29.4828C37.1975 29.4805 37.1095 29.4787 37.0402 29.4773ZM44.1402 29.7049C43.671 29.6951 43.2637 29.5933 42.9184 29.3994C42.5731 29.2002 42.3056 28.936 42.1159 28.6067C41.9262 28.272 41.8327 27.894 41.8356 27.4727C41.8378 27.1474 41.8932 26.8498 42.0017 26.58C42.1102 26.3103 42.2611 26.0787 42.4544 25.8854C42.6477 25.6867 42.8754 25.5367 43.1374 25.4355C43.4047 25.3291 43.6957 25.2791 44.0103 25.2856C44.3089 25.2918 44.5805 25.3508 44.8251 25.4626C45.075 25.5745 45.2899 25.7283 45.4699 25.924C45.6499 26.1198 45.787 26.3494 45.8812 26.6127C45.9754 26.876 46.0161 27.1622 46.0033 27.4713L45.993 27.8151L42.6097 27.7448L42.4306 27.021L44.9581 27.0735L44.8211 27.2227L44.8222 27.0627C44.8124 26.9292 44.7706 26.811 44.6966 26.7081C44.628 26.6 44.5353 26.5154 44.4183 26.4543C44.3014 26.3932 44.1683 26.361 44.019 26.3579C43.8111 26.3536 43.6322 26.3926 43.4823 26.4748C43.3378 26.5518 43.2276 26.6695 43.1519 26.828C43.0762 26.9811 43.0376 27.1723 43.036 27.4016C43.0344 27.6363 43.081 27.8426 43.1758 28.0206C43.2759 28.1934 43.419 28.3297 43.605 28.4296C43.7963 28.5296 44.0226 28.5823 44.2838 28.5877C44.4651 28.5915 44.6253 28.5681 44.7643 28.5177C44.9086 28.4674 45.0639 28.3799 45.23 28.2553L45.8241 29.1158C45.6578 29.2564 45.4811 29.37 45.2938 29.4568C45.1066 29.5436 44.9142 29.6063 44.7166 29.6448C44.5243 29.6888 44.3322 29.7089 44.1402 29.7049ZM46.8037 29.6802L46.8326 25.4323L48.0484 25.4576L48.0949 26.8427L47.8568 26.5737C47.9223 26.3457 48.0277 26.1426 48.1729 25.9642C48.3234 25.786 48.4977 25.6456 48.6957 25.543C48.8937 25.4405 49.1047 25.3915 49.3287 25.3962C49.4247 25.3982 49.5126 25.408 49.5925 25.4257C49.6777 25.4434 49.7549 25.4637 49.824 25.4865L49.4625 26.8951C49.4041 26.8566 49.3243 26.8256 49.2231 26.8022C49.1273 26.7735 49.0261 26.7581 48.9195 26.7558C48.8021 26.7534 48.6927 26.7725 48.5911 26.813C48.4895 26.8483 48.4038 26.9025 48.334 26.9757C48.2642 27.0489 48.2076 27.1358 48.1642 27.2362C48.1262 27.3368 48.1068 27.451 48.1059 27.579L48.0914 29.707L46.8037 29.6802Z" fill="#FEFFFE"/>
</svg>
