<svg  viewBox="0 0 126 38" fill="none" xmlns="http://www.w3.org/2000/svg">
<path d="M117.554 18.2943C120.384 26.5439 114.44 35.1276 105.773 35.277C90.2609 35.5442 75.0508 35.5285 59.6238 35.5126C46.5884 35.4991 33.3981 35.4855 19.7398 35.6423C11.0241 35.7423 4.4135 28.1258 4.30795 18.9355C4.20622 10.078 10.1628 2.10215 18.2259 2.03632C28.0343 1.95624 41.2517 1.98473 56.4654 2.36845C71.5597 2.74916 85.6298 2.66945 96.0675 2.52236C100.229 2.4637 104.895 4.28498 108.944 7.28845C112.989 10.2887 116.182 14.2945 117.554 18.2943Z" fill="#8BF167" stroke="#43B85C" stroke-width="4"/>
<path d="M45.2807 18.0443L45.4728 12.4476L47.9928 12.458C48.3501 12.4595 48.6702 12.5381 48.9528 12.6939C49.2409 12.8497 49.4629 13.0638 49.6189 13.3363C49.7751 13.6035 49.8473 13.9077 49.8356 14.2488C49.8235 14.6006 49.73 14.9174 49.5549 15.1992C49.3801 15.4757 49.1459 15.6933 48.8524 15.8521C48.5589 16.0108 48.2309 16.0894 47.8682 16.0879L46.6442 16.0828L46.5767 18.0497L45.2807 18.0443ZM48.3847 18.0571L47.0474 15.5248L48.4463 15.3306L49.9367 18.0635L48.3847 18.0571ZM46.6799 15.0435L47.7839 15.048C47.9225 15.0486 48.0435 15.0198 48.1469 14.9615C48.2558 14.898 48.3388 14.8104 48.396 14.6987C48.4585 14.587 48.4922 14.4592 48.4971 14.3153C48.5021 14.1714 48.4744 14.046 48.414 13.9391C48.3539 13.8269 48.2635 13.7412 48.1428 13.6821C48.0275 13.623 47.8845 13.5931 47.7138 13.5924L46.7298 13.5883L46.6799 15.0435ZM52.6268 18.1546C52.1575 18.1527 51.7527 18.0577 51.4124 17.8697C51.0724 17.6764 50.8119 17.4168 50.6311 17.0908C50.4504 16.7596 50.3673 16.3834 50.3818 15.9623C50.3929 15.6372 50.4565 15.3389 50.5725 15.0675C50.6885 14.7961 50.8459 14.5622 51.0447 14.3658C51.2436 14.164 51.4756 14.0104 51.7406 13.9048C52.0111 13.794 52.3037 13.7392 52.6183 13.7405C52.917 13.7418 53.1872 13.7962 53.4288 13.9038C53.6758 14.0114 53.8867 14.1616 54.0615 14.3542C54.2362 14.5468 54.3671 14.7739 54.4541 15.0355C54.5412 15.2971 54.574 15.5824 54.5528 15.8915L54.533 16.2353L51.149 16.2214L50.9897 15.501L53.5177 15.5114L53.3765 15.6628L53.3819 15.5029C53.3759 15.3696 53.3372 15.2521 53.266 15.1506C53.2004 15.0437 53.1099 14.9607 52.9945 14.9016C52.8792 14.8424 52.7469 14.8126 52.5976 14.812C52.3896 14.8111 52.2094 14.853 52.0572 14.9377C51.9104 15.017 51.797 15.1365 51.7168 15.2961C51.6369 15.4504 51.5929 15.6421 51.5851 15.8713C51.577 16.1058 51.618 16.3112 51.7079 16.4875C51.8034 16.6585 51.9428 16.7924 52.1262 16.8891C52.3149 16.9858 52.5399 17.0347 52.8012 17.0358C52.9826 17.0366 53.1435 17.0106 53.284 16.9578C53.4298 16.9051 53.5876 16.8151 53.7573 16.6879L54.3282 17.5379C54.1579 17.6811 53.9779 17.7976 53.7881 17.8875C53.5984 17.9773 53.4041 18.0432 53.2053 18.085C53.0116 18.1322 52.8188 18.1554 52.6268 18.1546ZM55.1918 16.374L55.2321 15.1987L58.0001 15.2101L57.9598 16.3854L55.1918 16.374ZM59.015 18.1009L59.2071 12.5042L61.7271 12.5146C62.0844 12.5161 62.4044 12.5947 62.6871 12.7505C62.9751 12.9063 63.1971 13.1204 63.3531 13.3929C63.5093 13.6601 63.5816 13.9643 63.5698 14.3054C63.5578 14.6572 63.4642 14.974 63.2892 15.2558C63.1143 15.5323 62.8802 15.7499 62.5867 15.9087C62.2932 16.0674 61.9651 16.146 61.6025 16.1445L60.3785 16.1394L60.3109 18.1063L59.015 18.1009ZM62.1189 18.1137L60.7817 15.5814L62.1805 15.3872L63.6709 18.1201L62.1189 18.1137ZM60.4141 15.1001L61.5181 15.1046C61.6568 15.1052 61.7778 15.0764 61.8812 15.0181C61.99 14.9546 62.073 14.867 62.1302 14.7553C62.1927 14.6436 62.2264 14.5158 62.2314 14.3719C62.2363 14.228 62.2086 14.1026 62.1483 13.9957C62.0881 13.8835 61.9977 13.7978 61.8771 13.7387C61.7618 13.6796 61.6188 13.6497 61.4481 13.649L60.4641 13.6449L60.4141 15.1001ZM66.3371 18.2111C65.8944 18.2093 65.503 18.1117 65.163 17.9184C64.8282 17.7251 64.5652 17.4628 64.3739 17.1315C64.1879 16.8002 64.1022 16.4213 64.1169 15.9949C64.1315 15.5685 64.2432 15.1905 64.4518 14.8608C64.6658 14.5312 64.9468 14.2711 65.2947 14.0806C65.648 13.8902 66.0459 13.7959 66.4886 13.7977C66.9313 13.7995 67.32 13.8971 67.6547 14.0904C67.9948 14.2837 68.2578 14.546 68.4438 14.8773C68.6298 15.2086 68.7155 15.5874 68.7008 16.0138C68.6862 16.4402 68.5745 16.8183 68.3658 17.1479C68.1572 17.4776 67.8762 17.7376 67.523 17.9281C67.175 18.1186 66.7797 18.2129 66.3371 18.2111ZM66.375 17.1077C66.567 17.1085 66.7393 17.0613 66.8919 16.9659C67.0445 16.8706 67.1663 16.7405 67.2573 16.5756C67.3483 16.4107 67.3948 16.2217 67.3968 16.0084C67.4095 15.7953 67.376 15.6059 67.2963 15.4403C67.2168 15.2694 67.1041 15.1356 66.958 15.0391C66.812 14.9425 66.643 14.8938 66.451 14.893C66.259 14.8923 66.084 14.9395 65.9261 15.0348C65.7734 15.1301 65.6515 15.2629 65.5603 15.4331C65.4693 15.598 65.4228 15.7871 65.4208 16.0003C65.4082 16.2135 65.4417 16.4029 65.5214 16.5685C65.601 16.7341 65.7139 16.8651 65.8599 16.9617C66.0113 17.0583 66.183 17.107 66.375 17.1077ZM69.4728 18.1441L69.6759 12.2275L70.9559 12.2328L70.7528 18.1493L69.4728 18.1441ZM71.9025 18.1541L72.1056 12.2376L73.3856 12.2428L73.1825 18.1593L71.9025 18.1541ZM78.8759 18.2628C78.5079 18.2613 78.176 18.2172 77.8803 18.1307C77.59 18.0389 77.3331 17.9099 77.1094 17.7437C76.886 17.5722 76.6875 17.3715 76.514 17.1415L77.3701 16.2095C77.6245 16.5677 77.883 16.8087 78.1454 16.9324C78.4132 17.0561 78.6911 17.1185 78.9791 17.1197C79.1231 17.1203 79.2544 17.1022 79.373 17.0654C79.4916 17.0285 79.5841 16.9756 79.6505 16.9066C79.7171 16.8322 79.7522 16.7417 79.7558 16.6351C79.7586 16.5552 79.7397 16.4831 79.6993 16.419C79.6641 16.3549 79.6127 16.2987 79.545 16.2504C79.4773 16.2022 79.3961 16.1592 79.3014 16.1215C79.2069 16.0784 79.1067 16.0434 79.001 16.0163C78.8954 15.9839 78.787 15.9568 78.6757 15.935C78.3688 15.8644 78.1024 15.778 77.8765 15.6758C77.6507 15.5736 77.4629 15.4502 77.3132 15.3057C77.1689 15.1558 77.0627 14.9874 76.9944 14.8006C76.9264 14.6084 76.8964 14.395 76.9044 14.1605C76.913 13.91 76.9769 13.681 77.096 13.4736C77.2207 13.2609 77.3815 13.0803 77.5787 12.9318C77.7813 12.778 78.012 12.6617 78.2707 12.5828C78.5297 12.4986 78.7978 12.457 79.0751 12.4582C79.4431 12.4597 79.7564 12.501 80.015 12.582C80.2791 12.6577 80.502 12.7679 80.6837 12.9126C80.8708 13.0573 81.0275 13.2312 81.1539 13.4343L80.2862 14.2384C80.1789 14.0993 80.0602 13.9842 79.93 13.8931C79.8051 13.8019 79.6688 13.7321 79.5211 13.6835C79.3788 13.6349 79.2303 13.6103 79.0756 13.6097C78.9156 13.609 78.7762 13.6298 78.6574 13.6719C78.5441 13.7088 78.4542 13.7644 78.3876 13.8387C78.3213 13.9078 78.2863 13.9929 78.2829 14.0942C78.2798 14.1848 78.3038 14.2622 78.3549 14.3264C78.406 14.3906 78.476 14.4495 78.5649 14.5032C78.6539 14.5515 78.7564 14.5946 78.8725 14.6324C78.9887 14.6648 79.1105 14.692 79.2377 14.7139C79.529 14.7737 79.7904 14.8521 80.0218 14.949C80.2585 15.0459 80.4598 15.164 80.6257 15.3033C80.7969 15.4426 80.9246 15.6084 81.0086 15.8007C81.0982 15.9876 81.1387 16.2064 81.1301 16.4569C81.1168 16.846 81.0094 17.1761 80.8081 17.4471C80.6123 17.7128 80.3466 17.917 80.011 18.0595C79.6809 18.1968 79.3025 18.2645 78.8759 18.2628ZM82.3089 18.197L82.4914 12.8801L83.7714 12.8854L83.5889 18.2022L82.3089 18.197ZM81.6642 15.0677L81.7026 13.9484L84.5586 13.9601L84.5202 15.0795L81.6642 15.0677ZM86.6708 18.2869C86.3135 18.2854 85.9967 18.1908 85.7204 18.0031C85.4497 17.8101 85.2373 17.548 85.0833 17.2168C84.9295 16.8804 84.8599 16.5016 84.8743 16.0805C84.8891 15.6487 84.9849 15.268 85.1616 14.9382C85.3382 14.6084 85.5738 14.3508 85.8682 14.1654C86.1628 13.9747 86.4941 13.8801 86.8621 13.8817C87.0647 13.8825 87.2477 13.9126 87.411 13.9719C87.5797 14.0312 87.7262 14.1145 87.8505 14.2216C87.975 14.3234 88.0803 14.4438 88.1662 14.5827C88.2523 14.7164 88.314 14.8605 88.3513 15.0153L88.0884 14.9822L88.123 13.9748L89.395 13.9801L89.2493 18.2256L87.9533 18.2202L87.9884 17.1968L88.2767 17.19C88.2289 17.3391 88.1547 17.48 88.0541 17.6129C87.9536 17.7458 87.8322 17.8625 87.6901 17.9632C87.5479 18.064 87.3905 18.1433 87.2178 18.2012C87.0451 18.2591 86.8628 18.2877 86.6708 18.2869ZM87.0599 17.209C87.2572 17.2098 87.4294 17.1652 87.5765 17.0752C87.7236 16.9852 87.84 16.8577 87.9257 16.6928C88.0116 16.5226 88.0584 16.3228 88.0663 16.0936C88.0742 15.8644 88.0409 15.6671 87.9666 15.5015C87.8925 15.3306 87.7849 15.1995 87.644 15.1083C87.5033 15.0118 87.3343 14.9631 87.137 14.9623C86.945 14.9615 86.7753 15.0088 86.6281 15.1041C86.4863 15.1942 86.3725 15.3243 86.2866 15.4946C86.2009 15.6595 86.1542 15.8565 86.1463 16.0857C86.1384 16.3149 86.1716 16.515 86.2457 16.6859C86.32 16.8514 86.425 16.9798 86.5605 17.071C86.7014 17.1622 86.8679 17.2082 87.0599 17.209ZM90.7307 18.2317L90.9132 12.9148L92.1932 12.9201L92.0107 18.2369L90.7307 18.2317ZM90.086 15.1024L90.1244 13.9831L92.9804 13.9948L92.942 15.1142L90.086 15.1024ZM95.1516 18.3299C94.7357 18.3281 94.3699 18.26 94.0545 18.1254C93.7444 17.9909 93.4999 17.8113 93.3209 17.5866L94.12 16.9182C94.2796 17.0841 94.4621 17.2075 94.6673 17.2883C94.8728 17.3638 95.0688 17.4019 95.2555 17.4027C95.3302 17.403 95.3971 17.3953 95.4563 17.3795C95.5155 17.3638 95.5643 17.3427 95.6025 17.3162C95.6463 17.2844 95.6795 17.2498 95.7021 17.2126C95.7249 17.1701 95.7372 17.1221 95.739 17.0688C95.7427 16.9622 95.6975 16.8794 95.6035 16.8204C95.5564 16.7935 95.4775 16.7612 95.3668 16.7235C95.2561 16.6857 95.1136 16.6424 94.9392 16.5938C94.6907 16.5288 94.4746 16.4532 94.2909 16.3672C94.1127 16.2758 93.9669 16.1713 93.8536 16.0535C93.7508 15.9411 93.6723 15.8182 93.6182 15.6847C93.5643 15.5459 93.5403 15.3912 93.5462 15.2206C93.5529 15.0234 93.6044 14.845 93.7006 14.6855C93.802 14.526 93.9321 14.3879 94.0908 14.2713C94.2548 14.1547 94.4392 14.0675 94.6439 14.0097C94.8541 13.9466 95.0685 13.9155 95.2872 13.9164C95.5218 13.9174 95.7449 13.9449 95.9564 13.9991C96.1679 14.0533 96.3627 14.1287 96.5407 14.2254C96.7241 14.3221 96.8855 14.4374 97.0249 14.5713L96.3271 15.32C96.2342 15.229 96.1276 15.1486 96.0074 15.0788C95.8926 15.0037 95.7719 14.9446 95.6454 14.9014C95.5189 14.8583 95.4023 14.8364 95.2956 14.836C95.2156 14.8357 95.1433 14.8434 95.0788 14.8591C95.0197 14.8695 94.9683 14.8906 94.9246 14.9224C94.881 14.9489 94.8478 14.9834 94.825 15.026C94.8024 15.0632 94.7902 15.1085 94.7884 15.1618C94.7865 15.2151 94.7981 15.2658 94.8231 15.3138C94.8535 15.362 94.8948 15.4021 94.947 15.4343C94.9993 15.4665 95.0833 15.5042 95.1992 15.5473C95.3152 15.5851 95.4736 15.6337 95.6742 15.6932C95.9225 15.7635 96.1359 15.8417 96.3143 15.9277C96.4927 16.0138 96.6332 16.1156 96.7358 16.2333C96.818 16.3243 96.8784 16.4312 96.9168 16.5539C96.9555 16.6714 96.9724 16.7994 96.9677 16.938C96.9583 17.2098 96.8727 17.452 96.7107 17.6646C96.5542 17.8718 96.3406 18.0362 96.0697 18.1577C95.799 18.2739 95.493 18.3313 95.1516 18.3299ZM44.7842 27.1542C44.3066 26.8484 43.9477 26.4671 43.7073 26.0103C43.467 25.5535 43.3564 25.0453 43.3756 24.4856C43.3947 23.9299 43.54 23.4248 43.8117 22.9701C44.0875 22.5114 44.4746 22.1312 44.973 21.8294L45.4955 22.3413C45.1187 22.5956 44.8319 22.9103 44.635 23.2853C44.4421 23.6604 44.3383 24.0618 44.3236 24.4895C44.3089 24.9173 44.3851 25.3194 44.5522 25.6959C44.7233 26.0725 44.9885 26.3894 45.3477 26.6468L44.7842 27.1542ZM45.9484 26.0435L46.0925 21.846L47.1125 21.8502L46.9684 26.0477L45.9484 26.0435ZM46.4775 24.4384L46.5068 23.5869L48.6787 23.5959L48.6495 24.4474L46.4775 24.4384ZM46.5356 22.7474L46.5665 21.8479L48.9844 21.8579L48.9536 22.7574L46.5356 22.7474ZM50.9654 26.1242C50.6334 26.1228 50.3398 26.0496 50.0848 25.9046C49.8337 25.7597 49.6364 25.5629 49.493 25.3145C49.3535 25.066 49.2892 24.7819 49.3002 24.462C49.3112 24.1422 49.3949 23.8587 49.5514 23.6115C49.7119 23.3642 49.9226 23.1692 50.1836 23.0263C50.4485 22.8835 50.747 22.8127 51.079 22.8141C51.411 22.8155 51.7025 22.8887 51.9536 23.0336C52.2086 23.1786 52.4059 23.3753 52.5454 23.6238C52.6849 23.8723 52.7491 24.1564 52.7382 24.4762C52.7272 24.796 52.6434 25.0796 52.4869 25.3268C52.3304 25.574 52.1197 25.7691 51.8548 25.9119C51.5938 26.0548 51.2973 26.1255 50.9654 26.1242ZM50.9938 25.2967C51.1378 25.2972 51.267 25.2618 51.3815 25.1903C51.4959 25.1188 51.5873 25.0212 51.6555 24.8976C51.7238 24.7739 51.7587 24.6321 51.7602 24.4722C51.7697 24.3123 51.7445 24.1703 51.6848 24.0461C51.6252 23.9179 51.5406 23.8176 51.4311 23.7452C51.3215 23.6727 51.1948 23.6362 51.0508 23.6356C50.9068 23.635 50.7756 23.6705 50.6571 23.742C50.5426 23.8135 50.4512 23.913 50.3828 24.0407C50.3145 24.1644 50.2797 24.3062 50.2782 24.4661C50.2687 24.626 50.2938 24.768 50.3536 24.8922C50.4133 25.0164 50.4979 25.1147 50.6075 25.1871C50.721 25.2595 50.8498 25.2961 50.9938 25.2967ZM53.3111 26.0739L53.4205 22.8897L54.3324 22.8935L54.3388 23.9311L54.1656 23.7324C54.2195 23.5607 54.3028 23.4071 54.4155 23.2717C54.5321 23.1362 54.6658 23.0288 54.8166 22.9495C54.9673 22.8701 55.1267 22.8308 55.2947 22.8315C55.3667 22.8318 55.4325 22.8381 55.4921 22.8503C55.5557 22.8626 55.6132 22.8768 55.6646 22.893L55.3642 23.9533C55.3212 23.9251 55.2619 23.9029 55.1865 23.8866C55.1152 23.8663 55.0395 23.856 54.9595 23.8557C54.8715 23.8553 54.789 23.8709 54.7119 23.9026C54.6349 23.9303 54.5695 23.972 54.5155 24.0277C54.4616 24.0835 54.4174 24.1493 54.3827 24.2251C54.3521 24.3009 54.3352 24.3868 54.3319 24.4828L54.2771 26.0778L53.3111 26.0739ZM59.3594 26.1588C59.0514 26.1575 58.7779 26.0844 58.5388 25.9395C58.2997 25.7946 58.1125 25.5979 57.977 25.3494C57.8456 25.097 57.7854 24.8129 57.7962 24.4971C57.8071 24.1812 57.8867 23.8997 58.0352 23.6524C58.1879 23.4012 58.3887 23.2041 58.6376 23.0612C58.8865 22.9183 59.165 22.8474 59.473 22.8487C59.757 22.8499 60.0153 22.9009 60.2479 23.0018C60.4844 23.1028 60.6696 23.2435 60.8034 23.4239L60.26 24.0454C60.2062 23.9812 60.1423 23.921 60.0682 23.8647C59.9941 23.8084 59.9116 23.7641 59.8207 23.7318C59.7298 23.6994 59.6344 23.683 59.5344 23.6826C59.3824 23.682 59.2472 23.7174 59.1287 23.7889C59.0104 23.8564 58.9171 23.9519 58.8488 24.0756C58.7806 24.1993 58.7437 24.341 58.7382 24.5009C58.733 24.6529 58.7602 24.7909 58.82 24.9151C58.8837 25.0393 58.9724 25.1376 59.0859 25.2101C59.1994 25.2825 59.3302 25.319 59.4782 25.3196C59.5822 25.3201 59.6786 25.3085 59.7674 25.2848C59.8564 25.2572 59.9378 25.2176 60.0115 25.1659C60.0893 25.1142 60.1615 25.0506 60.2281 24.9749L60.7225 25.6066C60.5806 25.778 60.3859 25.9131 60.1385 26.012C59.8951 26.111 59.6354 26.1599 59.3594 26.1588ZM62.3167 26.1769C62.0807 26.176 61.8804 26.1252 61.7158 26.0245C61.5554 25.9199 61.4325 25.7715 61.3471 25.5792C61.2657 25.387 61.2295 25.1569 61.2387 24.8891L61.3063 22.9222L62.2723 22.9262L62.2093 24.7611C62.2049 24.8891 62.2211 24.9991 62.2579 25.0912C62.2948 25.1833 62.3523 25.2555 62.4305 25.3078C62.5089 25.3561 62.6041 25.3805 62.7161 25.381C62.8001 25.3813 62.8765 25.3676 62.9455 25.3399C63.0185 25.3122 63.0798 25.2745 63.1294 25.2267C63.1832 25.175 63.2252 25.1172 63.2554 25.0533C63.2857 24.9855 63.3022 24.9116 63.305 24.8316L63.3702 22.9307L64.3362 22.9347L64.2269 26.1189L63.3209 26.1151L63.3014 25.4613L63.4838 25.3901C63.4306 25.5418 63.346 25.6774 63.2298 25.7969C63.1139 25.9124 62.9766 26.0057 62.8182 26.0771C62.6598 26.1444 62.4927 26.1777 62.3167 26.1769ZM65.0825 26.1224L65.1918 22.9383L66.1038 22.942L66.1102 23.9796L65.937 23.7809C65.9909 23.6092 66.0742 23.4557 66.1869 23.3202C66.3035 23.1847 66.4372 23.0773 66.588 22.998C66.7387 22.9186 66.8981 22.8793 67.0661 22.88C67.1381 22.8803 67.2039 22.8866 67.2635 22.8988C67.3271 22.9111 67.3846 22.9253 67.436 22.9415L67.1356 24.0018C67.0926 23.9736 67.0333 23.9514 66.9579 23.9351C66.8865 23.9148 66.8109 23.9045 66.7309 23.9042C66.6429 23.9038 66.5603 23.9195 66.4832 23.9511C66.4063 23.9788 66.3408 24.0205 66.2869 24.0763C66.233 24.132 66.1887 24.1978 66.1541 24.2736C66.1235 24.3495 66.1066 24.4354 66.1033 24.5313L66.0485 26.1264L65.0825 26.1224ZM67.813 26.1336L67.9223 22.9495L68.8343 22.9533L68.8407 23.9908L68.6675 23.7922C68.7214 23.6205 68.8046 23.4669 68.9173 23.3314C69.034 23.196 69.1677 23.0886 69.3184 23.0092C69.4692 22.9299 69.6285 22.8906 69.7965 22.8913C69.8685 22.8916 69.9343 22.8978 69.9939 22.9101C70.0575 22.9223 70.115 22.9366 70.1665 22.9528L69.866 24.013C69.823 23.9849 69.7638 23.9626 69.6883 23.9463C69.617 23.9261 69.5413 23.9158 69.4613 23.9154C69.3733 23.9151 69.2908 23.9307 69.2137 23.9624C69.1367 23.99 69.0713 24.0318 69.0174 24.0875C68.9634 24.1433 68.9192 24.2091 68.8846 24.2849C68.854 24.3607 68.837 24.4466 68.8337 24.5426L68.779 26.1376L67.813 26.1336ZM71.9246 26.2106C71.5726 26.2091 71.269 26.1379 71.0138 25.9969C70.7587 25.8519 70.5634 25.6572 70.4278 25.4127C70.2923 25.1643 70.23 24.8822 70.2408 24.5663C70.2492 24.3225 70.2969 24.0988 70.3839 23.8952C70.4709 23.6917 70.5889 23.5162 70.738 23.3689C70.8872 23.2176 71.0612 23.1024 71.2599 23.0232C71.4628 22.9401 71.6822 22.899 71.9182 22.9C72.1422 22.9009 72.3448 22.9417 72.5261 23.0225C72.7114 23.1032 72.8695 23.2158 73.0006 23.3603C73.1316 23.5047 73.2298 23.6751 73.2951 23.8712C73.3603 24.0674 73.385 24.2814 73.369 24.5133L73.3542 24.7711L70.8162 24.7606L70.6967 24.2204L72.5927 24.2282L72.4868 24.3417L72.4909 24.2218C72.4864 24.1218 72.4574 24.0337 72.404 23.9575C72.3547 23.8774 72.2869 23.8151 72.2004 23.7708C72.1139 23.7264 72.0146 23.704 71.9026 23.7036C71.7466 23.7029 71.6115 23.7344 71.4973 23.7979C71.3873 23.8574 71.3022 23.947 71.2421 24.0667C71.1821 24.1824 71.1492 24.3262 71.1433 24.4981C71.1372 24.674 71.1679 24.828 71.2354 24.9603C71.307 25.0885 71.4116 25.1889 71.5491 25.2614C71.6906 25.334 71.8594 25.3707 72.0554 25.3715C72.1914 25.372 72.3121 25.3525 72.4175 25.313C72.5268 25.2735 72.6452 25.206 72.7725 25.1105L73.2006 25.748C73.0729 25.8554 72.9379 25.9428 72.7956 26.0102C72.6532 26.0776 72.5075 26.127 72.3584 26.1584C72.2132 26.1937 72.0686 26.2111 71.9246 26.2106ZM73.9242 26.1588L74.0336 22.9747L74.9456 22.9785L74.9533 23.6262L74.7589 23.6974C74.8078 23.5536 74.8903 23.424 75.0062 23.3086C75.1263 23.1891 75.2676 23.0937 75.4301 23.0224C75.5926 22.9511 75.7618 22.9158 75.9378 22.9166C76.1778 22.9176 76.3781 22.9684 76.5387 23.069C76.6994 23.1656 76.8184 23.312 76.8956 23.5083C76.973 23.7005 77.0069 23.9365 76.9973 24.2164L76.9302 26.1712L75.9642 26.1672L76.0287 24.2903C76.0331 24.1624 76.0187 24.0564 75.9856 23.9723C75.9525 23.8882 75.8986 23.826 75.824 23.7857C75.7535 23.7414 75.6642 23.7211 75.556 23.7246C75.472 23.7243 75.3935 23.738 75.3206 23.7656C75.2478 23.7893 75.1845 23.8271 75.1307 23.8788C75.077 23.9266 75.0331 23.9824 74.9989 24.0462C74.9687 24.11 74.9523 24.1799 74.9497 24.2559L74.8842 26.1628L74.4102 26.1608C74.2982 26.1604 74.2022 26.16 74.1222 26.1596C74.0422 26.1593 73.9762 26.159 73.9242 26.1588ZM77.9968 26.1756L78.1337 22.188L79.0937 22.1919L78.9568 26.1796L77.9968 26.1756ZM77.5133 23.8287L77.5421 22.9892L79.6841 22.998L79.6553 23.8375L77.5133 23.8287ZM82.0513 26.1923L82.2036 21.7549L83.1636 21.7589L83.0113 26.1963L82.0513 26.1923ZM85.3249 26.2658C84.9729 26.2643 84.6693 26.1931 84.4141 26.0521C84.159 25.9071 83.9637 25.7124 83.828 25.468C83.6926 25.2195 83.6302 24.9374 83.6411 24.6216C83.6494 24.3777 83.6971 24.154 83.7841 23.9505C83.8711 23.7469 83.9892 23.5715 84.1382 23.4242C84.2875 23.2728 84.4614 23.1576 84.6602 23.0785C84.8631 22.9953 85.0825 22.9543 85.3185 22.9552C85.5425 22.9562 85.7451 22.997 85.9264 23.0777C86.1116 23.1584 86.2698 23.271 86.4008 23.4155C86.5319 23.56 86.6301 23.7303 86.6953 23.9265C86.7606 24.1227 86.7853 24.3367 86.7693 24.5685L86.7545 24.8263L84.2165 24.8159L84.097 24.2756L85.993 24.2834L85.8871 24.3969L85.8912 24.277C85.8866 24.177 85.8577 24.089 85.8043 24.0128C85.755 23.9326 85.6871 23.8703 85.6006 23.826C85.5142 23.7817 85.4149 23.7593 85.3029 23.7588C85.1469 23.7582 85.0118 23.7896 84.8976 23.8531C84.7876 23.9126 84.7025 24.0022 84.6424 24.1219C84.5824 24.2376 84.5494 24.3814 84.5435 24.5533C84.5375 24.7292 84.5682 24.8833 84.6357 25.0155C84.7073 25.1437 84.8119 25.2441 84.9494 25.3167C85.0909 25.3892 85.2597 25.4259 85.4557 25.4267C85.5917 25.4273 85.7124 25.4078 85.8177 25.3682C85.9271 25.3287 86.0454 25.2612 86.1727 25.1658L86.6009 25.8032C86.4732 25.9107 86.3382 25.9981 86.1959 26.0655C86.0535 26.1328 85.9078 26.1822 85.7587 26.2136C85.6135 26.249 85.4689 26.2664 85.3249 26.2658ZM88.2439 26.2178L87.0212 23.0282L88.0832 23.0326L88.7935 25.4165L88.5587 25.4395L89.4572 23.0383L90.5072 23.0426L88.9999 26.221L88.2439 26.2178ZM92.3268 26.2946C91.9748 26.2932 91.6712 26.222 91.416 26.081C91.1609 25.936 90.9656 25.7413 90.8299 25.4968C90.6944 25.2484 90.6321 24.9662 90.643 24.6504C90.6513 24.4066 90.699 24.1829 90.786 23.9793C90.873 23.7758 90.9911 23.6003 91.1401 23.453C91.2894 23.3017 91.4633 23.1865 91.6621 23.1073C91.865 23.0242 92.0844 22.9831 92.3204 22.9841C92.5444 22.985 92.747 23.0258 92.9283 23.1065C93.1135 23.1873 93.2717 23.2999 93.4027 23.4444C93.5338 23.5888 93.632 23.7592 93.6972 23.9553C93.7625 24.1515 93.7872 24.3655 93.7712 24.5974L93.7564 24.8552L91.2184 24.8447L91.0989 24.3045L92.9949 24.3123L92.889 24.4258L92.8931 24.3059C92.8885 24.2059 92.8595 24.1178 92.8062 24.0416C92.7569 23.9615 92.689 23.8992 92.6025 23.8549C92.516 23.8105 92.4168 23.7881 92.3048 23.7877C92.1488 23.787 92.0137 23.8185 91.8995 23.882C91.7895 23.9415 91.7044 24.0311 91.6443 24.1508C91.5843 24.2665 91.5513 24.4103 91.5454 24.5822C91.5394 24.7581 91.5701 24.9121 91.6376 25.0444C91.7092 25.1726 91.8138 25.273 91.9513 25.3455C92.0928 25.4181 92.2616 25.4547 92.4576 25.4556C92.5936 25.4561 92.7143 25.4366 92.8196 25.3971C92.929 25.3575 93.0473 25.2901 93.1746 25.1946L93.6028 25.8321C93.4751 25.9395 93.3401 26.0269 93.1977 26.0943C93.0554 26.1617 92.9097 26.2111 92.7606 26.2425C92.6154 26.2778 92.4708 26.2952 92.3268 26.2946ZM94.3324 26.2429L94.4848 21.8055L95.4448 21.8095L95.2924 26.2469L94.3324 26.2429ZM96.2784 27.3665L95.7559 26.8545C96.1327 26.6002 96.4175 26.2855 96.6104 25.9105C96.8033 25.5354 96.9071 25.134 96.9218 24.7063C96.9365 24.2785 96.8603 23.8764 96.6932 23.4999C96.5261 23.1234 96.2629 22.8064 95.9037 22.5491L96.4672 22.0416C96.9448 22.3474 97.3037 22.7288 97.5441 23.1855C97.7844 23.6423 97.895 24.1506 97.8758 24.7102C97.8567 25.2659 97.7093 25.7731 97.4335 26.2317C97.1618 26.6864 96.7768 27.0646 96.2784 27.3665Z" fill="#145B24"/>
<circle cx="25" cy="19" r="12" fill="#43B85C"/>
</svg>
