<svg width="135" height="26" viewBox="0 0 135 26" fill="none" xmlns="http://www.w3.org/2000/svg">
<path d="M0.894531 11.0466C0.894531 4.94571 5.84025 0 11.9411 0H124.437C130.164 0 134.806 4.64243 134.806 10.3692C134.806 15.3344 131.29 19.6179 126.394 20.4465C82.0737 27.948 35.0755 27.5361 8.44671 21.098C3.86696 19.9908 0.894531 15.7583 0.894531 11.0466Z" fill="#F4BBEB" fill-opacity="0.8"/>
<path d="M28.6146 17.14C27.9333 17.14 27.3079 17.0187 26.7386 16.776C26.1693 16.5333 25.6746 16.188 25.2546 15.74C24.8346 15.2827 24.5079 14.746 24.2746 14.13C24.0506 13.514 23.9386 12.8373 23.9386 12.1C23.9386 11.4 24.0599 10.7513 24.3026 10.154C24.5546 9.54733 24.8999 9.01533 25.3386 8.558C25.7773 8.10067 26.2859 7.746 26.8646 7.494C27.4433 7.242 28.0686 7.116 28.7406 7.116C29.2166 7.116 29.6786 7.19067 30.1266 7.34C30.5839 7.48 30.9946 7.68067 31.3586 7.942C31.7319 8.194 32.0353 8.48333 32.2686 8.81L31.2606 9.86C30.9899 9.58933 30.7146 9.36533 30.4346 9.188C30.1639 9.00133 29.8839 8.86133 29.5946 8.768C29.3146 8.67467 29.0299 8.628 28.7406 8.628C28.2833 8.628 27.8539 8.71667 27.4526 8.894C27.0606 9.062 26.7153 9.3 26.4166 9.608C26.1273 9.916 25.8986 10.2847 25.7306 10.714C25.5626 11.134 25.4786 11.596 25.4786 12.1C25.4786 12.632 25.5579 13.1173 25.7166 13.556C25.8846 13.9853 26.1179 14.354 26.4166 14.662C26.7153 14.97 27.0699 15.208 27.4806 15.376C27.9006 15.5347 28.3626 15.614 28.8666 15.614C29.1746 15.614 29.4779 15.572 29.7766 15.488C30.0753 15.404 30.3553 15.2827 30.6166 15.124C30.8779 14.9653 31.1159 14.7787 31.3306 14.564L32.0866 15.796C31.8719 16.048 31.5779 16.2767 31.2046 16.482C30.8406 16.6873 30.4299 16.8507 29.9726 16.972C29.5246 17.084 29.0719 17.14 28.6146 17.14ZM37.0806 17.14C36.3619 17.14 35.7179 16.9767 35.1486 16.65C34.5886 16.314 34.1452 15.8613 33.8186 15.292C33.4919 14.7133 33.3286 14.0553 33.3286 13.318C33.3286 12.5807 33.4919 11.9273 33.8186 11.358C34.1452 10.7793 34.5886 10.3267 35.1486 10C35.7179 9.664 36.3619 9.496 37.0806 9.496C37.7899 9.496 38.4246 9.664 38.9846 10C39.5539 10.3267 40.0019 10.7793 40.3286 11.358C40.6552 11.9273 40.8186 12.5807 40.8186 13.318C40.8186 14.0553 40.6552 14.7133 40.3286 15.292C40.0019 15.8613 39.5539 16.314 38.9846 16.65C38.4246 16.9767 37.7899 17.14 37.0806 17.14ZM37.0806 15.824C37.5192 15.824 37.9112 15.7167 38.2566 15.502C38.6019 15.278 38.8726 14.9793 39.0686 14.606C39.2646 14.2233 39.3579 13.794 39.3486 13.318C39.3579 12.8327 39.2646 12.4033 39.0686 12.03C38.8726 11.6473 38.6019 11.3487 38.2566 11.134C37.9112 10.9193 37.5192 10.812 37.0806 10.812C36.6419 10.812 36.2452 10.924 35.8906 11.148C35.5452 11.3627 35.2746 11.6613 35.0786 12.044C34.8826 12.4173 34.7892 12.842 34.7986 13.318C34.7892 13.794 34.8826 14.2233 35.0786 14.606C35.2746 14.9793 35.5452 15.278 35.8906 15.502C36.2452 15.7167 36.6419 15.824 37.0806 15.824ZM42.3898 17V9.65H43.8318V11.162L43.5798 11.33C43.6732 11.0033 43.8552 10.7047 44.1258 10.434C44.3965 10.154 44.7185 9.93 45.0918 9.762C45.4652 9.58467 45.8478 9.496 46.2398 9.496C46.7998 9.496 47.2665 9.608 47.6398 9.832C48.0132 10.0467 48.2932 10.378 48.4798 10.826C48.6665 11.274 48.7598 11.8387 48.7598 12.52V17H47.3178V12.618C47.3178 12.198 47.2618 11.8527 47.1498 11.582C47.0378 11.302 46.8652 11.1013 46.6318 10.98C46.3985 10.8493 46.1092 10.7933 45.7638 10.812C45.4838 10.812 45.2272 10.8587 44.9938 10.952C44.7605 11.036 44.5552 11.1573 44.3778 11.316C44.2098 11.4747 44.0745 11.6613 43.9718 11.876C43.8785 12.0813 43.8318 12.3053 43.8318 12.548V17H43.1178C42.9965 17 42.8752 17 42.7538 17C42.6325 17 42.5112 17 42.3898 17ZM53.166 17.14C52.55 17.14 51.9947 17.0327 51.5 16.818C51.0053 16.6033 50.5947 16.286 50.268 15.866L51.248 15.026C51.528 15.3527 51.8313 15.5907 52.158 15.74C52.494 15.88 52.872 15.95 53.292 15.95C53.46 15.95 53.614 15.9313 53.754 15.894C53.9033 15.8473 54.0293 15.782 54.132 15.698C54.244 15.614 54.328 15.516 54.384 15.404C54.44 15.2827 54.468 15.152 54.468 15.012C54.468 14.7693 54.3793 14.5733 54.202 14.424C54.1087 14.3587 53.9593 14.2887 53.754 14.214C53.558 14.13 53.3013 14.046 52.984 13.962C52.4427 13.822 51.9993 13.6633 51.654 13.486C51.3087 13.3087 51.0427 13.108 50.856 12.884C50.716 12.7067 50.6133 12.5153 50.548 12.31C50.4827 12.0953 50.45 11.862 50.45 11.61C50.45 11.302 50.5153 11.022 50.646 10.77C50.786 10.5087 50.9727 10.2847 51.206 10.098C51.4487 9.902 51.7287 9.75267 52.046 9.65C52.3727 9.54733 52.718 9.496 53.082 9.496C53.4273 9.496 53.768 9.54267 54.104 9.636C54.4493 9.72933 54.7667 9.86467 55.056 10.042C55.3453 10.2193 55.588 10.4293 55.784 10.672L54.958 11.582C54.7807 11.4047 54.5847 11.2507 54.37 11.12C54.1647 10.98 53.9547 10.8727 53.74 10.798C53.5253 10.7233 53.3293 10.686 53.152 10.686C52.956 10.686 52.7787 10.7047 52.62 10.742C52.4613 10.7793 52.326 10.8353 52.214 10.91C52.1113 10.9847 52.032 11.078 51.976 11.19C51.92 11.302 51.892 11.428 51.892 11.568C51.9013 11.6893 51.9293 11.806 51.976 11.918C52.032 12.0207 52.1067 12.1093 52.2 12.184C52.3027 12.2587 52.4567 12.338 52.662 12.422C52.8673 12.506 53.1287 12.5853 53.446 12.66C53.9127 12.7813 54.2953 12.9167 54.594 13.066C54.902 13.206 55.1447 13.3693 55.322 13.556C55.5087 13.7333 55.6393 13.9387 55.714 14.172C55.7887 14.4053 55.826 14.6667 55.826 14.956C55.826 15.376 55.7047 15.754 55.462 16.09C55.2287 16.4167 54.9113 16.6733 54.51 16.86C54.1087 17.0467 53.6607 17.14 53.166 17.14ZM59.9912 17.14C59.4686 17.14 59.0112 17.0187 58.6192 16.776C58.2366 16.5333 57.9379 16.1927 57.7232 15.754C57.5179 15.3153 57.4152 14.7927 57.4152 14.186V9.65H58.8572V13.794C58.8572 14.2233 58.9226 14.5967 59.0532 14.914C59.1932 15.222 59.3892 15.46 59.6412 15.628C59.9026 15.796 60.2152 15.88 60.5792 15.88C60.8499 15.88 61.0972 15.838 61.3212 15.754C61.5452 15.6607 61.7366 15.5347 61.8952 15.376C62.0632 15.2173 62.1939 15.026 62.2872 14.802C62.3806 14.578 62.4272 14.3353 62.4272 14.074V9.65H63.8692V17H62.4272V15.46L62.6792 15.292C62.5672 15.6373 62.3759 15.95 62.1052 16.23C61.8439 16.51 61.5312 16.734 61.1672 16.902C60.8032 17.0607 60.4112 17.14 59.9912 17.14ZM65.8638 17V9.65H67.3198V11.218L67.0538 11.386C67.1285 11.1433 67.2451 10.91 67.4038 10.686C67.5718 10.462 67.7725 10.266 68.0058 10.098C68.2485 9.92067 68.5051 9.78067 68.7758 9.678C69.0558 9.57533 69.3405 9.524 69.6298 9.524C70.0498 9.524 70.4185 9.594 70.7358 9.734C71.0531 9.874 71.3145 10.084 71.5198 10.364C71.7251 10.644 71.8745 10.994 71.9678 11.414L71.7438 11.358L71.8418 11.12C71.9445 10.9053 72.0845 10.7047 72.2618 10.518C72.4485 10.322 72.6585 10.1493 72.8918 10C73.1251 9.85067 73.3725 9.734 73.6338 9.65C73.8951 9.566 74.1518 9.524 74.4038 9.524C74.9545 9.524 75.4071 9.636 75.7618 9.86C76.1258 10.084 76.3965 10.4247 76.5738 10.882C76.7605 11.3393 76.8538 11.9087 76.8538 12.59V17H75.3978V12.674C75.3978 12.254 75.3418 11.9133 75.2298 11.652C75.1271 11.3813 74.9685 11.1807 74.7538 11.05C74.5391 10.9193 74.2638 10.854 73.9278 10.854C73.6665 10.854 73.4191 10.9007 73.1858 10.994C72.9618 11.078 72.7658 11.1993 72.5978 11.358C72.4298 11.5167 72.2991 11.7033 72.2058 11.918C72.1125 12.1233 72.0658 12.352 72.0658 12.604V17H70.6098V12.646C70.6098 12.2633 70.5538 11.9413 70.4418 11.68C70.3298 11.4093 70.1665 11.204 69.9518 11.064C69.7371 10.924 69.4758 10.854 69.1678 10.854C68.9065 10.854 68.6638 10.9007 68.4398 10.994C68.2158 11.078 68.0198 11.1993 67.8518 11.358C67.6838 11.5073 67.5531 11.6893 67.4598 11.904C67.3665 12.1093 67.3198 12.3333 67.3198 12.576V17H65.8638ZM81.6124 17.14C81.0057 17.14 80.4504 16.972 79.9464 16.636C79.4517 16.3 79.055 15.8427 78.7564 15.264C78.4577 14.6853 78.3084 14.032 78.3084 13.304C78.3084 12.5667 78.4577 11.9133 78.7564 11.344C79.0644 10.7653 79.475 10.3127 79.9884 9.986C80.511 9.65933 81.0944 9.496 81.7384 9.496C82.121 9.496 82.471 9.552 82.7884 9.664C83.1057 9.776 83.381 9.93467 83.6144 10.14C83.857 10.336 84.053 10.5647 84.2024 10.826C84.361 11.0873 84.459 11.3673 84.4964 11.666L84.1744 11.554V9.65H85.6304V17H84.1744V15.25L84.5104 15.152C84.4544 15.404 84.3377 15.6513 84.1604 15.894C83.9924 16.1273 83.773 16.3373 83.5024 16.524C83.241 16.7107 82.947 16.86 82.6204 16.972C82.303 17.084 81.967 17.14 81.6124 17.14ZM81.9904 15.81C82.429 15.81 82.8164 15.7027 83.1524 15.488C83.4884 15.2733 83.7497 14.9793 83.9364 14.606C84.1324 14.2233 84.2304 13.7893 84.2304 13.304C84.2304 12.828 84.1324 12.4033 83.9364 12.03C83.7497 11.6567 83.4884 11.3627 83.1524 11.148C82.8164 10.9333 82.429 10.826 81.9904 10.826C81.561 10.826 81.1784 10.9333 80.8424 11.148C80.5157 11.3627 80.2544 11.6567 80.0584 12.03C79.8717 12.4033 79.7784 12.828 79.7784 13.304C79.7784 13.7893 79.8717 14.2233 80.0584 14.606C80.2544 14.9793 80.5157 15.2733 80.8424 15.488C81.1784 15.7027 81.561 15.81 81.9904 15.81ZM91.5077 17.14C91.1904 17.14 90.8731 17.0887 90.5557 16.986C90.2477 16.8833 89.9631 16.748 89.7017 16.58C89.4497 16.4027 89.2351 16.2113 89.0577 16.006C88.8897 15.7913 88.7777 15.5767 88.7217 15.362L89.0857 15.166V16.958H87.6437V6.64H89.0857V11.33L88.8617 11.204C88.9084 10.9893 89.0111 10.784 89.1697 10.588C89.3284 10.3827 89.5291 10.2007 89.7717 10.042C90.0237 9.874 90.2944 9.74333 90.5837 9.65C90.8731 9.54733 91.1671 9.496 91.4657 9.496C92.1284 9.496 92.7164 9.65933 93.2297 9.986C93.7431 10.3127 94.1491 10.7653 94.4477 11.344C94.7464 11.9133 94.8957 12.5667 94.8957 13.304C94.8957 14.0413 94.7464 14.6993 94.4477 15.278C94.1584 15.8567 93.7571 16.314 93.2437 16.65C92.7304 16.9767 92.1517 17.14 91.5077 17.14ZM91.2697 15.824C91.6991 15.824 92.0817 15.7167 92.4177 15.502C92.7537 15.278 93.0197 14.9793 93.2157 14.606C93.4117 14.2233 93.5097 13.7893 93.5097 13.304C93.5097 12.828 93.4117 12.4033 93.2157 12.03C93.0291 11.6473 92.7677 11.3487 92.4317 11.134C92.0957 10.9193 91.7084 10.812 91.2697 10.812C90.8311 10.812 90.4437 10.9193 90.1077 11.134C89.7717 11.3487 89.5057 11.6473 89.3097 12.03C89.1137 12.4033 89.0157 12.828 89.0157 13.304C89.0157 13.7893 89.1137 14.2233 89.3097 14.606C89.5057 14.9793 89.7717 15.278 90.1077 15.502C90.4437 15.7167 90.8311 15.824 91.2697 15.824ZM96.4901 17V6.64H97.9321V17H96.4901ZM103.269 17.14C102.513 17.14 101.841 16.9813 101.253 16.664C100.674 16.3373 100.217 15.894 99.8811 15.334C99.5544 14.774 99.3911 14.13 99.3911 13.402C99.3911 12.8233 99.4844 12.296 99.6711 11.82C99.8577 11.344 100.114 10.9333 100.441 10.588C100.777 10.2333 101.174 9.96267 101.631 9.776C102.098 9.58 102.602 9.482 103.143 9.482C103.619 9.482 104.062 9.57533 104.473 9.762C104.884 9.93933 105.238 10.1867 105.537 10.504C105.845 10.8213 106.078 11.1993 106.237 11.638C106.405 12.0673 106.484 12.5387 106.475 13.052L106.461 13.668H100.455L100.133 12.52H105.215L105.005 12.758V12.422C104.977 12.114 104.874 11.8387 104.697 11.596C104.52 11.3533 104.296 11.162 104.025 11.022C103.754 10.882 103.46 10.812 103.143 10.812C102.639 10.812 102.214 10.91 101.869 11.106C101.524 11.2927 101.262 11.5727 101.085 11.946C100.908 12.31 100.819 12.7627 100.819 13.304C100.819 13.8173 100.926 14.2653 101.141 14.648C101.356 15.0213 101.659 15.3107 102.051 15.516C102.443 15.7213 102.896 15.824 103.409 15.824C103.773 15.824 104.109 15.7633 104.417 15.642C104.734 15.5207 105.075 15.3013 105.439 14.984L106.167 16.006C105.943 16.23 105.668 16.426 105.341 16.594C105.024 16.762 104.683 16.8973 104.319 17C103.964 17.0933 103.614 17.14 103.269 17.14ZM110.492 17.14C109.876 17.14 109.321 17.0327 108.826 16.818C108.332 16.6033 107.921 16.286 107.594 15.866L108.574 15.026C108.854 15.3527 109.158 15.5907 109.484 15.74C109.82 15.88 110.198 15.95 110.618 15.95C110.786 15.95 110.94 15.9313 111.08 15.894C111.23 15.8473 111.356 15.782 111.458 15.698C111.57 15.614 111.654 15.516 111.71 15.404C111.766 15.2827 111.794 15.152 111.794 15.012C111.794 14.7693 111.706 14.5733 111.528 14.424C111.435 14.3587 111.286 14.2887 111.08 14.214C110.884 14.13 110.628 14.046 110.31 13.962C109.769 13.822 109.326 13.6633 108.98 13.486C108.635 13.3087 108.369 13.108 108.182 12.884C108.042 12.7067 107.94 12.5153 107.874 12.31C107.809 12.0953 107.776 11.862 107.776 11.61C107.776 11.302 107.842 11.022 107.972 10.77C108.112 10.5087 108.299 10.2847 108.532 10.098C108.775 9.902 109.055 9.75267 109.372 9.65C109.699 9.54733 110.044 9.496 110.408 9.496C110.754 9.496 111.094 9.54267 111.43 9.636C111.776 9.72933 112.093 9.86467 112.382 10.042C112.672 10.2193 112.914 10.4293 113.11 10.672L112.284 11.582C112.107 11.4047 111.911 11.2507 111.696 11.12C111.491 10.98 111.281 10.8727 111.066 10.798C110.852 10.7233 110.656 10.686 110.478 10.686C110.282 10.686 110.105 10.7047 109.946 10.742C109.788 10.7793 109.652 10.8353 109.54 10.91C109.438 10.9847 109.358 11.078 109.302 11.19C109.246 11.302 109.218 11.428 109.218 11.568C109.228 11.6893 109.256 11.806 109.302 11.918C109.358 12.0207 109.433 12.1093 109.526 12.184C109.629 12.2587 109.783 12.338 109.988 12.422C110.194 12.506 110.455 12.5853 110.772 12.66C111.239 12.7813 111.622 12.9167 111.92 13.066C112.228 13.206 112.471 13.3693 112.648 13.556C112.835 13.7333 112.966 13.9387 113.04 14.172C113.115 14.4053 113.152 14.6667 113.152 14.956C113.152 15.376 113.031 15.754 112.788 16.09C112.555 16.4167 112.238 16.6733 111.836 16.86C111.435 17.0467 110.987 17.14 110.492 17.14Z" fill="black"/>
</svg>
