<svg  viewBox="0 0 120 120" fill="none" xmlns="http://www.w3.org/2000/svg">
<path d="M60.4299 119.77C40.2399 119.77 21.5999 109.68 10.5899 92.78C1.91989 79.48 -1.05011 63.6 2.21989 48.06C5.48989 32.52 14.6199 19.19 27.9199 10.52C37.6099 4.20999 48.8199 0.869995 60.3299 0.869995C80.5199 0.869995 99.1599 10.96 110.17 27.86C118.84 41.16 121.81 57.04 118.54 72.58C115.27 88.12 106.14 101.45 92.8399 110.12C83.1599 116.44 71.9499 119.77 60.4299 119.77Z" fill="#5D5F67"/>
<path d="M60.4296 116.77C41.2496 116.77 23.5596 107.19 13.0996 91.14C4.86965 78.51 2.04965 63.43 5.14965 48.68C8.25965 33.93 16.9296 21.27 29.5596 13.04C38.7596 7.04001 49.3996 3.88 60.3396 3.88C79.5196 3.88 97.2096 13.46 107.67 29.51C115.9 42.14 118.72 57.22 115.62 71.97C112.51 86.72 103.84 99.38 91.2096 107.61C82.0097 113.6 71.3696 116.77 60.4296 116.77Z" fill="#56585F"/>
<path d="M60.4295 112.77C42.6095 112.77 26.1695 103.87 16.4495 88.96C8.79948 77.23 6.17949 63.21 9.06949 49.51C11.9595 35.8 20.0095 24.04 31.7495 16.39C40.2995 10.82 50.1795 7.87 60.3395 7.87C78.1595 7.87 94.5995 16.77 104.319 31.68C111.969 43.41 114.589 57.43 111.699 71.13C108.809 84.83 100.759 96.6 89.0195 104.25C80.4795 109.83 70.5895 112.77 60.4295 112.77Z" fill="#6A6C74"/>
<path d="M60.3795 109.77C87.6844 109.77 109.819 87.6349 109.819 60.33C109.819 33.025 87.6844 10.89 60.3795 10.89C33.0745 10.89 10.9395 33.025 10.9395 60.33C10.9395 87.6349 33.0745 109.77 60.3795 109.77Z" fill="#5D5F67"/>
</svg>
