<svg width="306" height="107" viewBox="0 0 306 107" fill="none" xmlns="http://www.w3.org/2000/svg">
<path d="M300.526 67.4612C305.921 84.1697 293.882 101.331 276.413 101.738C235.78 102.684 195.847 102.684 155.386 102.64C153.485 102.638 151.583 102.636 149.68 102.634C111.081 102.59 71.9524 102.546 31.2946 103.285C16.3289 103.557 4 91.5559 4 76.6338L4 30.2197C4 16.1972 14.8724 4.72139 28.7795 4.26771C56.3431 3.36851 100.13 2.73483 141.783 5.49205C193.024 8.88391 254.552 29.2617 281.126 38.8542C288.474 41.5064 294.077 47.4852 296.509 55.0162L300.526 67.4612Z" fill="#8BF167" stroke="#43B85C" stroke-width="7"/>
</svg>
