<svg  viewBox="0 0 372 116" fill="none" xmlns="http://www.w3.org/2000/svg">
<path d="M4.49945 27.4149C4.54663 23.6836 7.80426 19.6502 16.8387 15.9114C25.5702 12.298 38.299 9.58856 53.9911 7.71925C85.3018 3.98936 127.423 3.70964 170.513 5.56501C213.572 7.41905 257.443 11.3978 292.195 16.1368C309.576 18.507 324.627 21.0606 336.132 23.622C341.887 24.9033 346.704 26.1752 350.457 27.4105C354.303 28.6764 356.723 29.807 357.929 30.6922C363.944 35.1074 367.056 42.6066 368.062 52.0167C369.065 61.3919 367.904 72.0973 365.94 82.0737C362.368 100.208 345.238 111.871 326.02 111.871H50.2318C24.8218 111.871 4.19393 91.498 4.23168 66.1529C4.2491 54.4518 4.32392 41.2976 4.49945 27.4149Z" fill="#78DA9F" stroke="#4BA56F" stroke-width="7"/>
</svg>
