<svg viewBox="0 0 925 222" fill="none" xmlns="http://www.w3.org/2000/svg">
<path d="M0 148.524C0 128.038 12.6038 109.598 31.7764 102.381C374.605 -26.6669 573.975 -28.4826 894.958 102.09C913.195 109.508 925 127.341 925 147.029C925 182.337 888.693 206.02 855.883 192.976C568.596 78.7635 375.448 81.7071 68.4393 195.471C35.4916 207.68 0 183.661 0 148.524Z" fill="#F3EDE1" fill-opacity="0.8"/>
<rect x="58.6024" y="87.1945" width="77.7153" height="77.7153" rx="26.5" transform="rotate(29.1089 58.6024 87.1945)" fill="#F39A8E" stroke="#B86D63" stroke-width="7"/>
<rect x="441.721" y="4.76059" width="77.7153" height="77.7153" rx="26.5" transform="rotate(29.1089 441.721 4.76059)" fill="#98ED7A" stroke="#68AE50" stroke-width="7"/>
<rect x="838.586" y="87.1864" width="77.7153" height="77.7153" rx="26.5" transform="rotate(29.1089 838.586 87.1864)" fill="#F588DD" stroke="#B659A1" stroke-width="7"/>
<rect x="671.445" y="32.999" width="77.7153" height="77.7153" rx="26.5" transform="rotate(29.1089 671.445 32.999)" fill="#6CDDED" stroke="#4DA7B4" stroke-width="7"/>
<rect x="225.735" y="35.2887" width="77.7153" height="77.7153" rx="26.5" transform="rotate(29.1089 225.735 35.2887)" fill="#E2D878" stroke="#B1A850" stroke-width="7"/>
</svg>
