<svg  viewBox="0 0 215 164" fill="none" xmlns="http://www.w3.org/2000/svg">
<path d="M7.98365 127.82C5.80903 142.899 16.7304 156.583 31.7551 157.282C56.8129 158.447 81.5271 158.487 106.568 158.432C108.821 158.427 111.076 158.421 113.334 158.416C136.16 158.358 159.304 158.3 183.164 159.024C198.576 159.491 211.5 147.298 211.5 132.027L211.5 29.221C211.5 15.935 201.732 4.96913 188.756 4.22176C170.097 3.14704 143.992 2.82148 119.078 6.51356C101.922 9.05587 82.78 18.0924 65.5254 28.4831C48.3392 38.8325 33.3438 50.3282 24.5348 57.4782C19.7774 61.3395 16.7647 66.929 15.8708 73.1278L7.98365 127.82Z" fill="#F19A87" stroke="#C16651" stroke-width="7"/>
<text transform="matrix(0.999784 0.0207817 -0.0068071 0.999977 52.5596 35)" fill="#FEFFFE" xml:space="preserve" style="white-space: pre" font-family="Lexend Deca" font-size="30" font-weight="bold" letter-spacing="0em"><tspan x="0" y="30.25">Release </tspan><tspan x="0" y="68.25">Cypher</tspan></text>
<text transform="matrix(0.999784 0.0207817 -0.0068071 0.999977 52.5596 35)" fill="#FEFFFE" xml:space="preserve" style="white-space: pre" font-family="Lexend Deca" font-size="16" font-weight="bold" letter-spacing="0em"><tspan x="0" y="88.25">(You will lose the </tspan><tspan x="0" y="108.25">Cypher)</tspan></text>
</svg>
