<svg width="167" height="81" viewBox="0 0 167 81" fill="none" xmlns="http://www.w3.org/2000/svg">
<path d="M3.5 44.8245C3.5 31.8466 11.0857 20.0749 23.001 15.6685C45.7085 7.27106 64.8934 3.37191 83.8127 3.50321C102.74 3.63455 121.619 7.80074 143.722 15.8203C155.767 20.1905 163.5 31.9993 163.5 45.0549C163.5 62.9738 148.974 77.5 131.055 77.5H36.1755C18.1293 77.5 3.5 62.8707 3.5 44.8245Z" fill="#78DA9F" stroke="#4BA56F" stroke-width="7"/>
<path d="M72.4046 58.21C70.5146 58.21 68.8229 57.8017 67.3296 56.985C65.8363 56.145 64.6579 55.0017 63.7946 53.555C62.9546 52.085 62.5346 50.4283 62.5346 48.585V33.465H66.3146V48.27C66.3146 49.46 66.5946 50.5333 67.1546 51.49C67.7146 52.4233 68.4496 53.17 69.3596 53.73C70.2929 54.29 71.3079 54.57 72.4046 54.57C73.5713 54.57 74.6213 54.29 75.5546 53.73C76.5113 53.17 77.2696 52.4233 77.8296 51.49C78.3896 50.5333 78.6696 49.46 78.6696 48.27V33.465H82.2746V48.585C82.2746 50.4283 81.8429 52.085 80.9796 53.555C80.1396 55.0017 78.9729 56.145 77.4796 56.985C75.9863 57.8017 74.2946 58.21 72.4046 58.21ZM88.7928 58V33.5H98.7678C100.098 33.5 101.299 33.8383 102.373 34.515C103.469 35.1683 104.344 36.0667 104.998 37.21C105.651 38.3533 105.978 39.625 105.978 41.025C105.978 42.425 105.651 43.6967 104.998 44.84C104.344 45.9833 103.469 46.905 102.373 47.605C101.299 48.2817 100.098 48.62 98.7678 48.62H92.5728V58H88.7928ZM92.5728 44.98H98.6978C99.3278 44.98 99.8995 44.805 100.413 44.455C100.926 44.0817 101.334 43.6033 101.638 43.02C101.964 42.4133 102.128 41.7483 102.128 41.025C102.128 40.3017 101.964 39.6483 101.638 39.065C101.334 38.4817 100.926 38.015 100.413 37.665C99.8995 37.315 99.3278 37.14 98.6978 37.14H92.5728V44.98Z" fill="white"/>
</svg>
